<?xml version="1.0" encoding="UTF-8" standalone="no"?>
<svg xmlns="http://www.w3.org/2000/svg" xmlns:xlink="http://www.w3.org/1999/xlink">
	<defs>
		<g id="kidneys">
			<path fill="#FFC05F" stroke="#603813" stroke-width="6" d="M30.634,25.415c2.451,9.498,11.91,3.167,9.498-5.822
				C33.392-5.532,6.102,20.611,5.909,45.363C5.69,73.552,11.236,81.746,23.872,74.165c9.567-5.739,16.66-15.319,17.814-26.044
				c1.607-14.927-9.829-4.164-10.959-1.226"/>
			<path fill="#FFC05F" stroke="#603813" stroke-width="6" d="M70.487,25.415c-2.451,9.498-11.91,3.167-9.498-5.822
				c6.741-25.124,34.03,1.019,34.223,25.771c0.219,28.189-5.327,36.383-17.963,28.802c-9.567-5.739-16.66-15.319-17.814-26.044
				c-1.607-14.927,9.829-4.164,10.959-1.226"/>
			<path fill="none" stroke="#603813" stroke-width="4" d="M37.667,36.333c0,0,7.333-8.554,10.333,6.779
				c2.166,11.069-6.159,51.554-6.159,51.554"/>
			<path fill="none" stroke="#603813" stroke-width="4" d="M63.572,36.333c0,0-7.333-8.554-10.333,6.779
				c-2.166,11.069,6.159,51.554,6.159,51.554"/>
        </g>
        <g id="heart">
			<path fill="#FF99B1" stroke="#C1272D" stroke-width="6" d="M50,23.333C50,23.333,1.333-9,12,37c4.283,18.472,35,55,35,55
	s40.521-15.887,40.667-55.667C87.825-7,50,23.333,50,23.333z"/>
        </g>
        <g id="nterminus">
            <path fill="none" stroke="#f88" stroke-width="6" d="M50,20 l30,0" />
            <path fill="none" stroke="#f88" stroke-width="6" d="M60,0 l0,0 20,20 -20,20" />
            <path fill="none" stroke="#999" stroke-width="6" d="M50,0 l0,100" />
        </g>
        <g id="cterminus">
            <path fill="none" stroke="#f88" stroke-width="6" d="M50,80 l-30,0" />
            <path fill="none" stroke="#f88" stroke-width="6" d="M40,60 l0,0 -20,20 20,20" />
            <path fill="none" stroke="#999" stroke-width="6" d="M50,0 l0,100" />
        </g>
        <symbol id="revealmore">
			<rect fill="#fff" fill-opacity="0.5" stroke="#000000" stroke-width="10" stroke-miterlimit="10" x="0" width="100" height="100" y="5" rx="15" />
				<line fill="none" stroke="#000000" stroke-width="10" stroke-miterlimit="10" x1="50" y1="27.5" x2="50" y2="82.5"/>
			<line fill="none" stroke="#000000" stroke-width="10" stroke-miterlimit="10" x1="22.5" y1="55" x2="77.5" y2="55"/>
        </symbol>
        <g id="trash">
			<path style="fill:#fff;stroke:#010202;stroke-miterlimit:10;" stroke-width="2" d="M79.422,84.396c0,5.571-4.516,10.088-10.088,10.088H30.666
				c-5.571,0-10.088-4.517-10.088-10.088V25.031h58.844V84.396z"/>
			<path style="fill:#fff;stroke:#010202;stroke-miterlimit:10;" stroke-width="2" d="M16.375,20.51v-1.682c0-5.57,4.517-10.088,10.088-10.088h47.074
				c5.572,0,10.088,4.518,10.088,10.088v1.682H16.375z"/>
			<path style="fill:#fff;stroke:#010202;stroke-miterlimit:10;" stroke-width="2" d="M36.445,8.74V7.989c0-2.486,1.82-4.503,4.066-4.503h18.977
				c2.246,0,4.066,2.017,4.066,4.503V8.74H36.445z"/>
			<g style="opacity:0.8;">
				<path style="fill:#010202;stroke:#010202;stroke-miterlimit:10;" d="M38.389,79.458c0,1.335-1.082,2.417-2.417,2.417l0,0
					c-1.335,0-2.417-1.082-2.417-2.417V35.746c0-1.335,1.082-2.417,2.417-2.417l0,0c1.335,0,2.417,1.082,2.417,2.417V79.458z"/>
				<path style="fill:#010202;stroke:#010202;stroke-miterlimit:10;" d="M52.416,79.248c0,1.335-1.082,2.417-2.417,2.417l0,0
					c-1.335,0-2.417-1.082-2.417-2.417V35.535c0-1.334,1.082-2.416,2.417-2.416l0,0c1.334,0,2.417,1.082,2.417,2.416V79.248z"/>
				<path style="fill:#010202;stroke:#010202;stroke-miterlimit:10;" d="M66.445,79.248c0,1.335-1.082,2.417-2.418,2.417l0,0
					c-1.334,0-2.416-1.082-2.416-2.417V35.535c0-1.334,1.082-2.416,2.416-2.416l0,0c1.336,0,2.418,1.082,2.418,2.416V79.248z"/>
			</g>
        </g>
        <g id="prefs">
	<path fill-opacity="0" stroke="#00000F" stroke-width="12" d="M73.627,49.871c0,12.602-10.386,22.816-23.198,22.816
		c-12.812,0-23.2-10.215-23.2-22.816s10.387-22.817,23.2-22.817C63.241,27.054,73.627,37.27,73.627,49.871z"/>
	<path fill="#00000F" d="M42.744,5.287h15.033c1.102,0,1.997,0.893,1.997,1.995v18.254c0,1.103-0.895,1.996-1.997,1.996H42.744
		c-1.102,0-1.996-0.894-1.996-1.996V7.282C40.748,6.18,41.642,5.287,42.744,5.287z"/>
	<path fill="#00000F" d="M43.004,73.467h15.033c1.103,0,1.997,0.895,1.997,1.996v18.254c0,1.102-0.894,1.996-1.997,1.996H43.004
		c-1.103,0-1.997-0.895-1.997-1.996V75.463C41.007,74.362,41.901,73.467,43.004,73.467z"/>
	<path fill="#00000F" d="M5.5,58.25V43.217c0-1.104,0.895-1.996,1.997-1.996H25.75c1.102,0,1.997,0.893,1.997,1.996V58.25
		c0,1.104-0.895,1.994-1.997,1.994H7.497C6.395,60.244,5.5,59.354,5.5,58.25z"/>
	<path fill="#00000F" d="M73.255,57.973V42.939c0-1.104,0.894-1.996,1.996-1.996h18.254c1.103,0,1.996,0.893,1.996,1.996v15.033
		c0,1.104-0.893,1.996-1.996,1.996H75.25C74.148,59.969,73.255,59.076,73.255,57.973z"/>
	<path fill="#00000F" d="M12.977,24.295l10.629-10.63c0.78-0.779,2.044-0.779,2.824,0l12.906,12.907
		c0.781,0.779,0.781,2.043,0,2.823L28.706,40.023c-0.78,0.781-2.043,0.781-2.823,0L12.977,27.117
		C12.197,26.339,12.197,25.074,12.977,24.295z"/>
	<path fill="#00000F" d="M87.544,23.802L76.915,13.173c-0.78-0.78-2.043-0.78-2.823,0L61.185,26.08c-0.78,0.778-0.78,2.042,0,2.823
		l10.631,10.628c0.779,0.779,2.043,0.779,2.822,0l12.907-12.906C88.325,25.846,88.325,24.583,87.544,23.802z"/>
	<path fill="#00000F" d="M61.445,72.012l10.63-10.633c0.778-0.777,2.044-0.777,2.822,0l12.908,12.909c0.78,0.779,0.78,2.043,0,2.822
		l-10.63,10.631c-0.779,0.779-2.043,0.779-2.824,0L61.445,74.834C60.666,74.053,60.666,72.789,61.445,72.012z"/>
	<path fill="#00000F" d="M39.597,72.287l-10.63-10.629c-0.779-0.779-2.043-0.779-2.823,0L13.236,74.565
		c-0.779,0.779-0.779,2.043,0,2.822l10.63,10.631c0.78,0.779,2.044,0.779,2.823,0L39.597,75.11
		C40.376,74.331,40.376,73.066,39.597,72.287z"/>
        </g>
	</defs>
	<g>
		<rect x="0" y="0" width="100" height="100" stroke-width="0.1" stroke="#000" fill="none"/>
		<text x="20" y="50" font-family="helvetica">100 x 100</text>
		<text x="0" y="15"  font-family="helvetica">0</text>
		<text x="70" y="100"  font-family="helvetica">100</text>
	</g>
	<use xlink:href="#kidneys" x="100" y="100" width="100" height="100"/>
	<use xlink:href="#heart" x="200" y="100" width="100" height="100"/>
	<use xlink:href="#nterminus" x="300" y="100" width="100" height="100"/>
	<use xlink:href="#cterminus" x="400" y="100" width="100" height="100"/>
	<use xlink:href="#trash" x="500" y="100" width="100" height="100"/>
	<use xlink:href="#prefs" x="600" y="100" width="100" height="100"/>
	<use xlink:href="#revealmore" x="800" y="100" width="100" height="100"/>

</svg>
