<?xml version="1.0" encoding="UTF-8" standalone="no"?>
<svg xmlns="http://www.w3.org/2000/svg" xmlns:xlink="http://www.w3.org/1999/xlink">
	<defs>
        <g id="galnac">
			<rect x="1" y="1" fill="#ff0" width="98" height="98" stroke-width="3" stroke="#000"/>
        </g>
        <g id="glcnac">
			<rect x="1" y="1" fill="#00f" width="98" height="98" stroke-width="0" stroke="#000"/>
        </g>

        <g id="light_galnac">
			<rect x="0" y="0" fill="#ffffB3" width="100" height="100" stroke-width="10" stroke="#a6a635"/>
        </g>
        <g id="gal(b1-3)galnac">
			<circle cx="50" cy="22" fill="#ff0" r="20" stroke-width="3" stroke="#000"/>
			<rect x="26" y="50" fill="#ff0" width="48" height="48" stroke-width="3" stroke="#000"/>
        </g>
        <g id="glcnac(b1-4)glcnac">
			<rect x="27" y="0" fill="#00f" width="46" height="46" stroke-width="0" stroke="#000"/>
			<rect x="27" y="54" fill="#00f" width="46" height="46" stroke-width="0" stroke="#000"/>
        </g>
        <g id="man">
			<circle cx="50" cy="50" fill="#0f0" r="48" stroke-width="3" stroke="#000"/>
        </g>
        <g id="glc">
			<circle cx="50" cy="50" fill="#00f" r="50" stroke-width="0" stroke="#000"/>
        </g>
        <g id="gal">
			<circle cx="50" cy="50" fill="#ff0" r="48" stroke-width="3" stroke="#000"/>
        </g>
        <g id="hex">
			<circle cx="50" cy="50" fill="#fff" r="48" stroke-width="3" stroke="#000"/>
        </g>
        <g id="hexnac">
			<rect x="1" y="1" fill="#fff" width="98" height="98" stroke-width="3" stroke="#000"/>
        </g>

        <g id="fuc">
        	<path d="M50,15 90,90 10,90 z" fill="#f00" stroke="#000" stroke-width="3"/>
        </g>
        <g id="xyl">
<polyline fill="#FBEAD6" stroke="#000" stroke-width="3" stroke-linecap="round" stroke-linejoin="round" stroke-miterlimit="10" points="
	67.802,60.462 78.803,94.32 50.001,69.823 21.196,94.322 32.199,60.462 3.386,39.531 38.999,39.534 50,5.678 61.002,39.536 96.615,39.539 67.804,60.462 "/>
        </g>
        <g id="glcnac(b1-4)glcnac.potential">
			<rect x="27" y="0" fill="#67a2fc" width="46" height="46" stroke-width="0" stroke="#000"/>
			<rect x="27" y="54" fill="#67a2fc" width="46" height="46" stroke-width="0" stroke="#000"/>
        </g>
	</defs>
	<g>
		<rect x="0" y="0" width="100" height="100" stroke-width="0.1" stroke="#000" fill="none"/>
		<text x="20" y="50" font-family="helvetica">100 x 100</text>
		<text x="0" y="15"  font-family="helvetica">0</text>
		<text x="70" y="100"  font-family="helvetica">100</text>
	</g>
	<use xlink:href="#galnac" x="100" y="100" width="100" height="100"/>

	<use xlink:href="#man" x="200" y="100" width="100" height="100"/>
	<use xlink:href="#gal(b1-3)galnac" x="300" y="100" width="100" height="100"/>
	<use xlink:href="#glcnac(b1-4)glcnac" x="400" y="100" width="100" height="100"/>
	<use xlink:href="#glcnac" x="500" y="100" width="100" height="100"/>
	<use xlink:href="#fuc" x="600" y="100" width="100" height="100"/>
	<use xlink:href="#glc" x="700" y="100" width="100" height="100"/>
	<use xlink:href="#gal" x="800" y="100" width="100" height="100"/>
	<use xlink:href="#hex" x="900" y="100" width="100" height="100"/>
	<use xlink:href="#hexnac" x="1000" y="100" width="100" height="100"/>
	<use xlink:href="#xyl" x="1100" y="100" width="100" height="100"/>
	<use xlink:href="#glcnac(b1-4)glcnac.potential" x="1200" y="100" width="100" height="100"/>
</svg>
