<?xml version="1.0" encoding="utf-8"?>
<!-- Generator: Adobe Illustrator 13.0.0, SVG Export Plug-In . SVG Version: 6.00 Build 14948)  -->
<!DOCTYPE svg PUBLIC "-//W3C//DTD SVG 1.1//EN" "http://www.w3.org/Graphics/SVG/1.1/DTD/svg11.dtd">
<svg version="1.1" id="Layer_1" xmlns="http://www.w3.org/2000/svg" xmlns:xlink="http://www.w3.org/1999/xlink" x="0px" y="0px"
	 width="100%" height="100%" viewBox="0 0 242 134" style="enable-background:new 0 0 242 134;" xml:space="preserve">
<g keyword="cell wall">
	<g>
		<g keyword="cell wall">
			<path style="fill:#009F01;" d="M189.75,18.12c-23.13-5.72-42-6.57-66.25-6C107.5,12.5,75,14.5,67,19.5
				c-8.11,5.07-15.75,20.75-16.5,31.25c-0.88,12.38-1.11,26.16,1.25,36.5c2,8.75,4,18.63,23.25,23.5
				c23.9,6.04,52.71,6.3,78.25,10.75c24.3,4.24,58.13,15.83,65.5-7.88c7.5-24.12,0.49-28.62,4.5-51.12
				C227.75,37.25,212.42,23.73,189.75,18.12z M217.75,73.25c-2.39,11.64,4.6,38.74-12.21,48.82c-7.79,4.68-51.99-4.66-78.04-7.32
				c-18.43-1.88-47.46-2.48-63-14c-9.79-7.25-11.77-41.71-8.75-54c3.75-15.25,9.75-23.75,21-27s78.76-11.09,117.01,4.76
				C219.23,35.07,223.75,44,217.75,73.25z"/>
		</g>
	</g>
	<g>
		<path style="fill:#FFFFFF;stroke:#000000;" d="M37.75,67.5c0,4-3.25,7.25-7.25,7.25h-21c-4,0-7.25-3.25-7.25-7.25l0,0
			c0-4,3.25-7.25,7.25-7.25h21C34.5,60.25,37.75,63.5,37.75,67.5L37.75,67.5z"/>
		<text transform="matrix(1 0 0 1 10.1924 69.25)" style="font-family:'Helvetica'; font-size:4pt;">Cell wall</text>
		<g>
			<g>
				<line style="fill:none;stroke:#000000;" x1="37.75" y1="68.25" x2="52.5" y2="70.5"/>
				<circle cx="52.5" cy="70.5" r="1.32"/>
			</g>
		</g>
	</g>
</g>
<g keyword="plasma membrane">
	<g>
		<g>
			<path keyword="plasma membrane" style="fill:#FDFF3F;" d="M193.76,24.51C155.51,8.66,88,16.5,76.75,19.75s-17.25,11.75-21,27
				c-3.02,12.29-1.04,46.75,8.75,54c15.54,11.52,44.57,12.12,63,14c26.06,2.66,70.25,12,78.04,7.32
				c16.8-10.08,9.82-37.18,12.21-48.82C223.75,44,219.23,35.07,193.76,24.51z M213.72,98.99c-5.06,27.27-29.79,19.14-50.5,16.28
				c-25.73-3.55-51.68-5.71-77.25-10.24c-27.06-4.79-25.66-20.81-27.4-44.94C57.87,50.5,64.25,29.5,75,24.25s53.8-7.07,82.41-3.96
				c17.03,1.85,43.71,5.81,54.65,20.51c7.07,9.49,1.67,23.18,1.12,33.73C212.75,82.98,215.33,90.31,213.72,98.99z"/>
		</g>
	</g>
	<g>
		<path style="fill:#FFFFFF;stroke:#000000;" d="M48,92.25c0,4-3.25,7.25-7.25,7.25h-21c-4,0-7.25-3.25-7.25-7.25l0,0
			c0-4,3.25-7.25,7.25-7.25h21C44.75,85,48,88.25,48,92.25L48,92.25z"/>
		<text transform="matrix(1 0 0 1 21.4141 90.75)"><tspan x="0" y="0" style="font-family:'Helvetica'; font-size:4pt;">Plasma</tspan><tspan x="-3.61" y="6" style="font-family:'Helvetica'; font-size:4pt;">membrane</tspan></text>
		<g>
			<g>
				<line style="fill:none;stroke:#000000;" x1="48" y1="93" x2="62.75" y2="95.25"/>
				<circle cx="62.75" cy="95.25" r="1.32"/>
			</g>
		</g>
	</g>
</g>
<g keyword="plasma">
    <path style="fill:#DCFF9F;stroke:#000000;stroke-width:0.5;" d="M58.56,60.1c1.74,24.13,0.34,40.14,27.4,44.94
	c25.57,4.53,51.52,6.68,77.25,10.24c20.71,2.86,45.45,10.99,50.5-16.28c1.61-8.68-0.97-16.01-0.54-24.46
	c0.54-10.56,5.94-24.24-1.12-33.73c-10.94-14.7-37.63-18.66-54.65-20.51C128.8,17.18,85.75,19,75,24.25S57.87,50.5,58.56,60.1z"/>
</g>
<g>
	<path style="fill:#FDFF1F;stroke:#B7BF00;stroke-width:0.25;" d="M162.48,95.4c-0.24-1.19,0.31-2.5,1.14-1.52
		c0.42,1.02,1.54,10.02-1.17,9.67c-1.41,0.1,1.03-5.27,0.15-7.27L162.48,95.4z"/>
	<path style="fill:#FDFF1F;stroke:#B7BF00;stroke-width:0.25;" d="M166.12,102.79c1.4,2.73-2.96,6.02-4.41,5.41
		c-0.3-0.49-0.3-0.7-0.17-1.27c0.71-1.11,1.5-0.5,2.5-1.38C164.81,104.89,164.73,102.19,166.12,102.79z"/>
	<path style="fill:#FDFF1F;stroke:#B7BF00;stroke-width:0.25;" d="M170.2,102.13c0.06,2.62-2.31,10.57-5.06,11.66
		c-3.62,1.43,0.23-2.95,0.75-3.6c1.5-1.87,1.8-4.04,2.26-6.45C168.15,103.73,169.43,100.73,170.2,102.13z"/>
</g>
<g keyword="mitochondria">
	<g>
		
			<ellipse keyword="mitochondria" transform="matrix(-0.9772 -0.2124 0.2124 -0.9772 278.5438 83.7402)" style="fill:#00DFD3;stroke:#000000;stroke-width:0.25;" cx="143.77" cy="26.91" rx="8.27" ry="4.07"/>
		
			<ellipse transform="matrix(0.9772 0.2124 -0.2124 0.9772 8.9961 -29.9242)" style="fill:#5F7EFF;stroke:#000000;stroke-width:0.25;" cx="143.77" cy="26.91" rx="7.42" ry="3.59"/>
		<path style="fill:#3F9BFF;stroke:#000000;stroke-width:0.25;" d="M137.38,25.11c0.02-1.6,1.29-0.52,1.64,0.18
			c0.15-0.22,0.14-0.97,0.34-1.16c0.65-0.62,0.61,0.26,0.86,0.48c1.17,1.07,0.53-0.76,1.51-0.61c0.62,0.1,0.18,0.68,0.64,0.89
			c0.79,0.35,0.51-0.48,0.9-0.72c1.12-0.69,0.14,1.32,0.87,1.7c0.22-0.41,1.14-1.44,1.56-1.36c0.2,0.39-0.31,1.4,0.13,1.61
			c0.45,0.22,0.82-1.13,1.43-0.54c0.5,0.48-0.02,1.07,0.51,1.52c0.51,0.43,0.91-0.85,1.34-1.02c0.42,0.52,0.15,0.8,0,1.31
			c0.49,0.08,0.55,0.13,1,0.04c0.27,0.82-0.42,0.65-0.7,1.05c-0.34,0.47-0.06,1.04-0.47,1.41c-0.32-0.43-0.17-0.82-0.73-0.92
			c-0.18,0.36-0.29,0.87-0.82,0.76c-0.41-0.08-0.51-0.75-0.89-1.04c-0.33,0.42-0.27,1.48-1.07,1.13c0.11-0.43-0.13-1.23-0.51-0.63
			c-0.38,0.06-0.68,0.29-0.84,0.64c-0.74-0.05-0.29-1.07-0.92-1.22c-0.38-0.09-0.97,0.75-1.23,0.96c-0.27-0.32-0.16-1.03-0.47-1.23
			c-0.49-0.32-0.8,0.36-1.35,0.25c0.02-0.34,0.02-0.66,0-1c-0.36-0.05-0.91,0.35-1.24,0.19c-0.56-0.27-0.04-0.85-0.32-1.18
			c-0.28-0.32-1.03-0.02-1.29-0.41c-0.32-0.5,0.4-0.73,0.05-1.09"/>
	</g>
	<g>
		<g>
			
				<ellipse keyword="mitochondria" transform="matrix(-0.9772 -0.2124 0.2124 -0.9772 341.9221 105.606)" style="fill:#00DFD3;stroke:#000000;stroke-width:0.25;" cx="176.63" cy="34.44" rx="8.27" ry="4.07"/>
			
				<ellipse transform="matrix(0.9772 0.2124 -0.2124 0.9772 11.3451 -36.7329)" style="fill:#5F7EFF;stroke:#000000;stroke-width:0.25;" cx="176.63" cy="34.44" rx="7.42" ry="3.59"/>
			<path style="fill:#3F9BFF;stroke:#000000;stroke-width:0.25;" d="M170.24,32.64c0.02-1.6,1.29-0.52,1.64,0.18
				c0.15-0.22,0.14-0.97,0.34-1.16c0.65-0.62,0.61,0.26,0.86,0.48c1.17,1.07,0.53-0.76,1.51-0.61c0.62,0.1,0.18,0.68,0.64,0.89
				c0.79,0.35,0.51-0.48,0.9-0.72c1.12-0.69,0.14,1.32,0.87,1.7c0.22-0.41,1.14-1.44,1.56-1.36c0.2,0.39-0.31,1.4,0.13,1.61
				c0.45,0.22,0.82-1.13,1.43-0.54c0.5,0.48-0.02,1.07,0.51,1.52c0.51,0.43,0.91-0.85,1.34-1.02c0.42,0.52,0.15,0.8,0,1.31
				c0.49,0.08,0.55,0.13,1,0.04c0.27,0.82-0.42,0.65-0.7,1.05c-0.34,0.47-0.06,1.04-0.47,1.41c-0.32-0.43-0.17-0.82-0.73-0.92
				c-0.18,0.36-0.29,0.87-0.82,0.76c-0.41-0.08-0.51-0.75-0.89-1.04c-0.33,0.42-0.27,1.48-1.07,1.13c0.11-0.43-0.13-1.23-0.51-0.63
				c-0.38,0.06-0.68,0.29-0.84,0.64c-0.74-0.05-0.29-1.07-0.92-1.22c-0.38-0.09-0.97,0.75-1.23,0.96c-0.27-0.32-0.16-1.03-0.47-1.23
				c-0.49-0.32-0.8,0.36-1.35,0.25c0.02-0.34,0.02-0.66,0-1c-0.36-0.05-0.91,0.35-1.24,0.19c-0.56-0.27-0.04-0.85-0.32-1.18
				c-0.28-0.32-1.03-0.02-1.29-0.41c-0.32-0.5,0.4-0.73,0.05-1.09"/>
		</g>
	</g>
	<g>
		<g>
			
				<ellipse keyword="mitochondria" transform="matrix(-0.3918 -0.92 0.92 -0.3918 225.1227 274.9211)" style="fill:#00DFD3;stroke:#000000;stroke-width:0.25;" cx="203.43" cy="63.06" rx="8.27" ry="4.07"/>
			
				<ellipse transform="matrix(0.3919 0.92 -0.92 0.3919 181.72 -148.8089)" style="fill:#5F7EFF;stroke:#000000;stroke-width:0.25;" cx="203.43" cy="63.06" rx="7.42" ry="3.59"/>
			<path style="fill:#3F9BFF;stroke:#000000;stroke-width:0.25;" d="M201.19,56.8c1.32-0.91,1.17,0.75,0.8,1.44
				c0.27,0,0.87-0.44,1.14-0.39c0.88,0.17,0.15,0.65,0.11,0.97c-0.19,1.57,0.93-0.01,1.37,0.88c0.28,0.56-0.45,0.54-0.35,1.04
				c0.17,0.85,0.69,0.14,1.11,0.32c1.21,0.52-1,0.88-0.88,1.7c0.46-0.05,1.83,0.1,2.02,0.48c-0.2,0.38-1.32,0.55-1.24,1.04
				c0.08,0.49,1.4,0.02,1.27,0.85c-0.1,0.68-0.89,0.61-0.94,1.29c-0.05,0.66,1.22,0.25,1.6,0.51c-0.18,0.64-0.57,0.58-1.07,0.75
				c0.22,0.45,0.21,0.52,0.54,0.84c-0.51,0.69-0.77,0.04-1.26,0.04c-0.58,0-0.88,0.55-1.42,0.44c0.16-0.51,0.57-0.61,0.33-1.13
				c-0.4,0.06-0.88,0.26-1.1-0.23c-0.17-0.38,0.32-0.85,0.33-1.33c-0.53-0.02-1.36,0.64-1.54-0.22c0.41-0.16,0.93-0.82,0.22-0.78
				c-0.27-0.27-0.63-0.39-1.01-0.32c-0.39-0.63,0.71-0.86,0.46-1.45c-0.15-0.36-1.17-0.36-1.5-0.45c0.1-0.41,0.75-0.73,0.73-1.1
				c-0.02-0.58-0.75-0.45-0.99-0.96c0.29-0.18,0.55-0.37,0.82-0.58c-0.17-0.32-0.81-0.54-0.87-0.9c-0.1-0.62,0.67-0.52,0.77-0.94
				c0.1-0.41-0.58-0.85-0.41-1.29c0.22-0.55,0.83-0.1,0.92-0.59"/>
		</g>
	</g>
	<g>
		<g>
			<g>
				<line style="fill:none;stroke:#000000;" x1="172" y1="26" x2="176.5" y2="32.75"/>
				<circle cx="176.5" cy="32.75" r="1.32"/>
			</g>
		</g>
		<path style="fill:#FFFFFF;stroke:#000000;" d="M189.25,19c0,4-3.25,7.25-7.25,7.25h-21c-4,0-7.25-3.25-7.25-7.25l0,0
			c0-4,3.25-7.25,7.25-7.25h21C186,11.75,189.25,15,189.25,19L189.25,19z"/>
		<text transform="matrix(1 0 0 1 157.6875 20.5)" style="font-family:'Helvetica'; font-size:4pt;">Mitochondria</text>
	</g>
</g>
<g keyword="vacuole">
	<path keyword="vacuole" style="fill:#EFFFDF;stroke:#000000;stroke-width:0.5;" d="M136.75,34.38c10.32,1.08,34.18,5.29,43.62,9.25
		c11.2,4.69,16.12,15.95,16.12,27.38c0,9.69-0.21,22.61-11.33,24.67c-12.86,2.37-12.43-1.53-20-8.67c-6.62-6.24-20-7.1-28.67-8
		c-10.5-1.08-19.16,1.45-29.75,0.62c-10,1.33-8.07,5.28-12.5,4.38c-2.75-0.5-6.13-2.31-5.75-5.67c0.75-6.58-6.57-26.31-2.25-30.83
		C96.75,36.5,124.83,33.12,136.75,34.38z"/>
	<g>
		<path style="fill:#FFFFFF;stroke:#000000;" d="M158,59c0,4-3.25,7.25-7.25,7.25h-21c-4,0-7.25-3.25-7.25-7.25l0,0
			c0-4,3.25-7.25,7.25-7.25h21C154.75,51.75,158,55,158,59L158,59z"/>
		<text transform="matrix(1 0 0 1 130.7158 60.75)" style="font-family:'Helvetica'; font-size:4pt;">Vacuole</text>
	</g>
</g>
<g keyword="plastid">
	<g>
		<ellipse keyword="plastid" style="fill:#007F06;stroke:#007F06;stroke-width:0.25;" cx="98.62" cy="26.84" rx="9.05" ry="4.46"/>
		<ellipse style="fill:#74FF3F;stroke:#379F00;stroke-width:0.25;" cx="98.62" cy="26.84" rx="8.06" ry="3.98"/>
		<path style="fill:none;stroke:#379F00;stroke-width:0.25;" d="M93.33,24.13c-0.12,0-0.22,0.01-0.33,0.02"/>
		<path style="fill:none;stroke:#379F00;stroke-width:0.25;" d="M93.3,24.44c-0.21-0.09-0.45-0.04-0.66-0.1"/>
		<path style="fill:none;stroke:#379F00;stroke-width:0.25;" d="M93.28,24.71c-0.35-0.07-0.7-0.09-1.06-0.04"/>
		<path style="fill:none;stroke:#379F00;stroke-width:0.25;" d="M93.28,25.02c-0.43-0.01-1.07,0.09-1.49-0.04"/>
		<path style="fill:none;stroke:#379F00;stroke-width:0.25;" d="M93.24,25.33c-0.52,0-1.25,0.06-1.76,0"/>
		<path style="fill:none;stroke:#379F00;stroke-width:0.25;" d="M93.22,25.68c-0.63,0-1.44,0.04-2.07,0.04"/>
		<path style="fill:none;stroke:#379F00;stroke-width:0.25;" d="M93.22,26.07c-0.38,0.03-1.81-0.16-2.26,0.02"/>
		<path style="fill:none;stroke:#379F00;stroke-width:0.25;" d="M93.24,26.38c-0.03-0.15-2.25,0.01-2.34,0.02"/>
		<path style="fill:none;stroke:#379F00;stroke-width:0.25;" d="M93.2,26.69c-0.76-0.11-1.52-0.12-2.28-0.02"/>
		<path style="fill:none;stroke:#379F00;stroke-width:0.25;" d="M93.18,27.05c-0.62-0.1-1.53-0.17-2.26-0.04"/>
		<path style="fill:none;stroke:#379F00;stroke-width:0.25;" d="M93.2,27.32c-0.76-0.07-1.52-0.08-2.28-0.04"/>
		<path style="fill:none;stroke:#379F00;stroke-width:0.25;" d="M93.18,27.56c-0.73,0-1.46-0.02-2.19-0.02"/>
		<path style="fill:none;stroke:#379F00;stroke-width:0.25;" d="M93.16,27.83c-0.71,0.02-1.41-0.01-2.11-0.08"/>
		<path style="fill:none;stroke:#379F00;stroke-width:0.25;" d="M93.12,28.08c-0.42,0-1.47-0.02-1.88-0.02"/>
		<path style="fill:none;stroke:#379F00;stroke-width:0.25;" d="M93.06,28.37c-0.36,0-1.21,0-1.57,0"/>
		<path style="fill:none;stroke:#379F00;stroke-width:0.25;" d="M93.04,28.68c-0.25-0.04-1-0.07-1.26-0.06"/>
		<path style="fill:none;stroke:#379F00;stroke-width:0.25;" d="M93.04,28.97c-0.13,0-0.77,0.02-0.89-0.04"/>
		<path style="fill:none;stroke:#379F00;stroke-width:0.25;" d="M103.84,24.23c0.12,0,0.22,0.01,0.33,0.02"/>
		<path style="fill:none;stroke:#379F00;stroke-width:0.25;" d="M103.86,24.54c0.21-0.09,0.45-0.04,0.66-0.1"/>
		<path style="fill:none;stroke:#379F00;stroke-width:0.25;" d="M103.88,24.81c0.35-0.07,0.7-0.09,1.06-0.04"/>
		<path style="fill:none;stroke:#379F00;stroke-width:0.25;" d="M103.88,25.12c0.43-0.01,1.07,0.09,1.49-0.04"/>
		<path style="fill:none;stroke:#379F00;stroke-width:0.25;" d="M103.92,25.43c0.52,0,1.25,0.06,1.76,0"/>
		<path style="fill:none;stroke:#379F00;stroke-width:0.25;" d="M103.94,25.78c0.63,0,1.44,0.04,2.07,0.04"/>
		<path style="fill:none;stroke:#379F00;stroke-width:0.25;" d="M103.94,26.18c0.38,0.03,1.81-0.16,2.26,0.02"/>
		<path style="fill:none;stroke:#379F00;stroke-width:0.25;" d="M103.92,26.49c0.03-0.15,2.25,0.01,2.34,0.02"/>
		<path style="fill:none;stroke:#379F00;stroke-width:0.25;" d="M103.97,26.8c0.76-0.11,1.52-0.12,2.28-0.02"/>
		<path style="fill:none;stroke:#379F00;stroke-width:0.25;" d="M103.99,27.15c0.62-0.1,1.53-0.17,2.26-0.04"/>
		<path style="fill:none;stroke:#379F00;stroke-width:0.25;" d="M103.97,27.42c0.76-0.07,1.52-0.08,2.28-0.04"/>
		<path style="fill:none;stroke:#379F00;stroke-width:0.25;" d="M103.99,27.67c0.73,0,1.46-0.02,2.19-0.02"/>
		<path style="fill:none;stroke:#379F00;stroke-width:0.25;" d="M104.01,27.94c0.71,0.02,1.41-0.01,2.11-0.08"/>
		<path style="fill:none;stroke:#379F00;stroke-width:0.25;" d="M104.05,28.19c0.42,0,1.47-0.02,1.88-0.02"/>
		<path style="fill:none;stroke:#379F00;stroke-width:0.25;" d="M104.11,28.48c0.36,0,1.21,0,1.57,0"/>
		<path style="fill:none;stroke:#379F00;stroke-width:0.25;" d="M104.13,28.79c0.25-0.04,1-0.07,1.26-0.06"/>
		<path style="fill:none;stroke:#379F00;stroke-width:0.25;" d="M104.13,29.08c0.13,0,0.77,0.02,0.89-0.04"/>
		<path style="fill:none;stroke:#379F00;stroke-width:0.25;" d="M94.15,23.78c-0.01-0.13,2.37-0.01,2.36-0.04"/>
		<path style="fill:none;stroke:#379F00;stroke-width:0.25;" d="M96.51,24.02c-0.35-0.02-2.05,0.02-2.36,0.02"/>
		<path style="fill:none;stroke:#379F00;stroke-width:0.25;" d="M94.13,24.31c-0.01-0.13,2.37-0.01,2.36-0.04"/>
		<path style="fill:none;stroke:#379F00;stroke-width:0.25;" d="M96.49,24.56c-0.35-0.02-2.05,0.02-2.36,0.02"/>
		<path style="fill:none;stroke:#379F00;stroke-width:0.25;" d="M94.09,24.85c-0.01-0.13,2.37-0.01,2.36-0.04"/>
		<path style="fill:none;stroke:#379F00;stroke-width:0.25;" d="M96.45,25.1c-0.35-0.02-2.05,0.02-2.36,0.02"/>
		<path style="fill:none;stroke:#379F00;stroke-width:0.25;" d="M94.07,25.43c-0.01-0.13,2.37-0.01,2.36-0.04"/>
		<path style="fill:none;stroke:#379F00;stroke-width:0.25;" d="M96.43,25.68c-0.35-0.02-2.05,0.02-2.36,0.02"/>
		<path style="fill:none;stroke:#379F00;stroke-width:0.25;" d="M94.07,25.99c-0.01-0.13,2.37-0.01,2.36-0.04"/>
		<path style="fill:none;stroke:#379F00;stroke-width:0.25;" d="M96.43,26.24c-0.35-0.02-2.05,0.02-2.36,0.02"/>
		<path style="fill:none;stroke:#379F00;stroke-width:0.25;" d="M94.05,26.53c-0.01-0.13,2.37-0.01,2.36-0.04"/>
		<path style="fill:none;stroke:#379F00;stroke-width:0.25;" d="M96.41,26.78c-0.35-0.02-2.05,0.02-2.36,0.02"/>
		<path style="fill:none;stroke:#379F00;stroke-width:0.25;" d="M94.01,27.07c-0.01-0.13,2.37-0.01,2.36-0.04"/>
		<path style="fill:none;stroke:#379F00;stroke-width:0.25;" d="M96.37,27.32c-0.35-0.02-2.05,0.02-2.36,0.02"/>
		<path style="fill:none;stroke:#379F00;stroke-width:0.25;" d="M93.99,27.65c-0.01-0.13,2.37-0.01,2.36-0.04"/>
		<path style="fill:none;stroke:#379F00;stroke-width:0.25;" d="M96.35,27.9c-0.35-0.02-2.05,0.02-2.36,0.02"/>
		<path style="fill:none;stroke:#379F00;stroke-width:0.25;" d="M93.95,28.16c-0.01-0.13,2.37-0.01,2.36-0.04"/>
		<path style="fill:none;stroke:#379F00;stroke-width:0.25;" d="M96.31,28.41c-0.35-0.02-2.05,0.02-2.36,0.02"/>
		<path style="fill:none;stroke:#379F00;stroke-width:0.25;" d="M93.93,28.74c-0.01-0.13,2.37-0.01,2.36-0.04"/>
		<path style="fill:none;stroke:#379F00;stroke-width:0.25;" d="M96.29,28.99c-0.35-0.02-2.05,0.02-2.36,0.02"/>
		<path style="fill:none;stroke:#379F00;stroke-width:0.25;" d="M93.88,29.3c-0.01-0.13,2.37-0.01,2.36-0.04"/>
		<path style="fill:none;stroke:#379F00;stroke-width:0.25;" d="M93.86,29.88c-0.01-0.13,2.37-0.01,2.36-0.04"/>
		<path style="fill:none;stroke:#379F00;stroke-width:0.25;" d="M96.24,29.55c-0.35-0.02-2.05,0.02-2.36,0.02"/>
		<path style="fill:none;stroke:#379F00;stroke-width:0.25;" d="M97.3,23.9c-0.01-0.13,2.37-0.01,2.36-0.04"/>
		<path style="fill:none;stroke:#379F00;stroke-width:0.25;" d="M99.68,24.09c-0.35-0.02-2.05,0.02-2.36,0.02"/>
		<path style="fill:none;stroke:#379F00;stroke-width:0.25;" d="M97.3,24.38c-0.01-0.13,2.37-0.01,2.36-0.04"/>
		<path style="fill:none;stroke:#379F00;stroke-width:0.25;" d="M97.32,23.11c-0.01-0.13,2.37-0.01,2.36-0.04"/>
		<path style="fill:none;stroke:#379F00;stroke-width:0.25;" d="M99.68,23.36c-0.35-0.02-2.05,0.02-2.36,0.02"/>
		<path style="fill:none;stroke:#379F00;stroke-width:0.25;" d="M97.3,23.65c-0.01-0.13,2.37-0.01,2.36-0.04"/>
		<path style="fill:none;stroke:#379F00;stroke-width:0.25;" d="M99.66,24.62c-0.35-0.02-2.05,0.02-2.36,0.02"/>
		<path style="fill:none;stroke:#379F00;stroke-width:0.25;" d="M97.26,24.91c-0.01-0.13,2.37-0.01,2.36-0.04"/>
		<path style="fill:none;stroke:#379F00;stroke-width:0.25;" d="M99.62,25.16c-0.35-0.02-2.05,0.02-2.36,0.02"/>
		<path style="fill:none;stroke:#379F00;stroke-width:0.25;" d="M97.24,25.49c-0.01-0.13,2.37-0.01,2.36-0.04"/>
		<path style="fill:none;stroke:#379F00;stroke-width:0.25;" d="M99.6,25.74c-0.35-0.02-2.05,0.02-2.36,0.02"/>
		<path style="fill:none;stroke:#379F00;stroke-width:0.25;" d="M97.24,26.05c-0.01-0.13,2.37-0.01,2.36-0.04"/>
		<path style="fill:none;stroke:#379F00;stroke-width:0.25;" d="M99.6,26.3c-0.35-0.02-2.05,0.02-2.36,0.02"/>
		<path style="fill:none;stroke:#379F00;stroke-width:0.25;" d="M97.22,26.59c-0.01-0.13,2.37-0.01,2.36-0.04"/>
		<path style="fill:none;stroke:#379F00;stroke-width:0.25;" d="M99.58,26.84c-0.35-0.02-2.05,0.02-2.36,0.02"/>
		<path style="fill:none;stroke:#379F00;stroke-width:0.25;" d="M97.18,27.13c-0.01-0.13,2.37-0.01,2.36-0.04"/>
		<path style="fill:none;stroke:#379F00;stroke-width:0.25;" d="M99.54,27.38c-0.35-0.02-2.05,0.02-2.36,0.02"/>
		<path style="fill:none;stroke:#379F00;stroke-width:0.25;" d="M97.15,27.71c-0.01-0.13,2.37-0.01,2.36-0.04"/>
		<path style="fill:none;stroke:#379F00;stroke-width:0.25;" d="M99.52,27.96c-0.35-0.02-2.05,0.02-2.36,0.02"/>
		<path style="fill:none;stroke:#379F00;stroke-width:0.25;" d="M97.11,28.23c-0.01-0.13,2.37-0.01,2.36-0.04"/>
		<path style="fill:none;stroke:#379F00;stroke-width:0.25;" d="M99.47,28.48c-0.35-0.02-2.05,0.02-2.36,0.02"/>
		<path style="fill:none;stroke:#379F00;stroke-width:0.25;" d="M97.09,28.81c-0.01-0.13,2.37-0.01,2.36-0.04"/>
		<path style="fill:none;stroke:#379F00;stroke-width:0.25;" d="M99.45,29.05c-0.35-0.02-2.05,0.02-2.36,0.02"/>
		<path style="fill:none;stroke:#379F00;stroke-width:0.25;" d="M97.05,29.37c-0.01-0.13,2.37-0.01,2.36-0.04"/>
		<path style="fill:none;stroke:#379F00;stroke-width:0.25;" d="M99.41,29.61c-0.35-0.02-2.05,0.02-2.36,0.02"/>
		<path style="fill:none;stroke:#379F00;stroke-width:0.25;" d="M99.41,29.84c-0.35-0.02-2.05,0.02-2.36,0.02"/>
		<path style="fill:none;stroke:#379F00;stroke-width:0.25;" d="M97.01,30.15c-0.01-0.13,2.37-0.01,2.36-0.04"/>
		<path style="fill:none;stroke:#379F00;stroke-width:0.25;" d="M99.37,30.4c-0.35-0.02-2.05,0.02-2.36,0.02"/>
		<path style="fill:none;stroke:#379F00;stroke-width:0.25;" d="M100.69,23.78c-0.01-0.13,2.37-0.01,2.36-0.04"/>
		<path style="fill:none;stroke:#379F00;stroke-width:0.25;" d="M103.05,24.02c-0.35-0.02-2.05,0.02-2.36,0.02"/>
		<path style="fill:none;stroke:#379F00;stroke-width:0.25;" d="M100.67,24.31c-0.01-0.13,2.37-0.01,2.36-0.04"/>
		<path style="fill:none;stroke:#379F00;stroke-width:0.25;" d="M103.03,24.56c-0.35-0.02-2.05,0.02-2.36,0.02"/>
		<path style="fill:none;stroke:#379F00;stroke-width:0.25;" d="M100.63,24.85c-0.01-0.13,2.37-0.01,2.36-0.04"/>
		<path style="fill:none;stroke:#379F00;stroke-width:0.25;" d="M102.99,25.1c-0.35-0.02-2.05,0.02-2.36,0.02"/>
		<path style="fill:none;stroke:#379F00;stroke-width:0.25;" d="M100.61,25.43c-0.01-0.13,2.37-0.01,2.36-0.04"/>
		<path style="fill:none;stroke:#379F00;stroke-width:0.25;" d="M102.97,25.68c-0.35-0.02-2.05,0.02-2.36,0.02"/>
		<path style="fill:none;stroke:#379F00;stroke-width:0.25;" d="M100.61,25.99c-0.01-0.13,2.37-0.01,2.36-0.04"/>
		<path style="fill:none;stroke:#379F00;stroke-width:0.25;" d="M102.97,26.24c-0.35-0.02-2.05,0.02-2.36,0.02"/>
		<path style="fill:none;stroke:#379F00;stroke-width:0.25;" d="M100.59,26.53c-0.01-0.13,2.37-0.01,2.36-0.04"/>
		<path style="fill:none;stroke:#379F00;stroke-width:0.25;" d="M102.95,26.78c-0.35-0.02-2.05,0.02-2.36,0.02"/>
		<path style="fill:none;stroke:#379F00;stroke-width:0.25;" d="M100.55,27.07c-0.01-0.13,2.37-0.01,2.36-0.04"/>
		<path style="fill:none;stroke:#379F00;stroke-width:0.25;" d="M102.89,27.29c-0.35-0.02-2.05,0.02-2.36,0.02"/>
		<path style="fill:none;stroke:#379F00;stroke-width:0.25;" d="M100.53,27.67c-0.01-0.13,2.37-0.01,2.36-0.04"/>
		<path style="fill:none;stroke:#379F00;stroke-width:0.25;" d="M102.85,27.9c-0.35-0.02-2.05,0.02-2.36,0.02"/>
		<path style="fill:none;stroke:#379F00;stroke-width:0.25;" d="M100.47,28.23c-0.01-0.13,2.37-0.01,2.36-0.04"/>
		<path style="fill:none;stroke:#379F00;stroke-width:0.25;" d="M102.83,28.48c-0.35-0.02-2.05,0.02-2.36,0.02"/>
		<path style="fill:none;stroke:#379F00;stroke-width:0.25;" d="M100.47,28.85c-0.01-0.13,2.37-0.01,2.36-0.04"/>
		<path style="fill:none;stroke:#379F00;stroke-width:0.25;" d="M102.85,29.12c-0.35-0.02-2.05,0.02-2.36,0.02"/>
		<path style="fill:none;stroke:#379F00;stroke-width:0.25;" d="M100.41,29.49c-0.01-0.13,2.37-0.01,2.36-0.04"/>
		<path style="fill:none;stroke:#379F00;stroke-width:0.25;" d="M102.79,29.74c-0.35-0.02-2.05,0.02-2.36,0.02"/>
		<path style="fill:none;stroke:#379F00;stroke-width:0.25;" d="M102.81,30.03c-0.35-0.02-2.05,0.02-2.36,0.02"/>
	</g>
	<g>
		
			<ellipse keyword="plastid" transform="matrix(0.6629 0.7487 -0.7487 0.6629 85.9953 -27.5781)" style="fill:#007F06;stroke:#007F06;stroke-width:0.25;" cx="73.62" cy="81.71" rx="9.05" ry="4.46"/>
		
			<ellipse transform="matrix(0.6629 0.7487 -0.7487 0.6629 85.9932 -27.5784)" style="fill:#74FF3F;stroke:#379F00;stroke-width:0.25;" cx="73.62" cy="81.71" rx="8.06" ry="3.98"/>
		<path style="fill:none;stroke:#379F00;stroke-width:0.25;" d="M72.14,75.95c-0.08-0.09-0.15-0.16-0.24-0.23"/>
		<path style="fill:none;stroke:#379F00;stroke-width:0.25;" d="M71.9,76.14c-0.07-0.22-0.27-0.36-0.36-0.56"/>
		<path style="fill:none;stroke:#379F00;stroke-width:0.25;" d="M71.68,76.3c-0.18-0.31-0.4-0.58-0.67-0.82"/>
		<path style="fill:none;stroke:#379F00;stroke-width:0.25;" d="M71.45,76.51c-0.28-0.33-0.78-0.74-0.96-1.14"/>
		<path style="fill:none;stroke:#379F00;stroke-width:0.25;" d="M71.19,76.68c-0.34-0.39-0.87-0.9-1.17-1.32"/>
		<path style="fill:none;stroke:#379F00;stroke-width:0.25;" d="M70.91,76.9c-0.42-0.47-0.98-1.05-1.4-1.52"/>
		<path style="fill:none;stroke:#379F00;stroke-width:0.25;" d="M70.62,77.16c-0.27-0.26-1.08-1.46-1.51-1.68"/>
		<path style="fill:none;stroke:#379F00;stroke-width:0.25;" d="M70.4,77.38c0.09-0.12-1.5-1.68-1.57-1.74"/>
		<path style="fill:none;stroke:#379F00;stroke-width:0.25;" d="M70.14,77.56c-0.42-0.64-0.92-1.22-1.49-1.72"/>
		<path style="fill:none;stroke:#379F00;stroke-width:0.25;" d="M69.86,77.78c-0.34-0.53-0.89-1.26-1.47-1.72"/>
		<path style="fill:none;stroke:#379F00;stroke-width:0.25;" d="M69.67,77.97c-0.45-0.61-0.95-1.19-1.48-1.73"/>
		<path style="fill:none;stroke:#379F00;stroke-width:0.25;" d="M69.47,78.12c-0.49-0.55-0.95-1.11-1.44-1.66"/>
		<path style="fill:none;stroke:#379F00;stroke-width:0.25;" d="M69.26,78.28c-0.48-0.52-0.93-1.06-1.34-1.64"/>
		<path style="fill:none;stroke:#379F00;stroke-width:0.25;" d="M69.04,78.42c-0.28-0.32-0.96-1.11-1.23-1.42"/>
		<path style="fill:none;stroke:#379F00;stroke-width:0.25;" d="M68.79,78.56c-0.24-0.27-0.81-0.91-1.04-1.18"/>
		<path style="fill:none;stroke:#379F00;stroke-width:0.25;" d="M68.54,78.75c-0.13-0.21-0.61-0.79-0.79-0.99"/>
		<path style="fill:none;stroke:#379F00;stroke-width:0.25;" d="M68.32,78.94c-0.08-0.1-0.52-0.57-0.56-0.69"/>
		<path style="fill:none;stroke:#379F00;stroke-width:0.25;" d="M79.04,83.89c0.08,0.09,0.14,0.17,0.2,0.26"/>
		<path style="fill:none;stroke:#379F00;stroke-width:0.25;" d="M78.82,84.11c0.21,0.1,0.33,0.31,0.52,0.43"/>
		<path style="fill:none;stroke:#379F00;stroke-width:0.25;" d="M78.63,84.31c0.29,0.21,0.53,0.47,0.73,0.76"/>
		<path style="fill:none;stroke:#379F00;stroke-width:0.25;" d="M78.4,84.51c0.29,0.32,0.64,0.86,1.02,1.09"/>
		<path style="fill:none;stroke:#379F00;stroke-width:0.25;" d="M78.19,84.75c0.34,0.39,0.78,0.98,1.17,1.32"/>
		<path style="fill:none;stroke:#379F00;stroke-width:0.25;" d="M77.94,85c0.42,0.47,0.92,1.1,1.34,1.58"/>
		<path style="fill:none;stroke:#379F00;stroke-width:0.25;" d="M77.65,85.26c0.23,0.3,1.32,1.25,1.48,1.7"/>
		<path style="fill:none;stroke:#379F00;stroke-width:0.25;" d="M77.4,85.45c0.13-0.08,1.49,1.69,1.54,1.76"/>
		<path style="fill:none;stroke:#379F00;stroke-width:0.25;" d="M77.2,85.69c0.59,0.5,1.1,1.06,1.53,1.69"/>
		<path style="fill:none;stroke:#379F00;stroke-width:0.25;" d="M76.95,85.93c0.48,0.4,1.14,1.04,1.53,1.66"/>
		<path style="fill:none;stroke:#379F00;stroke-width:0.25;" d="M76.73,86.1c0.55,0.52,1.07,1.08,1.54,1.68"/>
		<path style="fill:none;stroke:#379F00;stroke-width:0.25;" d="M76.56,86.28c0.49,0.55,0.98,1.08,1.47,1.63"/>
		<path style="fill:none;stroke:#379F00;stroke-width:0.25;" d="M76.37,86.47c0.46,0.54,0.94,1.05,1.46,1.53"/>
		<path style="fill:none;stroke:#379F00;stroke-width:0.25;" d="M76.21,86.67c0.28,0.32,0.99,1.09,1.26,1.4"/>
		<path style="fill:none;stroke:#379F00;stroke-width:0.25;" d="M76.04,86.91c0.24,0.27,0.81,0.91,1.04,1.18"/>
		<path style="fill:none;stroke:#379F00;stroke-width:0.25;" d="M75.82,87.13c0.2,0.16,0.72,0.7,0.88,0.9"/>
		<path style="fill:none;stroke:#379F00;stroke-width:0.25;" d="M75.6,87.32c0.08,0.09,0.5,0.59,0.62,0.64"/>
		<path style="fill:none;stroke:#379F00;stroke-width:0.25;" d="M72.95,76.34c0.09-0.1,1.58,1.76,1.6,1.74"/>
		<path style="fill:none;stroke:#379F00;stroke-width:0.25;" d="M74.33,78.27c-0.22-0.28-1.38-1.52-1.58-1.75"/>
		<path style="fill:none;stroke:#379F00;stroke-width:0.25;" d="M72.54,76.68c0.09-0.1,1.58,1.76,1.6,1.74"/>
		<path style="fill:none;stroke:#379F00;stroke-width:0.25;" d="M73.92,78.61c-0.22-0.28-1.37-1.52-1.58-1.75"/>
		<path style="fill:none;stroke:#379F00;stroke-width:0.25;" d="M72.11,77c0.09-0.1,1.58,1.76,1.6,1.74"/>
		<path style="fill:none;stroke:#379F00;stroke-width:0.25;" d="M73.49,78.93c-0.22-0.28-1.37-1.52-1.58-1.75"/>
		<path style="fill:none;stroke:#379F00;stroke-width:0.25;" d="M71.66,77.37c0.09-0.1,1.58,1.76,1.6,1.74"/>
		<path style="fill:none;stroke:#379F00;stroke-width:0.25;" d="M73.04,79.3c-0.22-0.28-1.37-1.52-1.58-1.75"/>
		<path style="fill:none;stroke:#379F00;stroke-width:0.25;" d="M71.24,77.74c0.09-0.1,1.58,1.76,1.59,1.74"/>
		<path style="fill:none;stroke:#379F00;stroke-width:0.25;" d="M72.62,79.67c-0.22-0.28-1.37-1.52-1.58-1.75"/>
		<path style="fill:none;stroke:#379F00;stroke-width:0.25;" d="M70.82,78.08c0.09-0.1,1.57,1.76,1.6,1.74"/>
		<path style="fill:none;stroke:#379F00;stroke-width:0.25;" d="M72.2,80.02c-0.22-0.28-1.37-1.52-1.58-1.75"/>
		<path style="fill:none;stroke:#379F00;stroke-width:0.25;" d="M70.39,78.41c0.09-0.1,1.58,1.76,1.6,1.74"/>
		<path style="fill:none;stroke:#379F00;stroke-width:0.25;" d="M71.77,80.34c-0.22-0.28-1.37-1.52-1.58-1.75"/>
		<path style="fill:none;stroke:#379F00;stroke-width:0.25;" d="M69.95,78.78c0.09-0.1,1.58,1.77,1.6,1.74"/>
		<path style="fill:none;stroke:#379F00;stroke-width:0.25;" d="M71.33,80.71c-0.22-0.28-1.37-1.52-1.58-1.75"/>
		<path style="fill:none;stroke:#379F00;stroke-width:0.25;" d="M69.53,79.09c0.09-0.1,1.58,1.77,1.6,1.74"/>
		<path style="fill:none;stroke:#379F00;stroke-width:0.25;" d="M70.91,81.02c-0.22-0.28-1.37-1.52-1.58-1.75"/>
		<path style="fill:none;stroke:#379F00;stroke-width:0.25;" d="M69.08,79.46c0.09-0.1,1.58,1.77,1.6,1.74"/>
		<path style="fill:none;stroke:#379F00;stroke-width:0.25;" d="M70.46,81.39c-0.22-0.28-1.37-1.52-1.58-1.75"/>
		<path style="fill:none;stroke:#379F00;stroke-width:0.25;" d="M68.64,79.8c0.09-0.1,1.58,1.76,1.6,1.74"/>
		<path style="fill:none;stroke:#379F00;stroke-width:0.25;" d="M68.19,80.17c0.09-0.1,1.58,1.76,1.6,1.74"/>
		<path style="fill:none;stroke:#379F00;stroke-width:0.25;" d="M70.02,81.73c-0.22-0.28-1.37-1.52-1.58-1.75"/>
		<path style="fill:none;stroke:#379F00;stroke-width:0.25;" d="M74.95,78.77c0.09-0.1,1.57,1.76,1.6,1.74"/>
		<path style="fill:none;stroke:#379F00;stroke-width:0.25;" d="M76.39,80.68c-0.22-0.28-1.37-1.52-1.58-1.75"/>
		<path style="fill:none;stroke:#379F00;stroke-width:0.25;" d="M74.59,79.09c0.09-0.1,1.58,1.76,1.6,1.74"/>
		<path style="fill:none;stroke:#379F00;stroke-width:0.25;" d="M75.55,78.27c0.09-0.1,1.57,1.76,1.6,1.74"/>
		<path style="fill:none;stroke:#379F00;stroke-width:0.25;" d="M76.93,80.2c-0.22-0.28-1.37-1.52-1.58-1.75"/>
		<path style="fill:none;stroke:#379F00;stroke-width:0.25;" d="M75.13,78.61c0.09-0.1,1.58,1.76,1.6,1.74"/>
		<path style="fill:none;stroke:#379F00;stroke-width:0.25;" d="M75.97,81.02c-0.22-0.28-1.37-1.52-1.58-1.75"/>
		<path style="fill:none;stroke:#379F00;stroke-width:0.25;" d="M74.16,79.42c0.09-0.1,1.58,1.76,1.6,1.74"/>
		<path style="fill:none;stroke:#379F00;stroke-width:0.25;" d="M75.54,81.35c-0.22-0.28-1.37-1.52-1.58-1.75"/>
		<path style="fill:none;stroke:#379F00;stroke-width:0.25;" d="M73.71,79.78c0.09-0.1,1.58,1.76,1.6,1.74"/>
		<path style="fill:none;stroke:#379F00;stroke-width:0.25;" d="M75.09,81.72c-0.22-0.28-1.37-1.52-1.58-1.75"/>
		<path style="fill:none;stroke:#379F00;stroke-width:0.25;" d="M73.29,80.15c0.09-0.1,1.57,1.76,1.59,1.74"/>
		<path style="fill:none;stroke:#379F00;stroke-width:0.25;" d="M74.67,82.09c-0.22-0.28-1.37-1.52-1.58-1.75"/>
		<path style="fill:none;stroke:#379F00;stroke-width:0.25;" d="M72.88,80.5c0.09-0.1,1.58,1.76,1.6,1.74"/>
		<path style="fill:none;stroke:#379F00;stroke-width:0.25;" d="M74.26,82.43c-0.22-0.28-1.37-1.52-1.58-1.75"/>
		<path style="fill:none;stroke:#379F00;stroke-width:0.25;" d="M72.45,80.82c0.09-0.1,1.58,1.76,1.6,1.74"/>
		<path style="fill:none;stroke:#379F00;stroke-width:0.25;" d="M73.83,82.75c-0.22-0.28-1.37-1.52-1.58-1.75"/>
		<path style="fill:none;stroke:#379F00;stroke-width:0.25;" d="M72,81.19c0.09-0.1,1.58,1.77,1.6,1.74"/>
		<path style="fill:none;stroke:#379F00;stroke-width:0.25;" d="M73.38,83.12c-0.22-0.28-1.37-1.52-1.58-1.75"/>
		<path style="fill:none;stroke:#379F00;stroke-width:0.25;" d="M71.58,81.5c0.09-0.1,1.57,1.77,1.6,1.74"/>
		<path style="fill:none;stroke:#379F00;stroke-width:0.25;" d="M72.96,83.43c-0.22-0.28-1.37-1.52-1.58-1.75"/>
		<path style="fill:none;stroke:#379F00;stroke-width:0.25;" d="M71.14,81.87c0.09-0.1,1.58,1.77,1.6,1.74"/>
		<path style="fill:none;stroke:#379F00;stroke-width:0.25;" d="M72.52,83.8c-0.22-0.28-1.37-1.52-1.58-1.75"/>
		<path style="fill:none;stroke:#379F00;stroke-width:0.25;" d="M70.69,82.21c0.09-0.1,1.58,1.76,1.6,1.74"/>
		<path style="fill:none;stroke:#379F00;stroke-width:0.25;" d="M72.07,84.14c-0.22-0.28-1.37-1.52-1.58-1.75"/>
		<path style="fill:none;stroke:#379F00;stroke-width:0.25;" d="M71.9,84.29c-0.22-0.28-1.37-1.52-1.58-1.75"/>
		<path style="fill:none;stroke:#379F00;stroke-width:0.25;" d="M70.07,82.7c0.09-0.1,1.57,1.76,1.6,1.74"/>
		<path style="fill:none;stroke:#379F00;stroke-width:0.25;" d="M71.45,84.63c-0.22-0.28-1.37-1.52-1.58-1.75"/>
		<path style="fill:none;stroke:#379F00;stroke-width:0.25;" d="M77.29,81.23c0.09-0.1,1.58,1.77,1.6,1.74"/>
		<path style="fill:none;stroke:#379F00;stroke-width:0.25;" d="M78.67,83.16c-0.22-0.28-1.37-1.52-1.58-1.75"/>
		<path style="fill:none;stroke:#379F00;stroke-width:0.25;" d="M76.87,81.57c0.09-0.1,1.58,1.76,1.6,1.74"/>
		<path style="fill:none;stroke:#379F00;stroke-width:0.25;" d="M78.25,83.51c-0.22-0.28-1.37-1.52-1.58-1.75"/>
		<path style="fill:none;stroke:#379F00;stroke-width:0.25;" d="M76.44,81.9c0.09-0.1,1.58,1.76,1.6,1.74"/>
		<path style="fill:none;stroke:#379F00;stroke-width:0.25;" d="M77.82,83.83c-0.22-0.28-1.37-1.52-1.58-1.75"/>
		<path style="fill:none;stroke:#379F00;stroke-width:0.25;" d="M76,82.27c0.09-0.1,1.58,1.76,1.6,1.74"/>
		<path style="fill:none;stroke:#379F00;stroke-width:0.25;" d="M77.38,84.2c-0.22-0.28-1.37-1.52-1.58-1.75"/>
		<path style="fill:none;stroke:#379F00;stroke-width:0.25;" d="M75.58,82.64c0.09-0.1,1.57,1.76,1.59,1.74"/>
		<path style="fill:none;stroke:#379F00;stroke-width:0.25;" d="M76.96,84.57c-0.22-0.28-1.37-1.52-1.58-1.75"/>
		<path style="fill:none;stroke:#379F00;stroke-width:0.25;" d="M75.16,82.98c0.09-0.1,1.58,1.76,1.6,1.74"/>
		<path style="fill:none;stroke:#379F00;stroke-width:0.25;" d="M76.54,84.91c-0.22-0.28-1.38-1.52-1.58-1.75"/>
		<path style="fill:none;stroke:#379F00;stroke-width:0.25;" d="M74.73,83.31c0.09-0.1,1.58,1.76,1.6,1.74"/>
		<path style="fill:none;stroke:#379F00;stroke-width:0.25;" d="M76.11,85.21c-0.22-0.28-1.37-1.52-1.58-1.75"/>
		<path style="fill:none;stroke:#379F00;stroke-width:0.25;" d="M74.27,83.69c0.09-0.1,1.57,1.76,1.6,1.74"/>
		<path style="fill:none;stroke:#379F00;stroke-width:0.25;" d="M75.63,85.58c-0.22-0.28-1.37-1.52-1.58-1.75"/>
		<path style="fill:none;stroke:#379F00;stroke-width:0.25;" d="M73.81,84.01c0.09-0.1,1.57,1.77,1.6,1.74"/>
		<path style="fill:none;stroke:#379F00;stroke-width:0.25;" d="M75.19,85.95c-0.22-0.28-1.37-1.52-1.58-1.75"/>
		<path style="fill:none;stroke:#379F00;stroke-width:0.25;" d="M73.34,84.43c0.09-0.1,1.58,1.76,1.6,1.74"/>
		<path style="fill:none;stroke:#379F00;stroke-width:0.25;" d="M74.72,86.39c-0.22-0.28-1.37-1.52-1.58-1.75"/>
		<path style="fill:none;stroke:#379F00;stroke-width:0.25;" d="M72.82,84.8c0.09-0.1,1.58,1.76,1.6,1.74"/>
		<path style="fill:none;stroke:#379F00;stroke-width:0.25;" d="M74.21,86.75C74,86.47,72.84,85.23,72.63,85"/>
		<path style="fill:none;stroke:#379F00;stroke-width:0.25;" d="M74.01,86.96c-0.22-0.28-1.37-1.52-1.58-1.75"/>
	</g>
	<g>
		<ellipse keyword="plastid" style="fill:#007F06;stroke:#007F06;stroke-width:0.25;" cx="120.87" cy="25.8" rx="9.05" ry="4.46"/>
		<ellipse style="fill:#74FF3F;stroke:#379F00;stroke-width:0.25;" cx="120.87" cy="25.8" rx="8.06" ry="3.98"/>
		<path style="fill:none;stroke:#379F00;stroke-width:0.25;" d="M115.57,23.09c-0.12,0-0.22,0.01-0.33,0.02"/>
		<path style="fill:none;stroke:#379F00;stroke-width:0.25;" d="M115.55,23.4c-0.21-0.09-0.45-0.04-0.66-0.1"/>
		<path style="fill:none;stroke:#379F00;stroke-width:0.25;" d="M115.53,23.67c-0.35-0.07-0.7-0.09-1.06-0.04"/>
		<path style="fill:none;stroke:#379F00;stroke-width:0.25;" d="M115.53,23.98c-0.43-0.01-1.07,0.09-1.49-0.04"/>
		<path style="fill:none;stroke:#379F00;stroke-width:0.25;" d="M115.49,24.29c-0.52,0-1.25,0.06-1.76,0"/>
		<path style="fill:none;stroke:#379F00;stroke-width:0.25;" d="M115.47,24.64c-0.63,0-1.44,0.04-2.07,0.04"/>
		<path style="fill:none;stroke:#379F00;stroke-width:0.25;" d="M115.47,25.04c-0.38,0.03-1.81-0.16-2.26,0.02"/>
		<path style="fill:none;stroke:#379F00;stroke-width:0.25;" d="M115.49,25.35c-0.03-0.15-2.25,0.01-2.34,0.02"/>
		<path style="fill:none;stroke:#379F00;stroke-width:0.25;" d="M115.44,25.66c-0.76-0.11-1.52-0.12-2.28-0.02"/>
		<path style="fill:none;stroke:#379F00;stroke-width:0.25;" d="M115.42,26.01c-0.62-0.1-1.53-0.17-2.26-0.04"/>
		<path style="fill:none;stroke:#379F00;stroke-width:0.25;" d="M115.44,26.28c-0.76-0.07-1.52-0.08-2.28-0.04"/>
		<path style="fill:none;stroke:#379F00;stroke-width:0.25;" d="M115.42,26.53c-0.73,0-1.46-0.02-2.19-0.02"/>
		<path style="fill:none;stroke:#379F00;stroke-width:0.25;" d="M115.4,26.8c-0.71,0.02-1.41-0.01-2.11-0.08"/>
		<path style="fill:none;stroke:#379F00;stroke-width:0.25;" d="M115.36,27.05c-0.42,0-1.47-0.02-1.88-0.02"/>
		<path style="fill:none;stroke:#379F00;stroke-width:0.25;" d="M115.3,27.34c-0.36,0-1.21,0-1.57,0"/>
		<path style="fill:none;stroke:#379F00;stroke-width:0.25;" d="M115.28,27.65c-0.25-0.04-1-0.07-1.26-0.06"/>
		<path style="fill:none;stroke:#379F00;stroke-width:0.25;" d="M115.28,27.94c-0.13,0-0.77,0.02-0.89-0.04"/>
		<path style="fill:none;stroke:#379F00;stroke-width:0.25;" d="M126.08,23.2c0.12,0,0.22,0.01,0.33,0.02"/>
		<path style="fill:none;stroke:#379F00;stroke-width:0.25;" d="M126.11,23.51c0.21-0.09,0.45-0.04,0.66-0.1"/>
		<path style="fill:none;stroke:#379F00;stroke-width:0.25;" d="M126.13,23.78c0.35-0.07,0.7-0.09,1.06-0.04"/>
		<path style="fill:none;stroke:#379F00;stroke-width:0.25;" d="M126.13,24.09c0.43-0.01,1.07,0.09,1.49-0.04"/>
		<path style="fill:none;stroke:#379F00;stroke-width:0.25;" d="M126.17,24.4c0.52,0,1.25,0.06,1.76,0"/>
		<path style="fill:none;stroke:#379F00;stroke-width:0.25;" d="M126.19,24.75c0.63,0,1.44,0.04,2.07,0.04"/>
		<path style="fill:none;stroke:#379F00;stroke-width:0.25;" d="M126.19,25.14c0.38,0.03,1.81-0.16,2.26,0.02"/>
		<path style="fill:none;stroke:#379F00;stroke-width:0.25;" d="M126.17,25.45c0.03-0.15,2.25,0.01,2.34,0.02"/>
		<path style="fill:none;stroke:#379F00;stroke-width:0.25;" d="M126.21,25.76c0.76-0.11,1.52-0.12,2.28-0.02"/>
		<path style="fill:none;stroke:#379F00;stroke-width:0.25;" d="M126.23,26.11c0.62-0.1,1.53-0.17,2.26-0.04"/>
		<path style="fill:none;stroke:#379F00;stroke-width:0.25;" d="M126.21,26.38c0.76-0.07,1.52-0.08,2.28-0.04"/>
		<path style="fill:none;stroke:#379F00;stroke-width:0.25;" d="M126.23,26.63c0.73,0,1.46-0.02,2.19-0.02"/>
		<path style="fill:none;stroke:#379F00;stroke-width:0.25;" d="M126.25,26.9c0.71,0.02,1.41-0.01,2.11-0.08"/>
		<path style="fill:none;stroke:#379F00;stroke-width:0.25;" d="M126.29,27.15c0.42,0,1.47-0.02,1.88-0.02"/>
		<path style="fill:none;stroke:#379F00;stroke-width:0.25;" d="M126.35,27.44c0.36,0,1.21,0,1.57,0"/>
		<path style="fill:none;stroke:#379F00;stroke-width:0.25;" d="M126.38,27.75c0.25-0.04,1-0.07,1.26-0.06"/>
		<path style="fill:none;stroke:#379F00;stroke-width:0.25;" d="M126.38,28.04c0.13,0,0.77,0.02,0.89-0.04"/>
		<path style="fill:none;stroke:#379F00;stroke-width:0.25;" d="M116.4,22.74c-0.01-0.13,2.37-0.01,2.36-0.04"/>
		<path style="fill:none;stroke:#379F00;stroke-width:0.25;" d="M118.76,22.99c-0.35-0.02-2.05,0.02-2.36,0.02"/>
		<path style="fill:none;stroke:#379F00;stroke-width:0.25;" d="M116.38,23.28c-0.01-0.13,2.37-0.01,2.36-0.04"/>
		<path style="fill:none;stroke:#379F00;stroke-width:0.25;" d="M118.74,23.53c-0.35-0.02-2.05,0.02-2.36,0.02"/>
		<path style="fill:none;stroke:#379F00;stroke-width:0.25;" d="M116.33,23.82c-0.01-0.13,2.37-0.01,2.36-0.04"/>
		<path style="fill:none;stroke:#379F00;stroke-width:0.25;" d="M118.69,24.07c-0.35-0.02-2.05,0.02-2.36,0.02"/>
		<path style="fill:none;stroke:#379F00;stroke-width:0.25;" d="M116.31,24.4c-0.01-0.13,2.37-0.01,2.36-0.04"/>
		<path style="fill:none;stroke:#379F00;stroke-width:0.25;" d="M118.67,24.64c-0.35-0.02-2.05,0.02-2.36,0.02"/>
		<path style="fill:none;stroke:#379F00;stroke-width:0.25;" d="M116.31,24.96c-0.01-0.13,2.37-0.01,2.36-0.04"/>
		<path style="fill:none;stroke:#379F00;stroke-width:0.25;" d="M118.67,25.2c-0.35-0.02-2.05,0.02-2.36,0.02"/>
		<path style="fill:none;stroke:#379F00;stroke-width:0.25;" d="M116.29,25.49c-0.01-0.13,2.37-0.01,2.36-0.04"/>
		<path style="fill:none;stroke:#379F00;stroke-width:0.25;" d="M118.65,25.74c-0.35-0.02-2.05,0.02-2.36,0.02"/>
		<path style="fill:none;stroke:#379F00;stroke-width:0.25;" d="M116.25,26.03c-0.01-0.13,2.37-0.01,2.36-0.04"/>
		<path style="fill:none;stroke:#379F00;stroke-width:0.25;" d="M118.61,26.28c-0.35-0.02-2.05,0.02-2.36,0.02"/>
		<path style="fill:none;stroke:#379F00;stroke-width:0.25;" d="M116.23,26.61c-0.01-0.13,2.37-0.01,2.36-0.04"/>
		<path style="fill:none;stroke:#379F00;stroke-width:0.25;" d="M118.59,26.86c-0.35-0.02-2.05,0.02-2.36,0.02"/>
		<path style="fill:none;stroke:#379F00;stroke-width:0.25;" d="M116.19,27.13c-0.01-0.13,2.37-0.01,2.36-0.04"/>
		<path style="fill:none;stroke:#379F00;stroke-width:0.25;" d="M118.55,27.38c-0.35-0.02-2.05,0.02-2.36,0.02"/>
		<path style="fill:none;stroke:#379F00;stroke-width:0.25;" d="M116.17,27.71c-0.01-0.13,2.37-0.01,2.36-0.04"/>
		<path style="fill:none;stroke:#379F00;stroke-width:0.25;" d="M118.53,27.96c-0.35-0.02-2.05,0.02-2.36,0.02"/>
		<path style="fill:none;stroke:#379F00;stroke-width:0.25;" d="M116.13,28.27c-0.01-0.13,2.37-0.01,2.36-0.04"/>
		<path style="fill:none;stroke:#379F00;stroke-width:0.25;" d="M116.11,28.85c-0.01-0.13,2.37-0.01,2.36-0.04"/>
		<path style="fill:none;stroke:#379F00;stroke-width:0.25;" d="M118.49,28.52c-0.35-0.02-2.05,0.02-2.36,0.02"/>
		<path style="fill:none;stroke:#379F00;stroke-width:0.25;" d="M119.54,22.86c-0.01-0.13,2.37-0.01,2.36-0.04"/>
		<path style="fill:none;stroke:#379F00;stroke-width:0.25;" d="M121.92,23.05c-0.35-0.02-2.05,0.02-2.36,0.02"/>
		<path style="fill:none;stroke:#379F00;stroke-width:0.25;" d="M119.54,23.34c-0.01-0.13,2.37-0.01,2.36-0.04"/>
		<path style="fill:none;stroke:#379F00;stroke-width:0.25;" d="M119.56,22.08c-0.01-0.13,2.37-0.01,2.36-0.04"/>
		<path style="fill:none;stroke:#379F00;stroke-width:0.25;" d="M121.92,22.33c-0.35-0.02-2.05,0.02-2.36,0.02"/>
		<path style="fill:none;stroke:#379F00;stroke-width:0.25;" d="M119.54,22.62c-0.01-0.13,2.37-0.01,2.36-0.04"/>
		<path style="fill:none;stroke:#379F00;stroke-width:0.25;" d="M121.9,23.59c-0.35-0.02-2.05,0.02-2.36,0.02"/>
		<path style="fill:none;stroke:#379F00;stroke-width:0.25;" d="M119.5,23.88c-0.01-0.13,2.37-0.01,2.36-0.04"/>
		<path style="fill:none;stroke:#379F00;stroke-width:0.25;" d="M121.86,24.13c-0.35-0.02-2.05,0.02-2.36,0.02"/>
		<path style="fill:none;stroke:#379F00;stroke-width:0.25;" d="M119.48,24.46c-0.01-0.13,2.37-0.01,2.36-0.04"/>
		<path style="fill:none;stroke:#379F00;stroke-width:0.25;" d="M121.84,24.71c-0.35-0.02-2.05,0.02-2.36,0.02"/>
		<path style="fill:none;stroke:#379F00;stroke-width:0.25;" d="M119.48,25.02c-0.01-0.13,2.37-0.01,2.36-0.04"/>
		<path style="fill:none;stroke:#379F00;stroke-width:0.25;" d="M121.84,25.27c-0.35-0.02-2.05,0.02-2.36,0.02"/>
		<path style="fill:none;stroke:#379F00;stroke-width:0.25;" d="M119.46,25.56c-0.01-0.13,2.37-0.01,2.36-0.04"/>
		<path style="fill:none;stroke:#379F00;stroke-width:0.25;" d="M121.82,25.8c-0.35-0.02-2.05,0.02-2.36,0.02"/>
		<path style="fill:none;stroke:#379F00;stroke-width:0.25;" d="M119.42,26.09c-0.01-0.13,2.37-0.01,2.36-0.04"/>
		<path style="fill:none;stroke:#379F00;stroke-width:0.25;" d="M121.78,26.34c-0.35-0.02-2.05,0.02-2.36,0.02"/>
		<path style="fill:none;stroke:#379F00;stroke-width:0.25;" d="M119.4,26.67c-0.01-0.13,2.37-0.01,2.36-0.04"/>
		<path style="fill:none;stroke:#379F00;stroke-width:0.25;" d="M121.76,26.92c-0.35-0.02-2.05,0.02-2.36,0.02"/>
		<path style="fill:none;stroke:#379F00;stroke-width:0.25;" d="M119.36,27.19c-0.01-0.13,2.37-0.01,2.36-0.04"/>
		<path style="fill:none;stroke:#379F00;stroke-width:0.25;" d="M121.72,27.44c-0.35-0.02-2.05,0.02-2.36,0.02"/>
		<path style="fill:none;stroke:#379F00;stroke-width:0.25;" d="M119.34,27.77c-0.01-0.13,2.37-0.01,2.36-0.04"/>
		<path style="fill:none;stroke:#379F00;stroke-width:0.25;" d="M121.7,28.02c-0.35-0.02-2.05,0.02-2.36,0.02"/>
		<path style="fill:none;stroke:#379F00;stroke-width:0.25;" d="M119.3,28.33c-0.01-0.13,2.37-0.01,2.36-0.04"/>
		<path style="fill:none;stroke:#379F00;stroke-width:0.25;" d="M121.66,28.58c-0.35-0.02-2.05,0.02-2.36,0.02"/>
		<path style="fill:none;stroke:#379F00;stroke-width:0.25;" d="M121.66,28.81c-0.35-0.02-2.05,0.02-2.36,0.02"/>
		<path style="fill:none;stroke:#379F00;stroke-width:0.25;" d="M119.25,29.12c-0.01-0.13,2.37-0.01,2.36-0.04"/>
		<path style="fill:none;stroke:#379F00;stroke-width:0.25;" d="M121.61,29.36c-0.35-0.02-2.05,0.02-2.36,0.02"/>
		<path style="fill:none;stroke:#379F00;stroke-width:0.25;" d="M122.94,22.74c-0.01-0.13,2.37-0.01,2.36-0.04"/>
		<path style="fill:none;stroke:#379F00;stroke-width:0.25;" d="M125.3,22.99c-0.35-0.02-2.05,0.02-2.36,0.02"/>
		<path style="fill:none;stroke:#379F00;stroke-width:0.25;" d="M122.92,23.28c-0.01-0.13,2.37-0.01,2.36-0.04"/>
		<path style="fill:none;stroke:#379F00;stroke-width:0.25;" d="M125.28,23.53c-0.35-0.02-2.05,0.02-2.36,0.02"/>
		<path style="fill:none;stroke:#379F00;stroke-width:0.25;" d="M122.88,23.82c-0.01-0.13,2.37-0.01,2.36-0.04"/>
		<path style="fill:none;stroke:#379F00;stroke-width:0.25;" d="M125.24,24.07c-0.35-0.02-2.05,0.02-2.36,0.02"/>
		<path style="fill:none;stroke:#379F00;stroke-width:0.25;" d="M122.86,24.4c-0.01-0.13,2.37-0.01,2.36-0.04"/>
		<path style="fill:none;stroke:#379F00;stroke-width:0.25;" d="M125.22,24.64c-0.35-0.02-2.05,0.02-2.36,0.02"/>
		<path style="fill:none;stroke:#379F00;stroke-width:0.25;" d="M122.86,24.96c-0.01-0.13,2.37-0.01,2.36-0.04"/>
		<path style="fill:none;stroke:#379F00;stroke-width:0.25;" d="M125.22,25.2c-0.35-0.02-2.05,0.02-2.36,0.02"/>
		<path style="fill:none;stroke:#379F00;stroke-width:0.25;" d="M122.83,25.49c-0.01-0.13,2.37-0.01,2.36-0.04"/>
		<path style="fill:none;stroke:#379F00;stroke-width:0.25;" d="M125.2,25.74c-0.35-0.02-2.05,0.02-2.36,0.02"/>
		<path style="fill:none;stroke:#379F00;stroke-width:0.25;" d="M122.79,26.03c-0.01-0.13,2.37-0.01,2.36-0.04"/>
		<path style="fill:none;stroke:#379F00;stroke-width:0.25;" d="M125.13,26.26c-0.35-0.02-2.05,0.02-2.36,0.02"/>
		<path style="fill:none;stroke:#379F00;stroke-width:0.25;" d="M122.77,26.63c-0.01-0.13,2.37-0.01,2.36-0.04"/>
		<path style="fill:none;stroke:#379F00;stroke-width:0.25;" d="M125.09,26.86c-0.35-0.02-2.05,0.02-2.36,0.02"/>
		<path style="fill:none;stroke:#379F00;stroke-width:0.25;" d="M122.71,27.19c-0.01-0.13,2.37-0.01,2.36-0.04"/>
		<path style="fill:none;stroke:#379F00;stroke-width:0.25;" d="M125.07,27.44c-0.35-0.02-2.05,0.02-2.36,0.02"/>
		<path style="fill:none;stroke:#379F00;stroke-width:0.25;" d="M122.71,27.81c-0.01-0.13,2.37-0.01,2.36-0.04"/>
		<path style="fill:none;stroke:#379F00;stroke-width:0.25;" d="M125.09,28.08c-0.35-0.02-2.05,0.02-2.36,0.02"/>
		<path style="fill:none;stroke:#379F00;stroke-width:0.25;" d="M122.65,28.45c-0.01-0.13,2.37-0.01,2.36-0.04"/>
		<path style="fill:none;stroke:#379F00;stroke-width:0.25;" d="M125.03,28.7c-0.35-0.02-2.05,0.02-2.36,0.02"/>
		<path style="fill:none;stroke:#379F00;stroke-width:0.25;" d="M125.05,28.99c-0.35-0.02-2.05,0.02-2.36,0.02"/>
	</g>
	<g>
		
			<ellipse keyword="plastid" transform="matrix(0.8715 -0.4904 0.4904 0.8715 -27.7941 106.7983)" style="fill:#007F06;stroke:#007F06;stroke-width:0.25;" cx="189.87" cy="106.43" rx="9.05" ry="4.46"/>
		
			<ellipse transform="matrix(0.8715 -0.4904 0.4904 0.8715 -27.7941 106.799)" style="fill:#74FF3F;stroke:#379F00;stroke-width:0.25;" cx="189.87" cy="106.43" rx="8.06" ry="3.98"/>
		<path style="fill:none;stroke:#379F00;stroke-width:0.25;" d="M183.92,106.66c-0.1,0.06-0.19,0.11-0.28,0.18"/>
		<path style="fill:none;stroke:#379F00;stroke-width:0.25;" d="M184.05,106.95c-0.23,0.03-0.41,0.19-0.63,0.23"/>
		<path style="fill:none;stroke:#379F00;stroke-width:0.25;" d="M184.17,107.19c-0.34,0.11-0.65,0.27-0.94,0.48"/>
		<path style="fill:none;stroke:#379F00;stroke-width:0.25;" d="M184.32,107.46c-0.38,0.21-0.89,0.6-1.32,0.69"/>
		<path style="fill:none;stroke:#379F00;stroke-width:0.25;" d="M184.44,107.75c-0.45,0.25-1.06,0.67-1.53,0.86"/>
		<path style="fill:none;stroke:#379F00;stroke-width:0.25;" d="M184.59,108.07c-0.55,0.31-1.23,0.74-1.78,1.05"/>
		<path style="fill:none;stroke:#379F00;stroke-width:0.25;" d="M184.78,108.41c-0.31,0.21-1.66,0.75-1.96,1.12"/>
		<path style="fill:none;stroke:#379F00;stroke-width:0.25;" d="M184.95,108.67c-0.1-0.12-1.96,1.11-2.03,1.17"/>
		<path style="fill:none;stroke:#379F00;stroke-width:0.25;" d="M185.07,108.96c-0.72,0.28-1.38,0.64-1.99,1.1"/>
		<path style="fill:none;stroke:#379F00;stroke-width:0.25;" d="M185.23,109.28c-0.59,0.22-1.42,0.61-1.99,1.07"/>
		<path style="fill:none;stroke:#379F00;stroke-width:0.25;" d="M185.38,109.5c-0.69,0.31-1.36,0.67-2,1.08"/>
		<path style="fill:none;stroke:#379F00;stroke-width:0.25;" d="M185.48,109.73c-0.64,0.36-1.28,0.7-1.92,1.06"/>
		<path style="fill:none;stroke:#379F00;stroke-width:0.25;" d="M185.59,109.98c-0.61,0.36-1.23,0.68-1.88,0.96"/>
		<path style="fill:none;stroke:#379F00;stroke-width:0.25;" d="M185.68,110.21c-0.37,0.21-1.29,0.7-1.65,0.91"/>
		<path style="fill:none;stroke:#379F00;stroke-width:0.25;" d="M185.77,110.5c-0.31,0.18-1.06,0.6-1.37,0.77"/>
		<path style="fill:none;stroke:#379F00;stroke-width:0.25;" d="M185.9,110.78c-0.24,0.09-0.91,0.43-1.13,0.56"/>
		<path style="fill:none;stroke:#379F00;stroke-width:0.25;" d="M186.04,111.03c-0.11,0.06-0.67,0.39-0.8,0.4"/>
		<path style="fill:none;stroke:#379F00;stroke-width:0.25;" d="M193.14,101.6c0.1-0.06,0.2-0.1,0.3-0.14"/>
		<path style="fill:none;stroke:#379F00;stroke-width:0.25;" d="M193.31,101.86c0.14-0.18,0.38-0.25,0.53-0.41"/>
		<path style="fill:none;stroke:#379F00;stroke-width:0.25;" d="M193.46,102.08c0.27-0.24,0.57-0.42,0.9-0.55"/>
		<path style="fill:none;stroke:#379F00;stroke-width:0.25;" d="M193.61,102.35c0.38-0.22,0.98-0.45,1.28-0.77"/>
		<path style="fill:none;stroke:#379F00;stroke-width:0.25;" d="M193.8,102.6c0.45-0.26,1.12-0.56,1.53-0.86"/>
		<path style="fill:none;stroke:#379F00;stroke-width:0.25;" d="M193.99,102.9c0.55-0.31,1.27-0.67,1.82-0.98"/>
		<path style="fill:none;stroke:#379F00;stroke-width:0.25;" d="M194.18,103.24c0.34-0.16,1.5-1.03,1.98-1.09"/>
		<path style="fill:none;stroke:#379F00;stroke-width:0.25;" d="M194.31,103.52c-0.05-0.15,1.97-1.1,2.05-1.13"/>
		<path style="fill:none;stroke:#379F00;stroke-width:0.25;" d="M194.5,103.77c0.61-0.47,1.27-0.85,1.97-1.13"/>
		<path style="fill:none;stroke:#379F00;stroke-width:0.25;" d="M194.69,104.07c0.49-0.39,1.25-0.9,1.95-1.14"/>
		<path style="fill:none;stroke:#379F00;stroke-width:0.25;" d="M194.81,104.31c0.63-0.43,1.28-0.81,1.96-1.15"/>
		<path style="fill:none;stroke:#379F00;stroke-width:0.25;" d="M194.95,104.52c0.64-0.36,1.26-0.73,1.9-1.09"/>
		<path style="fill:none;stroke:#379F00;stroke-width:0.25;" d="M195.1,104.75c0.62-0.33,1.22-0.7,1.8-1.11"/>
		<path style="fill:none;stroke:#379F00;stroke-width:0.25;" d="M195.26,104.94c0.37-0.21,1.27-0.74,1.63-0.94"/>
		<path style="fill:none;stroke:#379F00;stroke-width:0.25;" d="M195.45,105.16c0.31-0.17,1.06-0.6,1.37-0.77"/>
		<path style="fill:none;stroke:#379F00;stroke-width:0.25;" d="M195.62,105.42c0.2-0.16,0.84-0.55,1.07-0.67"/>
		<path style="fill:none;stroke:#379F00;stroke-width:0.25;" d="M195.76,105.68c0.11-0.06,0.68-0.37,0.76-0.47"/>
		<path style="fill:none;stroke:#379F00;stroke-width:0.25;" d="M184.47,105.95c-0.07-0.11,2.06-1.17,2.04-1.19"/>
		<path style="fill:none;stroke:#379F00;stroke-width:0.25;" d="M186.65,105.01c-0.32,0.15-1.78,1.02-2.05,1.18"/>
		<path style="fill:none;stroke:#379F00;stroke-width:0.25;" d="M184.72,106.43c-0.07-0.11,2.06-1.17,2.04-1.19"/>
		<path style="fill:none;stroke:#379F00;stroke-width:0.25;" d="M186.89,105.49c-0.32,0.15-1.78,1.02-2.05,1.18"/>
		<path style="fill:none;stroke:#379F00;stroke-width:0.25;" d="M184.94,106.92c-0.07-0.11,2.06-1.17,2.04-1.19"/>
		<path style="fill:none;stroke:#379F00;stroke-width:0.25;" d="M187.12,105.98c-0.32,0.15-1.78,1.02-2.05,1.18"/>
		<path style="fill:none;stroke:#379F00;stroke-width:0.25;" d="M185.21,107.44c-0.07-0.11,2.06-1.17,2.04-1.19"/>
		<path style="fill:none;stroke:#379F00;stroke-width:0.25;" d="M187.39,106.49c-0.32,0.15-1.77,1.02-2.05,1.18"/>
		<path style="fill:none;stroke:#379F00;stroke-width:0.25;" d="M185.48,107.92c-0.07-0.11,2.06-1.17,2.04-1.19"/>
		<path style="fill:none;stroke:#379F00;stroke-width:0.25;" d="M187.66,106.98c-0.32,0.15-1.78,1.02-2.05,1.18"/>
		<path style="fill:none;stroke:#379F00;stroke-width:0.25;" d="M185.73,108.4c-0.07-0.11,2.06-1.17,2.04-1.19"/>
		<path style="fill:none;stroke:#379F00;stroke-width:0.25;" d="M187.91,107.46c-0.32,0.15-1.78,1.02-2.05,1.18"/>
		<path style="fill:none;stroke:#379F00;stroke-width:0.25;" d="M185.96,108.89c-0.07-0.11,2.06-1.17,2.04-1.19"/>
		<path style="fill:none;stroke:#379F00;stroke-width:0.25;" d="M188.14,107.95c-0.32,0.15-1.78,1.02-2.05,1.18"/>
		<path style="fill:none;stroke:#379F00;stroke-width:0.25;" d="M186.22,109.41c-0.07-0.11,2.06-1.17,2.04-1.19"/>
		<path style="fill:none;stroke:#379F00;stroke-width:0.25;" d="M188.4,108.47c-0.32,0.15-1.78,1.02-2.05,1.18"/>
		<path style="fill:none;stroke:#379F00;stroke-width:0.25;" d="M186.44,109.88c-0.07-0.11,2.06-1.17,2.04-1.19"/>
		<path style="fill:none;stroke:#379F00;stroke-width:0.25;" d="M188.62,108.94c-0.32,0.15-1.78,1.02-2.05,1.17"/>
		<path style="fill:none;stroke:#379F00;stroke-width:0.25;" d="M186.71,110.39c-0.07-0.11,2.06-1.17,2.04-1.19"/>
		<path style="fill:none;stroke:#379F00;stroke-width:0.25;" d="M188.89,109.45c-0.32,0.15-1.78,1.02-2.05,1.18"/>
		<path style="fill:none;stroke:#379F00;stroke-width:0.25;" d="M186.95,110.9c-0.07-0.11,2.06-1.17,2.04-1.19"/>
		<path style="fill:none;stroke:#379F00;stroke-width:0.25;" d="M187.21,111.42c-0.07-0.11,2.06-1.17,2.04-1.19"/>
		<path style="fill:none;stroke:#379F00;stroke-width:0.25;" d="M189.12,109.96c-0.32,0.15-1.78,1.02-2.05,1.18"/>
		<path style="fill:none;stroke:#379F00;stroke-width:0.25;" d="M187.27,104.52c-0.07-0.11,2.06-1.17,2.04-1.19"/>
		<path style="fill:none;stroke:#379F00;stroke-width:0.25;" d="M189.44,103.51c-0.32,0.15-1.78,1.02-2.05,1.18"/>
		<path style="fill:none;stroke:#379F00;stroke-width:0.25;" d="M187.51,104.93c-0.07-0.11,2.06-1.17,2.04-1.19"/>
		<path style="fill:none;stroke:#379F00;stroke-width:0.25;" d="M186.9,103.82c-0.07-0.11,2.06-1.17,2.04-1.19"/>
		<path style="fill:none;stroke:#379F00;stroke-width:0.25;" d="M189.08,102.88c-0.32,0.15-1.78,1.02-2.05,1.18"/>
		<path style="fill:none;stroke:#379F00;stroke-width:0.25;" d="M187.15,104.3c-0.07-0.11,2.06-1.17,2.04-1.19"/>
		<path style="fill:none;stroke:#379F00;stroke-width:0.25;" d="M189.68,103.99c-0.32,0.15-1.78,1.02-2.05,1.17"/>
		<path style="fill:none;stroke:#379F00;stroke-width:0.25;" d="M187.73,105.42c-0.07-0.11,2.06-1.17,2.04-1.19"/>
		<path style="fill:none;stroke:#379F00;stroke-width:0.25;" d="M189.91,104.48c-0.32,0.15-1.78,1.02-2.05,1.18"/>
		<path style="fill:none;stroke:#379F00;stroke-width:0.25;" d="M188,105.94c-0.07-0.11,2.06-1.17,2.04-1.19"/>
		<path style="fill:none;stroke:#379F00;stroke-width:0.25;" d="M190.18,105c-0.32,0.15-1.78,1.02-2.05,1.17"/>
		<path style="fill:none;stroke:#379F00;stroke-width:0.25;" d="M188.27,106.42c-0.07-0.11,2.06-1.17,2.04-1.19"/>
		<path style="fill:none;stroke:#379F00;stroke-width:0.25;" d="M190.45,105.48c-0.32,0.16-1.78,1.02-2.05,1.18"/>
		<path style="fill:none;stroke:#379F00;stroke-width:0.25;" d="M188.52,106.9c-0.07-0.11,2.06-1.17,2.04-1.19"/>
		<path style="fill:none;stroke:#379F00;stroke-width:0.25;" d="M190.7,105.96c-0.32,0.15-1.78,1.02-2.05,1.18"/>
		<path style="fill:none;stroke:#379F00;stroke-width:0.25;" d="M188.75,107.39c-0.07-0.11,2.06-1.17,2.04-1.19"/>
		<path style="fill:none;stroke:#379F00;stroke-width:0.25;" d="M190.93,106.45c-0.32,0.15-1.78,1.02-2.05,1.18"/>
		<path style="fill:none;stroke:#379F00;stroke-width:0.25;" d="M189.01,107.91c-0.07-0.11,2.06-1.17,2.04-1.19"/>
		<path style="fill:none;stroke:#379F00;stroke-width:0.25;" d="M191.19,106.97c-0.32,0.15-1.78,1.02-2.05,1.18"/>
		<path style="fill:none;stroke:#379F00;stroke-width:0.25;" d="M189.23,108.38c-0.07-0.11,2.06-1.17,2.04-1.19"/>
		<path style="fill:none;stroke:#379F00;stroke-width:0.25;" d="M191.41,107.44c-0.32,0.15-1.78,1.02-2.05,1.18"/>
		<path style="fill:none;stroke:#379F00;stroke-width:0.25;" d="M189.5,108.89c-0.07-0.11,2.06-1.17,2.04-1.19"/>
		<path style="fill:none;stroke:#379F00;stroke-width:0.25;" d="M191.68,107.95c-0.32,0.15-1.78,1.02-2.05,1.18"/>
		<path style="fill:none;stroke:#379F00;stroke-width:0.25;" d="M189.74,109.4c-0.07-0.11,2.06-1.17,2.04-1.19"/>
		<path style="fill:none;stroke:#379F00;stroke-width:0.25;" d="M191.91,108.46c-0.32,0.15-1.78,1.02-2.05,1.18"/>
		<path style="fill:none;stroke:#379F00;stroke-width:0.25;" d="M192.03,108.66c-0.32,0.15-1.78,1.02-2.05,1.17"/>
		<path style="fill:none;stroke:#379F00;stroke-width:0.25;" d="M190.09,110.11c-0.07-0.11,2.06-1.17,2.04-1.19"/>
		<path style="fill:none;stroke:#379F00;stroke-width:0.25;" d="M192.26,109.17c-0.32,0.15-1.78,1.02-2.05,1.18"/>
		<path style="fill:none;stroke:#379F00;stroke-width:0.25;" d="M190.17,102.74c-0.07-0.11,2.06-1.17,2.04-1.19"/>
		<path style="fill:none;stroke:#379F00;stroke-width:0.25;" d="M192.35,101.8c-0.32,0.15-1.78,1.02-2.05,1.18"/>
		<path style="fill:none;stroke:#379F00;stroke-width:0.25;" d="M190.42,103.22c-0.07-0.11,2.06-1.17,2.04-1.19"/>
		<path style="fill:none;stroke:#379F00;stroke-width:0.25;" d="M192.59,102.28c-0.32,0.15-1.78,1.02-2.05,1.17"/>
		<path style="fill:none;stroke:#379F00;stroke-width:0.25;" d="M190.64,103.71c-0.07-0.11,2.06-1.17,2.04-1.19"/>
		<path style="fill:none;stroke:#379F00;stroke-width:0.25;" d="M192.82,102.77c-0.32,0.15-1.78,1.02-2.05,1.18"/>
		<path style="fill:none;stroke:#379F00;stroke-width:0.25;" d="M190.91,104.23c-0.07-0.11,2.06-1.17,2.04-1.19"/>
		<path style="fill:none;stroke:#379F00;stroke-width:0.25;" d="M193.09,103.29c-0.32,0.15-1.78,1.02-2.05,1.18"/>
		<path style="fill:none;stroke:#379F00;stroke-width:0.25;" d="M191.18,104.71c-0.07-0.11,2.06-1.17,2.04-1.19"/>
		<path style="fill:none;stroke:#379F00;stroke-width:0.25;" d="M193.36,103.77c-0.32,0.16-1.78,1.02-2.05,1.18"/>
		<path style="fill:none;stroke:#379F00;stroke-width:0.25;" d="M191.43,105.19c-0.07-0.11,2.06-1.17,2.04-1.19"/>
		<path style="fill:none;stroke:#379F00;stroke-width:0.25;" d="M193.61,104.25c-0.32,0.15-1.78,1.02-2.05,1.18"/>
		<path style="fill:none;stroke:#379F00;stroke-width:0.25;" d="M191.66,105.68c-0.07-0.11,2.06-1.17,2.04-1.19"/>
		<path style="fill:none;stroke:#379F00;stroke-width:0.25;" d="M193.81,104.73c-0.32,0.15-1.78,1.02-2.05,1.18"/>
		<path style="fill:none;stroke:#379F00;stroke-width:0.25;" d="M191.93,106.22c-0.07-0.11,2.06-1.17,2.04-1.19"/>
		<path style="fill:none;stroke:#379F00;stroke-width:0.25;" d="M194.07,105.28c-0.32,0.15-1.78,1.02-2.05,1.18"/>
		<path style="fill:none;stroke:#379F00;stroke-width:0.25;" d="M192.15,106.73c-0.07-0.11,2.06-1.17,2.04-1.19"/>
		<path style="fill:none;stroke:#379F00;stroke-width:0.25;" d="M194.33,105.79c-0.32,0.15-1.78,1.02-2.05,1.18"/>
		<path style="fill:none;stroke:#379F00;stroke-width:0.25;" d="M192.46,107.28c-0.07-0.11,2.06-1.17,2.04-1.19"/>
		<path style="fill:none;stroke:#379F00;stroke-width:0.25;" d="M194.67,106.34c-0.32,0.15-1.78,1.02-2.05,1.18"/>
		<path style="fill:none;stroke:#379F00;stroke-width:0.25;" d="M192.72,107.86c-0.07-0.11,2.06-1.17,2.04-1.19"/>
		<path style="fill:none;stroke:#379F00;stroke-width:0.25;" d="M194.92,106.91c-0.32,0.15-1.78,1.02-2.05,1.18"/>
		<path style="fill:none;stroke:#379F00;stroke-width:0.25;" d="M195.08,107.16c-0.32,0.15-1.78,1.02-2.05,1.17"/>
	</g>
	<g>
		<g>
			<g>
				<line style="fill:none;stroke:#000000;" x1="104.75" y1="15" x2="117" y2="21.75"/>
				<circle cx="117" cy="21.75" r="1.32"/>
			</g>
		</g>
		<path style="fill:#FFFFFF;stroke:#000000;" d="M108.5,9.25c0,4-3.25,7.25-7.25,7.25h-21c-4,0-7.25-3.25-7.25-7.25l0,0
			c0-4,3.25-7.25,7.25-7.25h21C105.25,2,108.5,5.25,108.5,9.25L108.5,9.25z"/>
		<text transform="matrix(1 0 0 1 78.3545 10.75)" style="font-family:'Helvetica'; font-size:4pt;">Chloroplast</text>
	</g>
</g>
<g keyword="peroxisome">
	<circle keyword="peroxisome" style="fill:#5800FF;stroke:#6400BF;stroke-width:0.25;" cx="193.94" cy="36.94" r="1.44"/>
	<circle keyword="peroxisome" style="fill:#5800FF;stroke:#6400BF;stroke-width:0.25;" cx="198.94" cy="40.81" r="1.44"/>
	<circle keyword="peroxisome" style="fill:#5800FF;stroke:#6400BF;stroke-width:0.25;" cx="192.25" cy="43.88" r="1.38"/>
	<circle keyword="peroxisome" style="fill:#5800FF;stroke:#6400BF;stroke-width:0.25;" cx="199.25" cy="47.25" r="1.5"/>
	<g>
		<path style="fill:#FFFFFF;stroke:#000000;" d="M238.75,34c0,4-3.25,7.25-7.25,7.25h-21c-4,0-7.25-3.25-7.25-7.25l0,0
			c0-4,3.25-7.25,7.25-7.25h21C235.5,26.75,238.75,30,238.75,34L238.75,34z"/>
		<text transform="matrix(1 0 0 1 208.3008 35.25)" style="font-family:'Helvetica'; font-size:4pt;">Peroxisome</text>
		<g>
			<g>
				<line style="fill:none;stroke:#000000;" x1="203.5" y1="36" x2="199.25" y2="40"/>
				<circle cx="199.25" cy="40" r="1.32"/>
			</g>
		</g>
	</g>
</g>
<g keyword="nucleus">
	<path keyword="nucleus" style="fill:#DFFEFF;stroke:#000000;stroke-width:0.25;" d="M124.66,109.01c-2.59-0.28-4.62,0.03-5.41-2.76
		c-0.79-2.77-0.71-5.37-1-8.25c-0.29-2.95,3.45-8.47,5.25-11c4.56-6.4,8.25-4.75,14-4c9.47,1.24,11.51,6.01,12.25,7.25
		c0.73,1.21,1.23,3.91,1.5,5.25c0.3,1.48,0.46,2.47,0.75,4c0.28,1.47-0.02,5.39-0.5,7c-0.4,1.33-1.02,2.28-2.25,3.25
		c-1.87,1.48-4,2.12-6.41,1.6c-1.46-0.32-7.14-1.23-8.51-1.35C133.42,109.92,125.95,109.15,124.66,109.01z"/>
	<path style="fill:#0047BF;" d="M130.67,94.67c-3,1.75-2.42,3.75-2,5.79c0.29,1.41,2.68,3.09,4.07,3.47
		c1.53,0.42,3.06-0.17,4.19-1.09c5.06-4.16-1.08-12.48-5.75-8.5L130.67,94.67z"/>
	<g>
		<path style="fill:#FFFFFF;stroke:#000000;" d="M194.75,85.25c0,4-3.25,7.25-7.25,7.25h-21c-4,0-7.25-3.25-7.25-7.25l0,0
			c0-4,3.25-7.25,7.25-7.25h21C191.5,78,194.75,81.25,194.75,85.25L194.75,85.25z"/>
		<text transform="matrix(1 0 0 1 167.4678 87)" style="font-family:'Helvetica'; font-size:4pt;">Nucleus</text>
		<g>
			<g>
				<line style="fill:none;stroke:#000000;" x1="159.25" y1="85.25" x2="140.5" y2="95.75"/>
				<circle cx="140.5" cy="95.75" r="1.32"/>
			</g>
		</g>
	</g>
</g>
<g keyword="smooth er">
	<path style="fill:#FDFF1F;stroke:#B7BF00;stroke-width:0.25;" d="M122,86.67c0.87-0.57,1.82-1.74,1.64-2.81
		c-3.13-0.93-6.93,7.79-7.69,9.94c-0.7,1.99-1.55,14.07,1.85,13.68c0.16-1.96-0.56-3.85-0.85-5.77c-0.29-1.97-0.21-3.87,0.2-5.87
		c0.39-1.9,1.44-3.24,2.34-4.83c0.88-1.55,1.59-3.62,3-4.67"/>
	<g>
		<g>
			<path style="fill:#FDFF1F;" d="M116.04,89.21c0.77-1.25,2.36-2.46,2.38-3.88L118.29,85c-1.88-2-5.26,6.55-6.08,9l-0.04,0
				c-0.52-0.21-0.9-0.27-1.2-0.21c0.64-2.56,1.76-4.74,3.49-7.41l0.17-0.58c-0.25-2.67-4.01,3.6-4.29,4.21
				c-1.13,2.45-1.63,4.66-1.5,7.5c0.08,1.69-0.47,6.45,1.16,7.51c2.25,1.46,0.29-5.39,0.33-6.35c0.04-0.9,0.12-1.72,0.22-2.5
				c0.4-0.25,0.75,0.01,1.27,0.34c-0.19,3.64,0.32,10.19,2.83,9.81c0.16-0.95-0.38-1.85-0.47-2.81c-0.1-1.03,0-2.13,0-3.17
				c0-1.96-0.03-4.01,0.17-6C114.5,92.69,115.23,90.52,116.04,89.21z"/>
		</g>
		<g>
			<path style="fill:none;stroke:#B7BF00;stroke-width:0.25;" d="M116.04,89.21c0.77-1.25,2.36-2.46,2.38-3.88L118.29,85
				c-1.88-2-5.26,6.55-6.08,9l-0.04,0c-0.52-0.21-0.9-0.27-1.2-0.21c0.64-2.56,1.76-4.74,3.49-7.41l0.17-0.58
				c-0.25-2.67-4.01,3.6-4.29,4.21c-1.13,2.45-1.63,4.66-1.5,7.5c0.08,1.69-0.47,6.45,1.16,7.51c2.25,1.46,0.29-5.39,0.33-6.35
				c0.04-0.9,0.12-1.72,0.22-2.5c0.4-0.25,0.75,0.01,1.27,0.34c-0.19,3.64,0.32,10.19,2.83,9.81c0.16-0.95-0.38-1.85-0.47-2.81
				c-0.1-1.03,0-2.13,0-3.17c0-1.96-0.03-4.01,0.17-6C114.5,92.69,115.23,90.52,116.04,89.21z"/>
		</g>
	</g>
	<g>
		<path style="fill:#FFFFFF;stroke:#000000;" d="M142.25,123.5c0,4-3.25,7.25-7.25,7.25h-21c-4,0-7.25-3.25-7.25-7.25l0,0
			c0-4,3.25-7.25,7.25-7.25h21C139,116.25,142.25,119.5,142.25,123.5L142.25,123.5z"/>
		<text transform="matrix(1 0 0 1 111.2168 125.25)" style="font-family:'Helvetica'; font-size:4pt;">Smooth ER</text>
		<g>
			<g>
				<line style="fill:none;stroke:#000000;" x1="118" y1="116" x2="114" y2="101.75"/>
				<circle cx="114" cy="101.75" r="1.32"/>
			</g>
		</g>
	</g>
</g>
<g keyword="rough er">
	<g>
		<path style="fill:#FFDD3F;stroke:#929F00;stroke-width:0.25;" d="M109.21,103.75c0.2,0.92-0.79,1.96-1.5,1.04
			c-0.08-0.1-0.41-1.91-0.46-2.12c-0.33-1.51-0.21-3.07-0.21-4.67c0-1.69,0.12-2.98,0.5-4.5c0.35-1.38,2.96-6.04,2.92-7.5
			c-1.17-2.17-3.74,5.1-4.25,6.38c-0.57,1.42-0.87,5.41-0.96,7.17c-0.05,1.08-0.52,3.27-2.12,2.83c-1.96,0.79-5.29-14.88-2.29-15.04
			c1.5-0.33-1,9.83,2.33,13.5c1.46-0.25,0.58-3.23,0.71-4.92c0.12-1.67,0.44-2.87,0.88-4.5c0.54-2.04,2.45-6.49,4.04-7.12
			c1.29-0.52,3.67,1.13,3.42,2.88"/>
		<path style="fill:#FFDD3F;stroke:#929F00;stroke-width:0.25;" d="M151.4,110.06c-0.48,0.56-1.1,1.12-0.95,1.91
			c5.11,2.41,5.13-10.58,5.55-12.55c0.51-2.39-0.25-5-0.67-7.63c-0.1-0.63-1.05-2.76-1.74-2.96c-1.82-0.54-1.09,2.08-0.88,2.88
			c0.86,3.41,1.2,6.16,0.87,9.79c-0.28,3.19,0.56,6.21-2.06,8.38L151.4,110.06z"/>
		<path style="fill:#FFDD3F;stroke:#929F00;stroke-width:0.25;" d="M156.83,111.35c-0.06,0.69-1.69,0.44-0.96,1.77
			c5.15,1.55,5.21-18.27,4.15-22.27c-0.56-0.94-1.56-1.75-1.81,0.06c0.14,3.31,1.05,7.11,0.38,10.25
			C158.4,102.04,156.83,111.35,156.83,111.35z"/>
	</g>
	<g>
		<ellipse style="fill:#A9BF00;" cx="99.25" cy="88.88" rx="0.38" ry="0.51"/>
		<ellipse style="fill:#A9BF00;" cx="99.31" cy="90.38" rx="0.37" ry="0.38"/>
		<ellipse style="fill:#A9BF00;" cx="105.69" cy="98.81" rx="0.37" ry="0.38"/>
		<ellipse style="fill:#A9BF00;" cx="99.19" cy="91.69" rx="0.31" ry="0.44"/>
		<ellipse style="fill:#A9BF00;" cx="105.88" cy="96.31" rx="0.31" ry="0.44"/>
		<ellipse style="fill:#A9BF00;" cx="99.31" cy="93" rx="0.38" ry="0.31"/>
		<ellipse style="fill:#A9BF00;" cx="106.62" cy="98.38" rx="0.38" ry="0.31"/>
		<ellipse style="fill:#A9BF00;" cx="99.62" cy="95.19" rx="0.38" ry="0.31"/>
		<ellipse style="fill:#A9BF00;" cx="99.44" cy="94" rx="0.38" ry="0.31"/>
		<ellipse style="fill:#A9BF00;" cx="99.94" cy="96.38" rx="0.44" ry="0.38"/>
		<circle style="fill:#A9BF00;" cx="100.12" cy="97.69" r="0.44"/>
		<circle style="fill:#A9BF00;" cx="100.62" cy="99.25" r="0.38"/>
		<circle style="fill:#A9BF00;" cx="106.75" cy="95.62" r="0.38"/>
		<circle style="fill:#A9BF00;" cx="106.06" cy="94.94" r="0.38"/>
		<circle style="fill:#A9BF00;" cx="101.12" cy="100.25" r="0.38"/>
		<circle style="fill:#A9BF00;" cx="106.62" cy="97.06" r="0.38"/>
		<circle style="fill:#A9BF00;" cx="101.5" cy="101.44" r="0.38"/>
		<circle style="fill:#A9BF00;" cx="101.69" cy="88.88" r="0.38"/>
		<circle style="fill:#A9BF00;" cx="101.63" cy="89.97" r="0.37"/>
		<circle style="fill:#A9BF00;" cx="107.06" cy="103.88" r="0.37"/>
		<circle style="fill:#A9BF00;" cx="101.88" cy="91.19" r="0.44"/>
		<circle style="fill:#A9BF00;" cx="101.75" cy="92.5" r="0.38"/>
		<circle style="fill:#A9BF00;" cx="106.62" cy="99.81" r="0.38"/>
		<circle style="fill:#A9BF00;" cx="101.88" cy="93.62" r="0.38"/>
		<circle style="fill:#A9BF00;" cx="106.75" cy="102.44" r="0.38"/>
		<circle style="fill:#A9BF00;" cx="107.25" cy="93.06" r="0.38"/>
		<circle style="fill:#A9BF00;" cx="102.38" cy="102.69" r="0.38"/>
		<circle style="fill:#A9BF00;" cx="101.81" cy="94.69" r="0.31"/>
		<circle style="fill:#A9BF00;" cx="106.62" cy="101.19" r="0.31"/>
		<circle style="fill:#A9BF00;" cx="107.88" cy="91.69" r="0.31"/>
		<circle style="fill:#A9BF00;" cx="103.62" cy="102.69" r="0.31"/>
		<circle style="fill:#A9BF00;" cx="101.88" cy="96.75" r="0.38"/>
		<circle style="fill:#A9BF00;" cx="106.88" cy="94.44" r="0.38"/>
		<circle style="fill:#A9BF00;" cx="101.88" cy="95.69" r="0.38"/>
		<circle style="fill:#A9BF00;" cx="102.19" cy="97.94" r="0.31"/>
		<circle style="fill:#A9BF00;" cx="106.31" cy="93.56" r="0.31"/>
		<circle style="fill:#A9BF00;" cx="102.88" cy="98.88" r="0.38"/>
		<circle style="fill:#A9BF00;" cx="105.69" cy="99.69" r="0.38"/>
		<circle style="fill:#A9BF00;" cx="103.19" cy="100.31" r="0.44"/>
		<circle style="fill:#A9BF00;" cx="103.62" cy="99.25" r="0.38"/>
		<circle style="fill:#A9BF00;" cx="105.88" cy="97.69" r="0.38"/>
		<circle style="fill:#A9BF00;" cx="103.56" cy="97.69" r="0.31"/>
		<circle style="fill:#A9BF00;" cx="106.69" cy="92.25" r="0.31"/>
		<circle style="fill:#A9BF00;" cx="103.34" cy="95.97" r="0.41"/>
		<circle style="fill:#A9BF00;" cx="103.62" cy="94.38" r="0.38"/>
		<circle style="fill:#A9BF00;" cx="107.25" cy="90.94" r="0.38"/>
		<circle style="fill:#A9BF00;" cx="104" cy="92.75" r="0.38"/>
		<circle style="fill:#A9BF00;" cx="108.44" cy="90.38" r="0.38"/>
		<circle style="fill:#A9BF00;" cx="104.94" cy="102.06" r="0.38"/>
		<circle style="fill:#A9BF00;" cx="107.75" cy="89.5" r="0.38"/>
		<circle style="fill:#A9BF00;" cx="152.25" cy="91.92" r="0.38"/>
		<circle style="fill:#A9BF00;" cx="104.46" cy="91.08" r="0.33"/>
		<circle style="fill:#A9BF00;" cx="108.31" cy="88.12" r="0.33"/>
		<circle style="fill:#A9BF00;" cx="104.75" cy="89.5" r="0.38"/>
		<circle style="fill:#A9BF00;" cx="152.67" cy="93.54" r="0.38"/>
		<circle style="fill:#A9BF00;" cx="105.38" cy="88.12" r="0.38"/>
		<circle style="fill:#A9BF00;" cx="109.12" cy="89" r="0.38"/>
		<circle style="fill:#A9BF00;" cx="105.44" cy="100.94" r="0.38"/>
		<ellipse style="fill:#A9BF00;" cx="155.83" cy="106" rx="0.37" ry="0.38"/>
		<ellipse style="fill:#A9BF00;" cx="158.33" cy="98.85" rx="0.38" ry="0.31"/>
		<ellipse style="fill:#A9BF00;" cx="153" cy="105.62" rx="0.44" ry="0.38"/>
		<circle style="fill:#A9BF00;" cx="152.06" cy="88.67" r="0.44"/>
		<circle style="fill:#A9BF00;" cx="156.4" cy="97.92" r="0.44"/>
		<circle style="fill:#A9BF00;" cx="155.88" cy="92.25" r="0.38"/>
		<circle style="fill:#A9BF00;" cx="150.83" cy="110.04" r="0.38"/>
		<circle style="fill:#A9BF00;" cx="152.88" cy="106.92" r="0.38"/>
		<circle style="fill:#A9BF00;" cx="152.5" cy="108.25" r="0.38"/>
		<circle style="fill:#A9BF00;" cx="155.17" cy="108.67" r="0.38"/>
		<circle style="fill:#A9BF00;" cx="156.17" cy="102.08" r="0.38"/>
		<circle style="fill:#A9BF00;" cx="151.71" cy="108.92" r="0.38"/>
		<circle style="fill:#A9BF00;" cx="155.62" cy="107.42" r="0.38"/>
		<ellipse style="fill:#A9BF00;" cx="160.88" cy="103.75" rx="0.37" ry="0.38"/>
		<ellipse style="fill:#A9BF00;" cx="159.58" cy="110.08" rx="0.31" ry="0.44"/>
		<ellipse style="fill:#A9BF00;" cx="153.17" cy="102.92" rx="0.44" ry="0.38"/>
		<circle style="fill:#A9BF00;" cx="153.25" cy="101.42" r="0.44"/>
		<circle style="fill:#A9BF00;" cx="153.21" cy="98.08" r="0.38"/>
		<circle style="fill:#A9BF00;" cx="153.08" cy="104.38" r="0.38"/>
		<circle style="fill:#A9BF00;" cx="155.96" cy="104.83" r="0.38"/>
		<circle style="fill:#A9BF00;" cx="153.08" cy="96.54" r="0.38"/>
		<circle style="fill:#A9BF00;" cx="154.67" cy="89.5" r="0.38"/>
		<circle style="fill:#A9BF00;" cx="157.79" cy="103.75" r="0.38"/>
		<circle style="fill:#A9BF00;" cx="156.12" cy="93.67" r="0.38"/>
		<circle style="fill:#A9BF00;" cx="153.67" cy="88.42" r="0.38"/>
		<ellipse style="fill:#A9BF00;" cx="159.21" cy="111.25" rx="0.37" ry="0.38"/>
		<ellipse style="fill:#A9BF00;" cx="153.42" cy="111.92" rx="0.44" ry="0.38"/>
		<circle style="fill:#A9BF00;" cx="156.58" cy="96.42" r="0.44"/>
		<circle style="fill:#A9BF00;" cx="158.08" cy="113.08" r="0.44"/>
		<circle style="fill:#A9BF00;" cx="156.08" cy="103.5" r="0.38"/>
		<circle style="fill:#A9BF00;" cx="154.21" cy="111.08" r="0.38"/>
		<circle style="fill:#A9BF00;" cx="160.71" cy="91.58" r="0.38"/>
		<circle style="fill:#A9BF00;" cx="159.29" cy="89.58" r="0.38"/>
		<circle style="fill:#A9BF00;" cx="158.75" cy="112.12" r="0.38"/>
		<circle style="fill:#A9BF00;" cx="156.33" cy="100.79" r="0.38"/>
		<circle style="fill:#A9BF00;" cx="156.58" cy="99.29" r="0.38"/>
		<ellipse style="fill:#A9BF00;" cx="89.95" cy="102.17" rx="0.38" ry="0.51"/>
		<ellipse style="fill:#A9BF00;" cx="154.92" cy="109.83" rx="0.44" ry="0.38"/>
		<circle style="fill:#A9BF00;" cx="155.5" cy="90.75" r="0.44"/>
		<circle style="fill:#A9BF00;" cx="153.21" cy="99.75" r="0.38"/>
		<circle style="fill:#A9BF00;" cx="150.92" cy="112.58" r="0.38"/>
		<circle style="fill:#A9BF00;" cx="150" cy="111.33" r="0.38"/>
		<circle style="fill:#A9BF00;" cx="156.33" cy="95" r="0.38"/>
		<circle style="fill:#A9BF00;" cx="161.08" cy="101.25" r="0.38"/>
		<ellipse style="fill:#A9BF00;" cx="158.37" cy="97.42" rx="0.38" ry="0.51"/>
		<ellipse style="fill:#A9BF00;" cx="156.96" cy="108.25" rx="0.37" ry="0.38"/>
		<ellipse style="fill:#A9BF00;" cx="161" cy="97.75" rx="0.31" ry="0.44"/>
		<ellipse style="fill:#A9BF00;" cx="157.5" cy="104.92" rx="0.38" ry="0.31"/>
		<ellipse style="fill:#A9BF00;" cx="161.04" cy="99" rx="0.38" ry="0.31"/>
		<ellipse style="fill:#A9BF00;" cx="160.67" cy="106.15" rx="0.38" ry="0.31"/>
		<ellipse style="fill:#A9BF00;" cx="157.63" cy="91.25" rx="0.37" ry="0.38"/>
		<ellipse style="fill:#A9BF00;" cx="156.83" cy="109.5" rx="0.31" ry="0.44"/>
		<ellipse style="fill:#A9BF00;" cx="158.29" cy="96" rx="0.38" ry="0.31"/>
		<ellipse style="fill:#A9BF00;" cx="158.17" cy="90" rx="0.38" ry="0.31"/>
		<circle style="fill:#A9BF00;" cx="160.79" cy="105" r="0.38"/>
		<ellipse style="fill:#A9BF00;" cx="160.33" cy="107.25" rx="0.37" ry="0.38"/>
		<circle style="fill:#A9BF00;" cx="156.67" cy="110.69" r="0.44"/>
		<circle style="fill:#A9BF00;" cx="160.33" cy="90.42" r="0.38"/>
		<circle style="fill:#A9BF00;" cx="158.12" cy="94.83" r="0.38"/>
		<circle style="fill:#A9BF00;" cx="157.92" cy="102.46" r="0.38"/>
		<circle style="fill:#A9BF00;" cx="157" cy="113.42" r="0.38"/>
		<ellipse style="fill:#A9BF00;" cx="98.17" cy="99.16" rx="0.38" ry="0.51"/>
		<ellipse style="fill:#A9BF00;" cx="160.05" cy="108.5" rx="0.37" ry="0.38"/>
		<circle style="fill:#A9BF00;" cx="157.42" cy="105.88" r="0.38"/>
		<circle style="fill:#A9BF00;" cx="160.79" cy="92.67" r="0.38"/>
		<ellipse style="fill:#A9BF00;" cx="160.98" cy="96.29" rx="0.31" ry="0.44"/>
		<ellipse style="fill:#A9BF00;" cx="161.04" cy="100.08" rx="0.38" ry="0.31"/>
		<ellipse style="fill:#A9BF00;" cx="96.67" cy="89.5" rx="0.38" ry="0.51"/>
		<ellipse style="fill:#A9BF00;" cx="92.83" cy="91.29" rx="0.37" ry="0.38"/>
		<ellipse style="fill:#A9BF00;" cx="161.08" cy="95" rx="0.37" ry="0.38"/>
		<ellipse style="fill:#A9BF00;" cx="96.48" cy="95.67" rx="0.31" ry="0.44"/>
		<ellipse style="fill:#A9BF00;" cx="91.67" cy="94.5" rx="0.38" ry="0.31"/>
		<ellipse style="fill:#A9BF00;" cx="94.67" cy="101.02" rx="0.38" ry="0.31"/>
		<ellipse style="fill:#A9BF00;" cx="93.5" cy="97.33" rx="0.38" ry="0.31"/>
		<circle style="fill:#A9BF00;" cx="158.33" cy="100.04" r="0.38"/>
		<ellipse style="fill:#A9BF00;" cx="158.17" cy="101.25" rx="0.37" ry="0.38"/>
		<circle style="fill:#A9BF00;" cx="157.08" cy="106.92" r="0.44"/>
		<circle style="fill:#A9BF00;" cx="157.83" cy="92.42" r="0.38"/>
		<circle style="fill:#A9BF00;" cx="158" cy="93.58" r="0.38"/>
		<circle style="fill:#A9BF00;" cx="160.96" cy="102.58" r="0.38"/>
		<circle style="fill:#A9BF00;" cx="155.83" cy="111.62" r="0.38"/>
		<circle style="fill:#A9BF00;" cx="160.92" cy="93.75" r="0.38"/>
		<circle style="fill:#A9BF00;" cx="152.33" cy="112.62" r="0.38"/>
		<circle style="fill:#A9BF00;" cx="106" cy="86.75" r="0.38"/>
		<circle style="fill:#A9BF00;" cx="151.83" cy="90.25" r="0.38"/>
		<circle style="fill:#A9BF00;" cx="106.75" cy="85.12" r="0.38"/>
		<circle style="fill:#A9BF00;" cx="109.12" cy="86.94" r="0.38"/>
		<circle style="fill:#A9BF00;" cx="108" cy="84.12" r="0.38"/>
		<circle style="fill:#A9BF00;" cx="152.92" cy="95.17" r="0.38"/>
		<circle style="fill:#A9BF00;" cx="109.69" cy="83.81" r="0.31"/>
		<circle style="fill:#A9BF00;" cx="109.75" cy="87.69" r="0.31"/>
		<circle style="fill:#A9BF00;" cx="110.06" cy="86" r="0.31"/>
		<circle style="fill:#A9BF00;" cx="111.56" cy="84.31" r="0.44"/>
		<circle style="fill:#A9BF00;" cx="112.62" cy="85.5" r="0.44"/>
	</g>
	<g>
		<path style="fill:#FFFFFF;stroke:#000000;" d="M97.25,115c0,4-3.25,7.25-7.25,7.25H69c-4,0-7.25-3.25-7.25-7.25l0,0
			c0-4,3.25-7.25,7.25-7.25h21C94,107.75,97.25,111,97.25,115L97.25,115z"/>
		<text transform="matrix(1 0 0 1 67.4658 116.75)" style="font-family:'Helvetica'; font-size:4pt;">Rough ER</text>
		<g>
			<g>
				<line style="fill:none;stroke:#000000;" x1="91.75" y1="107.75" x2="100.62" y2="98.88"/>
				<circle cx="100.63" cy="98.88" r="1.32"/>
			</g>
		</g>
	</g>
</g>
<g keyword="golgi">
	<path keyword="golgi" style="fill:#FF843F;stroke:#DF6000;stroke-width:0.25;" d="M88.93,39.64C90.6,41.13,91.96,39,90.58,38
		S87.66,38.51,88.93,39.64z"/>
	<path keyword="golgi" style="fill:#FF843F;stroke:#DF6000;stroke-width:0.25;" d="M87.98,30.79c-1.66,0.86-0.69,2.67,0.56,2.21
		S89.33,30.09,87.98,30.79z"/>
	<path keyword="golgi" style="fill:#FF843F;stroke:#DF6000;stroke-width:0.25;" d="M85.75,34.88c-0.62-1.29-2.91-0.82-2.35,0.99
		C83.91,37.52,86.38,36.17,85.75,34.88z"/>
	<path keyword="golgi" style="fill:#FF843F;stroke:#DF6000;stroke-width:0.25;" d="M77.96,62.27c-0.89-0.17-1.33,1.1-0.87,1.5
		c2.12,1.14,2.18-1.47,1.13-1.46L77.96,62.27z"/>
	<path keyword="golgi" style="fill:#FF843F;stroke:#DF6000;stroke-width:0.25;" d="M81.09,62.07c-1.22,0.39-0.11,2.45,1.02,1.73
		C83.25,63.06,81.76,62.12,81.09,62.07"/>
	<path keyword="golgi" style="fill:#FF843F;stroke:#DF6000;stroke-width:0.25;" d="M83.31,65.91c-0.32-0.58-1.54-0.07-1.09,0.69
		C82.62,67.27,83.75,66.7,83.31,65.91"/>
	<path keyword="golgi" style="fill:#FF843F;stroke:#DF6000;stroke-width:0.25;" d="M87.75,43.75c1.21-0.64,2.47-3.34-0.75-2.31
		c-0.79,0.25-2,1.41-2.56,2c-0.84,0.88-1.03,1.37-1.62,2.56c-1.47,2.93-2.16,7.16-1.56,10.75c0.24,1.44,0.33,4.81,1.76,3
		c0.89-1.14,0.61-4.55,0.48-6C83.12,49.69,86.03,44.67,87.75,43.75z"/>
	<path keyword="golgi" style="fill:#FF843F;stroke:#DF6000;stroke-width:0.25;" d="M86.23,39.89c-0.92-0.96-1.67-0.58-2.51,0.2
		c-0.55,0.51-1.45,1.03-2,1.74c-1.29,1.66-2.24,3.02-2.82,4.94c-0.54,1.81-0.91,3.79-0.94,5.81c-0.03,2.22,0.07,4.4,0.65,6.41
		c0.25,0.85,0.72,1.83,1.67,1.15c0.8-0.57,0.32-1.59,0.12-2.31c-0.43-1.56-0.63-3.57-0.53-5.22c0.09-1.48,0.35-3.55,0.87-5.01
		c0.25-0.71,0.5-1.37,0.82-2.06c0.44-0.96,0.55-1.25,1.56-2.38C84.31,41.88,86.88,40.75,86.23,39.89z"/>
	<path keyword="golgi" style="fill:#FF843F;stroke:#DF6000;stroke-width:0.25;" d="M77.31,59.44c-0.06-2.31-0.75-3.44-0.82-5.69
		c-0.06-1.99,0.55-4.22,1.13-6.12c0.5-1.62,1.06-3.72,2.34-5.38c0.64-0.83,1.52-1.42,2.31-2.09c0.68-0.58,1.72-1.9-0.12-1.63
		c-1.97,0.29-3.81,2.3-4.72,3.79c-1.07,1.76-1.88,4.02-2.28,6.06c-0.39,1.97-0.84,3.31-0.59,5.5c0.19,1.68,0.19,5.11,1.31,6.31
		C76.71,61.08,77.31,59.44,77.31,59.44z"/>
	<path keyword="golgi" style="fill:#FF843F;stroke:#DF6000;stroke-width:0.25;" d="M74.29,47.83c0.54-2.25,1.06-5.2,2.54-6.75
		c0.96-1,3.58-2.67,2.97-3.73c-1.97-1.61-6.37,5.27-7.22,8.23c-0.77,2.66-1.32,8.01-0.92,10.67c0.17,1.11,0.22,2.96,0.75,3.92
		c0.88,1.59,2.12,1.37,1.75-0.67C74.17,59.5,73.23,52.22,74.29,47.83z"/>
	<g>
		<path style="fill:#FFFFFF;stroke:#000000;" d="M58.5,44.25c0,4-3.25,7.25-7.25,7.25h-21c-4,0-7.25-3.25-7.25-7.25l0,0
			c0-4,3.25-7.25,7.25-7.25h21C55.25,37,58.5,40.25,58.5,44.25L58.5,44.25z"/>
		<text transform="matrix(1 0 0 1 34.4141 46)" style="font-family:'Helvetica'; font-size:4pt;">Golgi</text>
		<g>
			<g>
				<line style="fill:none;stroke:#000000;" x1="58.5" y1="45" x2="73.25" y2="47.25"/>
				<circle cx="73.25" cy="47.25" r="1.32"/>
			</g>
		</g>
	</g>
</g>
</svg>
