<?xml version="1.0" encoding="utf-8"?>
<!DOCTYPE svg PUBLIC "-//W3C//DTD SVG 1.1//EN" "http://www.w3.org/Graphics/SVG/1.1/DTD/svg11.dtd">
<svg version="1.1" xmlns="http://www.w3.org/2000/svg" width="422.597" height="216.543" viewBox="0 0 422.597 216.543" overflow="visible" enable-background="new 0 0 422.597 216.543" xml:space="preserve">
	<g>
		<rect fill="#FFFFFF" width="422.597" height="216.543"/>
		<path fill="#FFFF00" stroke="#000000" stroke-width="0.8841" d="M354.794,129.459c-7.176-1.164-5.145-6.742-7.768-12.187
			c-1.589-3.304-4.271-2.07-6.721-4.077c-10.706-8.782,6.976-18.722,13.719-21.714c7.648-3.393,15.726-6.196,24.118-6.864
			c2.812-0.223,10.438-1.339,9.962,3.606c-0.392,4.074-9.653,7.573-12.531,9.841c-1.878,1.477-3.438,3.24-5.579,4.364
			c4.803-2.521,15.596-11.838,21.312-9.639c5.9,2.27-0.444,10.289-2.436,13.264c-5.605,8.37-11.64,16.22-20.797,20.908
			c-4.317,2.21-8.38,3.254-13.174,2.514C354.864,129.471,354.828,129.465,354.794,129.459z"/>
		<g>
			<path fill="#EF9C22" stroke="#000000" stroke-width="0.4421" d="M112.455,85.663c3.332-0.094,6.167-3.101,10.039-3.242
				c3.327-0.121,7.513-0.566,10.577-2.104c2.418-1.214,3.217-2.691,6.11-3.133c2.686-0.41,5.581,0.01,8.261-0.274
				c-1.587,0.167-6.499-3.487-8.36-4.163c-3.531-1.282-7.45-2.215-11.191-1.341C121.274,72.951,114.138,78.935,112.455,85.663z"/>
			<path fill="#EF9C22" stroke="#000000" stroke-width="0.4421" d="M304.111,120.359c-2.983-2.991-8.664-1.976-11.089-5.06
				c-2.78-3.532-2.045-9.963-4.737-14.15c-1.364-2.119-2.654-3.853-4.549-5.558c-2.47-2.223-2.38-1.201-2.333-4.877
				c0.118-8.877-4.9-16.126-14.099-18.057c-3.908-0.82-5.864-1.07-8.91-3.438c-4.349-3.381-8.559-3.278-13.681-4.98
				c-12.189-4.05-24.704-10.282-37.398-10.59c-5.639-0.138-15.002,3.341-20.261,1.183c-4.175-1.713-3.282-4.431-8.625-3.309
				c-7.305,1.535-15.83,1.964-21.492-3.78c-5.641-5.724-3.682-11.983,2.787-15.69c17.113-9.802,29.734-1.731,45.251,6.657
				c4.501,2.434,9.064,2.962,14.036,3.965c4.967,1.003,9.836,1.585,14.66,3.111c4.263,1.349,8.353,1.688,12.396,3.521
				c3.854,1.746,7.922,3.169,12.054,4.088c13.816,3.077,24.16,12.729,33.586,23.017c7.44,8.118,18.235,21.367,17.538,32.838
				c-0.311,5.131,0.351,7.753,2.176,12.279c0.782,1.943,1.738,5.188-0.771,5.882C307.501,128.282,305.813,122.064,304.111,120.359z"/>
			<path fill="#F2CA20" stroke="#000000" stroke-width="0.4421" d="M261.725,67.144c9.723-5.415,20.269-12,29.6-2.564
				c3.852,3.895,7.73,7.846,10.854,12.369c2.726,3.948,3.75,8.056,5.612,12.293c1.929,4.384,3.24,7.464,3.4,12.435
				c0.135,4.255-0.32,8.576,0.482,12.785c0.719,3.753,3.556,8.463,3.202,12.221c-4.159,1.226-5.412-2.878-6.368-5.874
				c-1.411-4.426-2.761-8.905-6.033-12.35c-3.645-3.838-8.364-4.565-13.731-4.117c-16.093,1.348-33.554,5.748-45.886,16.819
				c-7.598,6.819-13.12,15.655-21.308,21.861c-3.665,2.778-6.987,5.452-11.312,6.854c-8.13,2.633-19.453,2.629-25.308-4.288
				c-3.459-4.086-5.283-9.833-6.968-14.889c-3.535-10.616-3.961-21.929-9.243-31.983c-4.717-8.982-11.505-17.318-20.822-21.751
				c-9.532-4.534-17.33-7.698-26.061,0.145c-2.318,2.08-5.058,6.449-7.787,7.698c-4.219,1.929-3.734-2.437-3.59-6.284
				c0.593-15.936,16.664-18.346,25.015-29.554c1.862-2.5,2.336-5.59,3.668-8.141c3.88-7.434,14.041-10.574,21.751-11.647
				c9.375-1.305,18.155,5.969,23.606,13.019c6.106,7.896,8.31,18.434,10.123,27.994c1.396,7.355,1.849,14.729,3.279,21.936
				c1.155,5.832,2.172,13.454,1.736,19.379c-0.156-6.982-0.731-13.819-1.25-20.737c-0.693-9.26-0.211-18.969-2.284-28.046
				c-2.064-9.031-6.673-17.621-12.167-25.021c-2.591-3.489-9.359-9.088-13.844-9.032c1.355-5.956,12.914-5.083,17.057-3.963
				c17.148,4.636,29.678,17.786,48.21,18.506c9.183,0.357,20.36-4.018,28.756,0.661c2.505,1.395,4.54,3.621,6.93,5.197
				c1.974,1.302,6.534,3.549,6.185,6.504c-0.373,3.167-7.86,5.849-10.235,7.129c-4.774,2.571-8.929,5.98-13.318,9.13
				c-10.882,7.805-21.502,19.127-29.458,29.871c1.311-3.79,5.802-7.88,8.532-10.735c5.082-5.319,10.94-10.684,16.609-15.401
				C253.199,72.377,257.358,69.575,261.725,67.144z"/>
			<path fill="#E5AB05" d="M179.202,112.003c3.016,7.097,5.648,14.174,8.095,21.464c0.991,2.952,2.043,10.485,6.782,9.207
				c0.297-3.354-1.513-7.594-2.377-10.926c-1.889-7.291-2.492-14.826-2.73-22.386c-0.047,5.915,3.048,12.968,5.208,18.362
				c0.997,2.491,1.768,6.158,3.708,7.743c-0.021-3.596-0.681-7.266-0.541-10.921c3.192,1.541,6.065,5.707,9.736,3.364
				c3.182-2.031,5.214-8.304,6.735-11.586c-2.995,5.951-7.665,11.668-9.087,18.515c1.829,0.38,2.251-1.412,3.479-2.566
				c3.957-3.72,7.581-7.481,11.067-11.653c7.174-8.586,15.945-14.248,23.763-21.91c-2.855,3.628-6.665,6.389-10.015,9.535
				c-4.13,3.883-7.669,8.355-11.398,12.621c-4.124,4.718-7.376,10.221-11.594,14.828c8.792-4.682,15.965-14.463,23.737-20.854
				c5.376-4.418,12.491-9.952,19.073-12.32c-9.904,8.146-19.038,16.822-28.533,25.397c-4.923,4.448-10.439,7.472-15.711,11.392
				c-2.016,1.498-5.171,3.529-6.302,5.845c6.791-3.716,13.148-6.783,19.127-11.954c8.037-6.955,15.397-14.93,24.309-20.829
				c10.047-6.655,21.089-10.808,32.784-13.555c4.045-0.951,8.82-2.966,13.06-2.473c-4.397-1.781-13.562-0.405-18.309,0.268
				c-4.876,0.693-10.036,2.536-14.956,2.244c10.243-6.445,21.998-12.723,33.878-15.4c-12.767,5.014-26.218,8.287-38.909,13.581
				c-7.596,3.17-14.096,8.631-20.849,12.973c11.15-10.692,23.403-21.405,37.181-28.582c7.298-3.801,13.288-7.022,21.479-7.201
				c-14.16-0.191-28.671,7.567-40.139,15.071c-10.622,6.95-24.649,15.39-31.615,26.43c5.222-7.071,10.026-14.178,16.187-20.629
				c4.386-4.592,9.522-8.126,14.226-12.304c-9.274,6.942-16.947,15.236-25.51,22.938c-2.77,2.492-8.65,5.69-7.969-0.509
				c0.475-4.337,5.001-10.456,7.12-14.147c4.021-7.005,9.53-13.734,15.082-19.592c5.851-6.175,12.281-12.77,19.444-17.35
				c-10.778,3.976-20.939,15.825-27.738,24.649c-5.064,6.573-9.488,13.85-13.934,20.548c-0.136-2.926,1.254-5.678,2.392-8.346
				c2.366-5.547,3.947-11.271,5.697-17.034c2.307-7.591,4.123-16.193,7.03-23.388c-0.36,3.809-3.666,7.855-4.987,11.505
				c-2.336,6.451-4.586,12.748-6.52,19.326c-3.054,10.39-7.108,20.477-10.075,30.863c1.901-22.273,5.932-48.025-1.444-69.345
				c3.898,13.309,5.851,28.42,4.328,42.348c-0.536,4.899-1.64,9.931-2.796,14.711c-0.436,1.796-0.569,3.593-1.895,4.838
				c-1.573-21.804-2.275-43.009-10.614-63.54c2.085,6.503,4.908,12.638,6.38,19.502c2.169,10.109,1.99,20.637,1.102,30.881
				c-0.831,9.586-2.455,19.107-4.648,28.313c-0.402,0.017-0.772,0.032-1.176,0.017c-2.329-4.466-2.692-9.397-3.935-14.297
				c-2.345-9.245-4.472-19.206-9.058-27.668c2.763,9.242,6.504,20.079,5.924,29.828c-1.727-2.651-2.451-6.106-3.213-9.212
				c-1.581-6.461-4.019-11.82-7.12-17.698c-5.696-10.798-13.96-26.687-26.186-31.402c8.102,7.228,15.443,18.498,20.166,28.119
				c5.865,11.943,10.004,23.721,12.1,36.75c-7.448-13.536-14.33-28.642-23.855-41.001c-4.028-5.224-8.705-11.16-14.464-14.612
				c-1.881-1.128-7.25-4.317-9.202-3.29c3.646,1.528,6.169,3.951,8.693,6.813c-3.463,0.236-7.075-0.712-10.599-0.062
				c-2.91,0.536-5.756,2.232-8.539,3.13c4.918-1.878,11.277-1.935,16.354-0.617c4.106,1.065,8.471,5.068,11.466,8.016
				C168.276,83.33,173.443,98.449,179.202,112.003z"/>
		</g>
		<g>
			<g>
				<path fill="#00A33D" stroke="#000000" stroke-width="0.4421" d="M187.583,137.126c-0.506-0.519-0.977-1.02-1.313-1.515
					c-1.931-2.854-3.389-6.221-4.345-9.521c-2.96-10.21-3.524-22.985-2.475-33.549c1.066-10.719,3.653-22.158,10.511-30.759
					c1.111,1.672-1.442,5.244-2.319,7.148c-1.702,3.696-3.243,7.438-4.199,11.47c-2.436,10.27-2.826,22.032-1.303,32.395
					c1.295,8.801,2.479,16.916,10.522,22.156c-4.604-2.999-5.156-11.382-4.76-16.244c0.707-8.682,6.354-17.353,11.818-23.893
					c5.983-7.163,10.643-16.019,14.182-24.75c1.393-3.433,3.775-7.642,3.238-11.479c-0.463-3.317-3.464-6.573-1.546-10.119
					c2.693-4.979,3.57-0.209,5.528,0.583c2.008,0.814,4.121-2.042,6.377,0.132c3.739,3.603-3.316,11.114-4.771,14.341
					c-1.228,2.73-2.76,5.283-3.465,8.307c-1.645,7.063-1.653,15.068-0.522,22.229c1.262,7.996,3.26,15.571,2.678,23.802
					c-0.309,4.342-1.427,8.268-3.753,11.979c-1.895,3.02-4.814,5.113-6.87,7.94c4.068,2.256,9.59-4.888,11.978-7.327
					c5.447-5.566,8.212-12.051,10.397-19.537c2.35-8.031,1.655-15.819,2.422-23.893c0.399-4.216,1.444-13.869,5.682-16.168
					c-0.199,3.3-2.155,6.521-3.028,9.755c-1.464,5.415-1.622,11.754-1.869,17.374c-0.467,10.664-1.211,18.657-6.632,27.948
					c-3.114,5.338-9.642,13.82-15.246,16.404c-2.179,1.005-9.448,0.645-7.884,3.725c0.483,0.951,1.469,1.022,1.286,2.16
					c-0.271,1.692-3.418,1.88-3.779,3.459c-0.718,3.152,4.754,1.946,6.396,1.404c7.522-2.483,14.31-7.172,19.713-12.898
					c4.574-4.844,10.155-10.555,17.377-10.282c-6.204,2.022-9.604,6.308-13.441,11.275c-1.98,2.566-4.023,5.14-6.228,7.393
					c-4.79,4.895-11.842,5.97-17.78,8.854c-2.948,1.431-4.491,3.685-6.962,5.263c-1.771,1.129-4.765,1.25-5.327,3.656
					c-0.625,2.668,1.39,5.462,0.402,8.629c-1.457,4.664-2.423,9.493-4.162,14.066c-1.442,3.79-4.232,7.563-5.165,11.487
					c-0.433,1.821,0.678,5.479-1.445,5.832c-4.015,0.665-9.906-8.228-11.82-10.908c-5.104-7.149,0.823-12.361,2.954-19.621
					c0.842-2.866,0.979-5.778,2.53-8.426c1.348-2.3,4.834-2.578,5.638-4.319c1.306-2.829-6.343-10.393-7.741-12.757
					c-1.452-2.458-2.775-5.481-4.059-8.103c-2.562-5.237-2.371-12.025-3.836-17.643c-1.335-5.124-0.762-10.969-4.924-14.975
					c7.983,7.683,8.308,16.517,11.08,26.56c0.959,3.468,2.436,6.729,4.692,9.475c1.108,1.35,4.271,4.877,6.286,3.195
					c1.903-1.587-0.855-2.873-0.783-4.634c0.086-2.118,1.283-1.063,2.836-1.811C190.855,140.32,189.069,138.65,187.583,137.126z"/>
				<path fill="#FFFF00" stroke="#000000" stroke-width="0.4421" d="M198.428,57.573c0.962-2.69,3.184-9.777-1.336-9.249
					c-4.022,0.469-7.981,5.23-9.561,8.668c-0.679,1.477-1.687,4.103-0.89,5.59c0.723,1.352,2.402,1.851,3.41,0.621
					c-0.211,3.122,1.986,3.551,4.185,1.745C196.466,63.116,197.499,60.173,198.428,57.573z"/>
				<path fill="#FFFF00" stroke="#000000" stroke-width="0.4421" d="M244.63,71.441c0.672-3.327,1.144-13.935-5.064-9.738
					c-2.947,1.992-6.577,9.123-5.845,12.747c0.649,3.219,3.979,2.325,5.849,0.827c-0.2,1.765,1.083,2.804,2.483,2.114
					C243.783,76.538,244.302,73.07,244.63,71.441z"/>
				<path fill="none" stroke="#000000" stroke-width="0.4421" d="M218.107,52.563c1.498-1.39,3.031-3.125,5.002-2.643
					c1.704,0.416,2.371,2.452,3.838,2.938"/>
				<path fill="#16C14F" d="M191.095,148.39c-2.404,3.312-3.645,2.722-6.414,0.896c-1.608-1.059-4.53-4.84-4.784-0.901
					c-0.297,4.603,7.269,7.727,9.008,11.561c1.262,2.787,0.645,4.155-1.677,6.14c-4.869,4.164-11.723,14.399-9.686,21.161
					c1.197,3.975,6.293,6.405,9.949,4.151c4.632-2.856,7.786-12.678,8.658-17.712c0.639-3.672-3.376-8.113-0.13-11.225
					c1.528-1.465,5.106-1.996,7.04-3.188c2.592-1.599,4.948-3.446,7.959-4.225c2.99-0.775,6.303-1.148,8.242-3.707
					c-1.603-0.282-20.581,8.076-16.698,0.316c0.571-1.145,2.171-1.861,1.934-3.323c-0.283-1.745-2.484-1.328-1.436-3.314
					c1.015-1.923,4.058-2.941,6.012-3.415c0.559-0.135,5.651-1.991,5.183-2.132c-3.423-1.023-9.458,1.46-3.811-3.738
					c8.842-8.14,9.789-18.812,8.956-30.143c-0.361-4.87-1.616-9.729-2.518-14.493c-0.563-2.96-2.305-7.612-6.072-5.181
					c-3.425,2.21-6.445,5.46-9.188,8.457c-8.402,9.184-16.302,24.837-10.177,37.129c0.796,1.596,3.334,3.817,3.032,5.577
					c-1.376-0.195-7.174-2.309-6.868-4.214c-0.542,3.235,2.994,5.435,4.446,7.861C193.657,143.402,192.814,146.021,191.095,148.39z"/>
				<path fill="#07772D" d="M200.264,131.462c0.286-0.775,2.121-7.759,1.707-7.848c-0.082-0.017-0.163-0.034-0.243-0.05
					c0.036-0.448,0.034-0.921-0.293-1.141c-0.188,0.836-1.396,2.71-2.508,2.185c-1.207-0.573-0.529-3.497-0.149-4.37
					c0.678-1.564,3.663-4.59,4.249-1.409c0.313-1.279,0.799-2.473,1.07-3.783c0.161-0.787,0.54-1.723,0.116-2.375
					c-0.241-0.373-1.061,0.395-0.883-0.675c-0.546,0.75-1.043,2.969-2.367,2.508c-1.639-0.571-1.033-3.425-0.436-4.445
					c1.021-1.745,4.251-2.535,4.412,0.225c0.36-0.927,0.455-1.895,0.74-2.866c0.266-0.912,0.864-2.008,0.709-2.968
					c-0.143,0.141-0.424,0.227-0.573,0.371c0.409-2.247-0.958-0.552-1.72,0.053c-1.235,0.977-2.618,0.37-2.365-1.441
					c0.201-1.435,1.556-3.307,3.068-3.535c1.129-0.17,1.853,0.65,2.68,1.236c1.555-0.569,1.558-3.771,2.022-5.068
					c0.541-1.506,0.681-2.713,0.586-4.267c-0.088-1.458-0.324-1.185-1.473-0.317c-3.174,2.398-5.495,5.207-7.953,8.329
					c-2.405,3.059-4.591,6.293-6.032,9.926c-2.027,5.11-3.601,10.856-2.688,16.356c0.415,2.507,1.158,6.792,3.533,8.074
					C198.204,135.636,199.26,134.173,200.264,131.462z"/>
				<path fill="#07772D" d="M211.669,131.417c-1.394,1.628-7.113,5.958-7.903,1.434c-0.142-0.808-0.188-3.49,0.842-3.815
					c0.709-0.224,1.209,0.888,1.879,1.02c1.034,0.205,1.538-0.591,1.854-1.488c0.461-1.311,0.138-6.313-2.343-5.14
					c-0.121-1.671-0.164-4.859,0.978-6.129c0.481,0.828-0.135,2.091,0.507,2.914c0.913,1.173,1.875,0.286,2.358-0.753
					c0.462-0.989,0.289-5.56-1.779-4.575c0.112-1.375-0.402-4.991,1.568-5.281c0.388,0.903,0.393,3.072,1.944,2.053
					c0.994-0.653,1.126-3.358,0.854-4.4c-0.106-0.425-0.462-1.131-0.821-1.396c-0.795-0.584-1.514-0.241-1.844-1.446
					c-0.239-0.88,0.217-1.33,0.463-2.08c0.691-2.104,0.824-4.343,1.624-6.439c0.385-1.005,1.5-6.257,2.511-3.234
					c1.62,4.84,2.899,9.17,3.288,14.253c0.338,4.375,0.319,8.139-0.584,12.449c-0.346,1.645-0.678,3.377-1.324,4.938
					c-0.563,1.359-1.181,2.882-1.951,4.151C213.207,129.409,212.492,130.454,211.669,131.417z"/>
				<path fill="#FFBF00" stroke="#000000" stroke-width="0.4421" d="M242.346,73.548c0.931-2.364,1.248-5.976,1.105-8.607
					c-0.192-3.514-1.824-3.89-3.696-0.884c-1.395,2.242-3.155,6.065-2.468,8.774C237.981,75.572,241.161,76.573,242.346,73.548z"/>
				<path fill="#FFFF00" stroke="#000000" stroke-width="0.4421" d="M191.953,62.685c1.297-0.351,2.351-1.768,3.034-2.823
					c1.26-1.945,4.071-6.491,2.712-8.856c-1.439-2.503-4.648,0.874-5.67,2.081c-1.306,1.542-2.604,3.36-2.961,5.393
					C188.715,60.491,189.222,63.426,191.953,62.685z"/>
			</g>
			<circle fill="#FFFF00" stroke="#FF7F00" stroke-width="0.4421" cx="240.026" cy="67.925" r="0.552"/>
			<ellipse fill="#FFFF00" stroke="#FF7F00" stroke-width="0.4421" cx="242.291" cy="67.317" rx="0.498" ry="0.608"/>
			<circle fill="#FFFF00" stroke="#FF7F00" stroke-width="0.4421" cx="241.048" cy="65.576" r="0.607"/>
			<ellipse fill="#FFFF00" stroke="#FF7F00" stroke-width="0.4421" cx="241.241" cy="70.245" rx="0.552" ry="0.663"/>
			<ellipse fill="#FFFF00" stroke="#FF7F00" stroke-width="0.4421" cx="239.605" cy="71.433" rx="0.587" ry="0.525"/>
			<path fill="#FFFF00" stroke="#FF7F00" stroke-width="0.4421" d="M242.018,73.497c0,0.391-0.345,0.709-0.775,0.709
				c-0.428,0-0.773-0.318-0.773-0.709c0-0.392,0.346-0.709,0.773-0.709C241.673,72.788,242.018,73.105,242.018,73.497z"/>
			<circle fill="#FFFF00" stroke="#FF7F00" stroke-width="0.4421" cx="238.503" cy="69.981" r="0.562"/>
			<ellipse fill="#FFFF00" stroke="#FF7F00" stroke-width="0.4421" cx="242.167" cy="63.84" rx="0.511" ry="0.658"/>
			<ellipse fill="#FFFF00" stroke="#FF7F00" stroke-width="0.4421" cx="238.986" cy="73.947" rx="0.618" ry="0.608"/>
		</g>
		<g>
			<path d="M209.483,195.363c0.444-0.085,1.029-0.148,1.771-0.148c0.913,0,1.582,0.211,2.006,0.593
				c0.393,0.339,0.637,0.859,0.637,1.496c0,0.647-0.19,1.157-0.563,1.528c-0.487,0.52-1.283,0.785-2.185,0.785
				c-0.275,0-0.53-0.01-0.742-0.063v2.865h-0.923V195.363z M210.406,198.801c0.201,0.052,0.467,0.074,0.764,0.074
				c1.125,0,1.792-0.553,1.792-1.518c0-0.954-0.667-1.411-1.686-1.411c-0.403,0-0.711,0.042-0.87,0.074V198.801z"/>
			<path d="M215.359,200.01c0.023,1.263,0.817,1.783,1.752,1.783c0.667,0,1.081-0.118,1.421-0.255l0.172,0.658
				c-0.33,0.148-0.903,0.329-1.72,0.329c-1.57,0-2.525-1.051-2.525-2.589c0-1.56,0.924-2.78,2.418-2.78
				c1.677,0,2.113,1.475,2.113,2.419c0,0.19-0.013,0.34-0.033,0.446L215.359,200.01z M218.088,199.341
				c0.01-0.583-0.245-1.517-1.284-1.517c-0.957,0-1.359,0.87-1.433,1.517H218.088z"/>
			<path d="M224.58,194.886v6.206c0,0.457,0.011,0.976,0.042,1.327h-0.839l-0.042-0.892h-0.02c-0.288,0.573-0.903,1.008-1.74,1.008
				c-1.242,0-2.208-1.05-2.208-2.61c-0.011-1.718,1.061-2.758,2.302-2.758c0.796,0,1.327,0.371,1.549,0.774h0.023v-3.055H224.58z
				M223.647,199.374c0-0.127-0.013-0.276-0.044-0.403c-0.137-0.583-0.646-1.071-1.348-1.071c-0.965,0-1.538,0.849-1.538,1.973
				c0,1.051,0.52,1.91,1.518,1.91c0.625,0,1.198-0.424,1.368-1.114c0.031-0.127,0.044-0.254,0.044-0.402V199.374z"/>
			<path d="M226.574,196.339c-0.35,0-0.583-0.276-0.583-0.604c0-0.329,0.244-0.594,0.605-0.594c0.359,0,0.593,0.265,0.593,0.594
				c0,0.329-0.233,0.604-0.604,0.604H226.574z M226.129,202.418v-5.135h0.934v5.135H226.129z"/>
			<path d="M232.271,202.238c-0.243,0.117-0.785,0.297-1.474,0.297c-1.549,0-2.556-1.05-2.556-2.631s1.08-2.737,2.756-2.737
				c0.553,0,1.041,0.137,1.296,0.276l-0.212,0.71c-0.225-0.116-0.574-0.244-1.084-0.244c-1.177,0-1.813,0.88-1.813,1.952
				c0,1.188,0.764,1.919,1.783,1.919c0.528,0,0.879-0.127,1.145-0.243L232.271,202.238z"/>
			<path d="M233.83,200.01c0.022,1.263,0.818,1.783,1.751,1.783c0.67,0,1.082-0.118,1.422-0.255l0.17,0.658
				c-0.329,0.148-0.902,0.329-1.719,0.329c-1.569,0-2.525-1.051-2.525-2.589c0-1.56,0.924-2.78,2.419-2.78
				c1.677,0,2.112,1.475,2.112,2.419c0,0.19-0.011,0.34-0.031,0.446L233.83,200.01z M236.557,199.341
				c0.011-0.583-0.243-1.517-1.282-1.517c-0.955,0-1.358,0.87-1.433,1.517H236.557z"/>
			<path d="M238.616,194.886h0.932v7.532h-0.932V194.886z"/>
		</g>
		<g>
			<path d="M212.921,185.215l-0.741,2.25h-0.955l2.43-7.151h1.114l2.44,7.151h-0.986l-0.764-2.25H212.921z M215.266,184.495
				l-0.71-2.059c-0.148-0.467-0.255-0.891-0.359-1.305h-0.033c-0.095,0.414-0.213,0.859-0.35,1.294l-0.7,2.07H215.266z"/>
			<path d="M218.206,183.932c0-0.604-0.011-1.124-0.043-1.602h0.815l0.044,1.008h0.032c0.233-0.69,0.807-1.125,1.433-1.125
				c0.093,0,0.169,0.01,0.255,0.032v0.87c-0.106-0.011-0.202-0.021-0.33-0.021c-0.657,0-1.124,0.499-1.252,1.188
				c-0.021,0.138-0.032,0.286-0.032,0.445v2.737h-0.933L218.206,183.932z"/>
			<path d="M223.044,181.099v1.231h1.337v0.711h-1.337v2.769c0,0.637,0.18,0.998,0.699,0.998c0.255,0,0.404-0.021,0.542-0.064
				l0.042,0.711c-0.18,0.063-0.467,0.127-0.827,0.127c-0.435,0-0.785-0.149-1.008-0.393c-0.255-0.287-0.36-0.743-0.36-1.348v-2.8
				h-0.797v-0.711h0.797v-0.944L223.044,181.099z"/>
			<path d="M225.876,181.386c-0.35,0-0.583-0.276-0.583-0.604c0-0.329,0.243-0.594,0.604-0.594c0.36,0,0.594,0.265,0.594,0.594
				c0,0.329-0.233,0.604-0.604,0.604H225.876z M225.431,187.465v-5.135h0.934v5.135H225.431z"/>
			<path d="M231.572,187.285c-0.243,0.116-0.784,0.296-1.474,0.296c-1.549,0-2.557-1.05-2.557-2.63c0-1.582,1.081-2.738,2.757-2.738
				c0.552,0,1.041,0.138,1.296,0.276l-0.212,0.71c-0.225-0.117-0.574-0.244-1.084-0.244c-1.177,0-1.813,0.881-1.813,1.953
				c0,1.188,0.764,1.921,1.783,1.921c0.529,0,0.881-0.128,1.146-0.244L231.572,187.285z"/>
			<path d="M236.963,186.065c0,0.53,0.011,0.997,0.041,1.4h-0.825l-0.055-0.838h-0.021c-0.234,0.414-0.786,0.955-1.698,0.955
				c-0.806,0-1.771-0.456-1.771-2.249v-3.002h0.934v2.833c0,0.976,0.308,1.644,1.146,1.644c0.627,0,1.062-0.436,1.23-0.859
				c0.054-0.127,0.085-0.297,0.085-0.478v-3.14h0.935V186.065z"/>
			<path d="M238.513,179.932h0.933v7.533h-0.933V179.932z"/>
			<path d="M244.611,186.234c0,0.446,0.022,0.881,0.075,1.231h-0.839l-0.084-0.647h-0.033c-0.274,0.404-0.837,0.764-1.568,0.764
				c-1.041,0-1.571-0.732-1.571-1.475c0-1.241,1.104-1.92,3.088-1.91v-0.106c0-0.425-0.117-1.198-1.166-1.188
				c-0.489,0-0.988,0.138-1.349,0.382l-0.213-0.625c0.425-0.265,1.052-0.446,1.698-0.446c1.581,0,1.962,1.071,1.962,2.1V186.234z
				M243.699,184.845c-1.019-0.021-2.175,0.159-2.175,1.156c0,0.614,0.403,0.891,0.87,0.891c0.68,0,1.114-0.424,1.263-0.859
				c0.033-0.095,0.042-0.202,0.042-0.297V184.845z"/>
			<path d="M247.189,181.099v1.231h1.337v0.711h-1.337v2.769c0,0.637,0.18,0.998,0.699,0.998c0.254,0,0.404-0.021,0.542-0.064
				l0.042,0.711c-0.18,0.063-0.466,0.127-0.827,0.127c-0.435,0-0.785-0.149-1.008-0.393c-0.255-0.287-0.361-0.743-0.361-1.348v-2.8
				h-0.796v-0.711h0.796v-0.944L247.189,181.099z"/>
			<path d="M250.023,181.386c-0.352,0-0.584-0.276-0.584-0.604c0-0.329,0.244-0.594,0.605-0.594c0.359,0,0.593,0.265,0.593,0.594
				c0,0.329-0.233,0.604-0.604,0.604H250.023z M249.577,187.465v-5.135h0.933v5.135H249.577z"/>
			<path d="M254.149,187.582c-1.38,0-2.461-1.019-2.461-2.642c0-1.718,1.135-2.727,2.547-2.727c1.473,0,2.47,1.071,2.47,2.631
				c0,1.909-1.325,2.737-2.545,2.737H254.149z M254.182,186.881c0.892,0,1.56-0.838,1.56-2.005c0-0.87-0.437-1.962-1.538-1.962
				c-1.093,0-1.57,1.018-1.57,1.995c0,1.125,0.637,1.973,1.538,1.973H254.182z"/>
			<path d="M257.884,183.72c0-0.541-0.012-0.966-0.043-1.39h0.827l0.055,0.837h0.021c0.254-0.476,0.849-0.954,1.697-0.954
				c0.71,0,1.813,0.424,1.813,2.186v3.066h-0.933v-2.96c0-0.827-0.308-1.528-1.188-1.528c-0.605,0-1.082,0.435-1.252,0.955
				c-0.042,0.117-0.064,0.287-0.064,0.436v3.098h-0.933V183.72z"/>
		</g>
		<g>
			<path d="M94.463,118.63c0.414,0.265,1.007,0.467,1.644,0.467c0.944,0,1.496-0.488,1.496-1.22c0-0.658-0.382-1.05-1.348-1.41
				c-1.167-0.425-1.889-1.04-1.889-2.038c0-1.114,0.924-1.942,2.313-1.942c0.721,0,1.262,0.169,1.57,0.35l-0.255,0.754
				c-0.223-0.138-0.7-0.34-1.347-0.34c-0.976,0-1.348,0.583-1.348,1.072c0,0.668,0.435,0.998,1.422,1.379
				c1.209,0.477,1.814,1.05,1.814,2.1c0,1.104-0.806,2.069-2.494,2.069c-0.69,0-1.442-0.212-1.824-0.467L94.463,118.63z"/>
			<path d="M100.373,117.347c0.021,1.262,0.817,1.783,1.75,1.783c0.669,0,1.082-0.117,1.422-0.254l0.169,0.658
				c-0.329,0.148-0.901,0.329-1.719,0.329c-1.57,0-2.525-1.051-2.525-2.588c0-1.56,0.923-2.78,2.419-2.78
				c1.676,0,2.111,1.475,2.111,2.419c0,0.19-0.011,0.339-0.032,0.445L100.373,117.347z M103.098,116.678
				c0.011-0.583-0.244-1.517-1.283-1.517c-0.955,0-1.358,0.87-1.433,1.517H103.098z"/>
			<path d="M105.156,116.296c0-0.658-0.01-1.188-0.042-1.676h0.838l0.053,0.881h0.021c0.372-0.636,0.987-0.998,1.814-0.998
				c1.252,0,2.186,1.05,2.186,2.61c0,1.846-1.134,2.759-2.333,2.759c-0.69,0-1.272-0.297-1.581-0.807h-0.021v2.791h-0.935V116.296z
				M106.091,117.665c0,0.127,0.01,0.266,0.042,0.382c0.159,0.648,0.731,1.093,1.389,1.093c0.987,0,1.56-0.807,1.56-1.984
				c0-1.028-0.53-1.909-1.517-1.909c-0.636,0-1.241,0.445-1.421,1.146c-0.022,0.126-0.053,0.265-0.053,0.382V117.665z"/>
			<path d="M112.318,113.39v1.23h1.336v0.71h-1.336v2.77c0,0.636,0.181,0.997,0.7,0.997c0.254,0,0.403-0.021,0.542-0.064
				l0.042,0.712c-0.18,0.063-0.466,0.127-0.827,0.127c-0.435,0-0.785-0.149-1.008-0.393c-0.254-0.287-0.36-0.743-0.36-1.347v-2.801
				h-0.796v-0.71h0.796v-0.945L112.318,113.39z"/>
			<path d="M118.322,118.524c0,0.446,0.021,0.88,0.075,1.23h-0.839l-0.085-0.646h-0.032c-0.275,0.402-0.838,0.764-1.57,0.764
				c-1.04,0-1.57-0.732-1.57-1.475c0-1.242,1.103-1.921,3.087-1.91v-0.106c0-0.424-0.117-1.199-1.167-1.188
				c-0.488,0-0.986,0.137-1.348,0.382l-0.212-0.626c0.425-0.264,1.051-0.445,1.698-0.445c1.582,0,1.962,1.072,1.962,2.101V118.524z
				M117.41,117.134c-1.019-0.021-2.174,0.159-2.174,1.157c0,0.615,0.403,0.892,0.87,0.892c0.678,0,1.114-0.425,1.262-0.86
				c0.032-0.096,0.042-0.202,0.042-0.297V117.134z"/>
			<path d="M119.818,112.223h0.934v7.532h-0.934V112.223z"/>
			<path d="M124.942,119.872c-0.361,0-0.616-0.287-0.616-0.658c0-0.393,0.266-0.668,0.627-0.668c0.382,0,0.625,0.275,0.625,0.668
				c0,0.371-0.244,0.658-0.625,0.658H124.942z M124.953,116.127c-0.361,0-0.616-0.287-0.616-0.658c0-0.393,0.265-0.669,0.625-0.669
				c0.382,0,0.626,0.276,0.626,0.669c0,0.371-0.245,0.658-0.626,0.658H124.953z"/>
			<path d="M133.292,119.533c-0.329,0.169-1.019,0.339-1.889,0.339c-2.016,0-3.522-1.273-3.522-3.629
				c0-2.249,1.518-3.756,3.735-3.756c0.881,0,1.453,0.192,1.697,0.319l-0.233,0.752c-0.339-0.169-0.839-0.296-1.433-0.296
				c-1.676,0-2.79,1.07-2.79,2.949c0,1.761,1.008,2.875,2.737,2.875c0.573,0,1.146-0.117,1.517-0.298L133.292,119.533z"/>
			<path d="M137.97,118.524c0,0.446,0.021,0.88,0.074,1.23h-0.838l-0.085-0.646h-0.032c-0.275,0.402-0.838,0.764-1.57,0.764
				c-1.04,0-1.57-0.732-1.57-1.475c0-1.242,1.103-1.921,3.086-1.91v-0.106c0-0.424-0.116-1.199-1.167-1.188
				c-0.488,0-0.987,0.137-1.348,0.382l-0.211-0.626c0.424-0.264,1.049-0.445,1.697-0.445c1.581,0,1.963,1.072,1.963,2.101V118.524z
				M137.058,117.134c-1.019-0.021-2.176,0.159-2.176,1.157c0,0.615,0.404,0.892,0.87,0.892c0.679,0,1.114-0.425,1.263-0.86
				c0.032-0.096,0.043-0.202,0.043-0.297V117.134z"/>
			<path d="M139.466,112.223h0.934v7.532h-0.934V112.223z"/>
			<path d="M142.288,114.62l1.114,3.035c0.127,0.339,0.254,0.743,0.339,1.049h0.022c0.094-0.307,0.201-0.7,0.329-1.071l1.018-3.013
				h0.987l-1.401,3.66c-0.669,1.761-1.125,2.663-1.761,3.225c-0.466,0.393-0.912,0.552-1.146,0.595l-0.233-0.786
				c0.233-0.064,0.541-0.212,0.817-0.456c0.254-0.202,0.563-0.562,0.785-1.039c0.042-0.096,0.074-0.16,0.074-0.223
				c0-0.053-0.021-0.127-0.074-0.234l-1.888-4.742H142.288z"/>
			<path d="M147.379,114.62l0.733,1.093c0.19,0.298,0.35,0.552,0.519,0.838h0.032c0.169-0.296,0.34-0.563,0.519-0.838l0.712-1.093
				h1.018l-1.75,2.482l1.793,2.652h-1.061l-0.754-1.156c-0.202-0.298-0.371-0.583-0.551-0.892h-0.021
				c-0.17,0.308-0.35,0.583-0.542,0.892l-0.743,1.156h-1.029l1.825-2.621l-1.74-2.514H147.379z"/>
		</g>
		<g>
			<path d="M94.028,101.207c0.445-0.085,1.029-0.148,1.771-0.148c0.913,0,1.581,0.212,2.006,0.594
				c0.392,0.34,0.636,0.859,0.636,1.496c0,0.648-0.191,1.157-0.563,1.528c-0.488,0.52-1.284,0.785-2.186,0.785
				c-0.276,0-0.53-0.01-0.742-0.063v2.864h-0.923V101.207z M94.951,104.644c0.202,0.053,0.466,0.074,0.764,0.074
				c1.125,0,1.792-0.552,1.792-1.517c0-0.955-0.668-1.411-1.687-1.411c-0.403,0-0.711,0.042-0.87,0.074V104.644z"/>
			<path d="M99.905,105.854c0.021,1.262,0.817,1.782,1.75,1.782c0.669,0,1.083-0.117,1.421-0.254l0.17,0.658
				c-0.329,0.148-0.902,0.329-1.719,0.329c-1.57,0-2.525-1.051-2.525-2.588c0-1.56,0.923-2.78,2.419-2.78
				c1.675,0,2.111,1.475,2.111,2.419c0,0.19-0.01,0.339-0.031,0.445L99.905,105.854z M102.632,105.185
				c0.01-0.583-0.245-1.517-1.284-1.517c-0.955,0-1.357,0.87-1.432,1.517H102.632z"/>
			<path d="M105.814,101.896v1.231h1.337v0.711h-1.337v2.769c0,0.637,0.181,0.998,0.7,0.998c0.255,0,0.403-0.022,0.541-0.064
				l0.042,0.711c-0.18,0.063-0.467,0.127-0.828,0.127c-0.434,0-0.785-0.148-1.008-0.393c-0.254-0.286-0.361-0.742-0.361-1.348v-2.8
				h-0.795v-0.711h0.795v-0.944L105.814,101.896z"/>
			<path d="M111.82,107.031c0,0.445,0.021,0.88,0.074,1.231h-0.838l-0.085-0.648h-0.032c-0.275,0.404-0.838,0.764-1.57,0.764
				c-1.04,0-1.57-0.732-1.57-1.475c0-1.241,1.104-1.92,3.087-1.91v-0.105c0-0.425-0.117-1.199-1.167-1.189
				c-0.488,0-0.986,0.138-1.347,0.382l-0.212-0.625c0.424-0.266,1.05-0.445,1.697-0.445c1.581,0,1.963,1.071,1.963,2.1V107.031z
				M110.907,105.642c-1.019-0.021-2.174,0.159-2.174,1.156c0,0.615,0.403,0.892,0.87,0.892c0.678,0,1.114-0.425,1.262-0.86
				c0.032-0.095,0.042-0.202,0.042-0.297V105.642z"/>
			<path d="M113.316,100.73h0.934v7.532h-0.934V100.73z"/>
			<path d="M116.189,108.378c-0.359,0-0.614-0.286-0.614-0.658c0-0.393,0.265-0.668,0.626-0.668c0.382,0,0.625,0.275,0.625,0.668
				c0,0.372-0.244,0.658-0.625,0.658H116.189z M116.201,104.634c-0.361,0-0.616-0.287-0.616-0.658c0-0.394,0.265-0.669,0.626-0.669
				c0.382,0,0.625,0.275,0.625,0.669c0,0.371-0.244,0.658-0.625,0.658H116.201z"/>
			<path d="M123.011,108.04c-0.329,0.169-1.018,0.338-1.888,0.338c-2.016,0-3.522-1.272-3.522-3.628
				c0-2.249,1.517-3.756,3.734-3.756c0.881,0,1.454,0.191,1.698,0.318l-0.234,0.754c-0.339-0.17-0.838-0.298-1.432-0.298
				c-1.676,0-2.79,1.072-2.79,2.95c0,1.762,1.008,2.875,2.737,2.875c0.573,0,1.146-0.117,1.517-0.298L123.011,108.04z"/>
			<path d="M126.1,108.378c-1.38,0-2.462-1.018-2.462-2.642c0-1.718,1.135-2.726,2.546-2.726c1.475,0,2.472,1.071,2.472,2.631
				c0,1.91-1.326,2.737-2.546,2.737H126.1z M126.131,107.679c0.891,0,1.559-0.838,1.559-2.005c0-0.87-0.435-1.963-1.538-1.963
				c-1.093,0-1.57,1.019-1.57,1.995c0,1.125,0.637,1.974,1.539,1.974H126.131z"/>
			<path d="M129.844,104.729c0-0.604-0.01-1.125-0.042-1.602h0.817l0.042,1.007h0.032c0.233-0.689,0.806-1.124,1.432-1.124
				c0.096,0,0.17,0.01,0.254,0.031v0.87c-0.106-0.01-0.201-0.021-0.329-0.021c-0.658,0-1.125,0.499-1.252,1.188
				c-0.021,0.139-0.032,0.287-0.032,0.446v2.738h-0.934L129.844,104.729z"/>
			<path d="M135.329,108.378c-1.379,0-2.461-1.018-2.461-2.642c0-1.718,1.135-2.726,2.546-2.726c1.475,0,2.472,1.071,2.472,2.631
				c0,1.91-1.326,2.737-2.546,2.737H135.329z M135.361,107.679c0.891,0,1.559-0.838,1.559-2.005c0-0.87-0.435-1.963-1.538-1.963
				c-1.093,0-1.57,1.019-1.57,1.995c0,1.125,0.636,1.974,1.538,1.974H135.361z"/>
			<path d="M139.064,100.73h0.933v7.532h-0.933V100.73z"/>
			<path d="M141.546,100.73h0.934v7.532h-0.934V100.73z"/>
			<path d="M147.646,107.031c0,0.445,0.021,0.88,0.074,1.231h-0.838l-0.085-0.648h-0.032c-0.275,0.404-0.838,0.764-1.57,0.764
				c-1.04,0-1.57-0.732-1.57-1.475c0-1.241,1.104-1.92,3.087-1.91v-0.105c0-0.425-0.117-1.199-1.166-1.189
				c-0.488,0-0.988,0.138-1.348,0.382l-0.212-0.625c0.424-0.266,1.05-0.445,1.697-0.445c1.581,0,1.963,1.071,1.963,2.1V107.031z
				M146.734,105.642c-1.019-0.021-2.176,0.159-2.176,1.156c0,0.615,0.404,0.892,0.87,0.892c0.679,0,1.114-0.425,1.264-0.86
				c0.031-0.095,0.042-0.202,0.042-0.297V105.642z"/>
		</g>
		<g>
			<path fill="#FF0000" d="M91.2,91.283c0.445-0.084,1.029-0.148,1.771-0.148c0.912,0,1.581,0.212,2.005,0.594
				c0.393,0.339,0.636,0.859,0.636,1.496c0,0.647-0.191,1.157-0.563,1.528c-0.487,0.52-1.283,0.784-2.186,0.784
				c-0.276,0-0.53-0.01-0.742-0.063v2.865H91.2V91.283z M92.124,94.721c0.201,0.053,0.466,0.074,0.764,0.074
				c1.124,0,1.792-0.552,1.792-1.517c0-0.955-0.668-1.412-1.687-1.412c-0.403,0-0.711,0.042-0.869,0.075V94.721z"/>
			<path fill="#FF0000" d="M97.078,95.93c0.021,1.262,0.817,1.783,1.75,1.783c0.669,0,1.083-0.118,1.422-0.255l0.169,0.658
				c-0.329,0.148-0.902,0.329-1.718,0.329c-1.57,0-2.525-1.051-2.525-2.589c0-1.559,0.923-2.779,2.419-2.779
				c1.676,0,2.111,1.474,2.111,2.418c0,0.191-0.011,0.339-0.032,0.446L97.078,95.93z M99.804,95.261
				c0.011-0.583-0.244-1.517-1.283-1.517c-0.956,0-1.359,0.87-1.433,1.517H99.804z"/>
			<path fill="#FF0000" d="M101.873,94.805c0-0.604-0.01-1.124-0.042-1.602h0.817l0.042,1.008h0.032
				c0.233-0.689,0.806-1.124,1.432-1.124c0.096,0,0.17,0.01,0.255,0.032v0.87c-0.106-0.011-0.202-0.021-0.33-0.021
				c-0.658,0-1.125,0.498-1.252,1.187c-0.021,0.139-0.031,0.287-0.031,0.446v2.737h-0.933L101.873,94.805z"/>
			<path fill="#FF0000" d="M105.819,92.259c-0.35,0-0.584-0.276-0.584-0.604c0-0.33,0.244-0.594,0.605-0.594
				s0.595,0.265,0.595,0.594c0,0.329-0.234,0.604-0.605,0.604H105.819z M105.373,98.338v-5.135h0.935v5.135H105.373z"/>
			<path fill="#FF0000" d="M111.474,97.107c0,0.446,0.021,0.881,0.074,1.231h-0.838l-0.085-0.648h-0.032
				c-0.275,0.404-0.838,0.765-1.57,0.765c-1.04,0-1.57-0.732-1.57-1.475c0-1.241,1.103-1.92,3.087-1.91v-0.105
				c0-0.424-0.116-1.199-1.167-1.188c-0.488,0-0.986,0.138-1.347,0.382l-0.212-0.625c0.425-0.266,1.05-0.446,1.698-0.446
				c1.581,0,1.962,1.071,1.962,2.1V97.107z M110.562,95.717c-1.019-0.021-2.174,0.16-2.174,1.157c0,0.614,0.403,0.891,0.87,0.891
				c0.679,0,1.114-0.424,1.262-0.859c0.031-0.096,0.042-0.202,0.042-0.297V95.717z"/>
			<path fill="#FF0000" d="M112.97,94.593c0-0.541-0.011-0.966-0.043-1.39h0.828l0.053,0.838h0.021
				c0.255-0.477,0.849-0.954,1.697-0.954c0.711,0,1.814,0.424,1.814,2.186v3.066h-0.934v-2.96c0-0.828-0.308-1.527-1.188-1.527
				c-0.604,0-1.082,0.434-1.252,0.954c-0.042,0.117-0.063,0.287-0.063,0.436v3.098h-0.934V94.593z"/>
			<path fill="#FF0000" d="M119.939,91.973v1.23h1.337v0.711h-1.337v2.769c0,0.637,0.181,0.998,0.701,0.998
				c0.254,0,0.403-0.021,0.541-0.064l0.043,0.711c-0.18,0.064-0.467,0.128-0.828,0.128c-0.434,0-0.785-0.149-1.007-0.393
				c-0.254-0.287-0.361-0.743-0.361-1.348v-2.801h-0.795v-0.711h0.795v-0.944L119.939,91.973z"/>
			<path fill="#FF0000" d="M122.327,90.806h0.934v3.204h0.021c0.148-0.265,0.382-0.509,0.668-0.657
				c0.276-0.17,0.605-0.266,0.956-0.266c0.688,0,1.792,0.424,1.792,2.196v3.055h-0.934v-2.95c0-0.838-0.308-1.527-1.188-1.527
				c-0.604,0-1.072,0.424-1.252,0.934c-0.053,0.127-0.063,0.265-0.063,0.446v3.098h-0.934V90.806z"/>
		</g>
		<g>
			<path d="M224.944,163.294h3.854v0.775h-2.918v2.377h2.693v0.763h-2.693v3.236h-0.936V163.294z"/>
			<path d="M229.912,162.912h0.932v7.533h-0.932V162.912z"/>
			<path d="M234.482,170.562c-1.38,0-2.46-1.019-2.46-2.643c0-1.718,1.134-2.726,2.545-2.726c1.476,0,2.472,1.072,2.472,2.63
				c0,1.91-1.325,2.738-2.547,2.738H234.482z M234.516,169.861c0.891,0,1.559-0.838,1.559-2.005c0-0.87-0.435-1.963-1.538-1.963
				c-1.093,0-1.57,1.019-1.57,1.995c0,1.125,0.638,1.973,1.539,1.973H234.516z"/>
			<path d="M238.229,166.912c0-0.604-0.011-1.125-0.044-1.602h0.816l0.043,1.007h0.032c0.234-0.688,0.807-1.124,1.434-1.124
				c0.093,0,0.168,0.01,0.253,0.032v0.869c-0.104-0.01-0.2-0.021-0.328-0.021c-0.658,0-1.124,0.499-1.252,1.188
				c-0.021,0.139-0.033,0.287-0.033,0.446v2.737h-0.932L238.229,166.912z"/>
			<path d="M245.24,169.214c0,0.446,0.021,0.881,0.075,1.231h-0.839l-0.085-0.647h-0.033c-0.274,0.404-0.837,0.764-1.568,0.764
				c-1.04,0-1.571-0.732-1.571-1.474c0-1.242,1.104-1.921,3.088-1.91v-0.106c0-0.424-0.116-1.199-1.166-1.188
				c-0.489,0-0.988,0.137-1.349,0.382l-0.213-0.626c0.426-0.265,1.052-0.445,1.699-0.445c1.58,0,1.962,1.072,1.962,2.1V169.214z
				M244.327,167.824c-1.018-0.021-2.175,0.16-2.175,1.157c0,0.615,0.403,0.891,0.871,0.891c0.679,0,1.113-0.424,1.262-0.859
				c0.033-0.096,0.042-0.202,0.042-0.297V167.824z"/>
			<path d="M246.736,162.912h0.933v7.533h-0.933V162.912z"/>
			<path d="M255.085,169.214c0,0.446,0.023,0.881,0.075,1.231h-0.839l-0.084-0.647h-0.031c-0.276,0.404-0.838,0.764-1.57,0.764
				c-1.041,0-1.57-0.732-1.57-1.474c0-1.242,1.103-1.921,3.087-1.91v-0.106c0-0.424-0.117-1.199-1.167-1.188
				c-0.488,0-0.987,0.137-1.348,0.382l-0.213-0.626c0.426-0.265,1.052-0.445,1.698-0.445c1.581,0,1.962,1.072,1.962,2.1V169.214z
				M254.173,167.824c-1.019-0.021-2.175,0.16-2.175,1.157c0,0.615,0.403,0.891,0.87,0.891c0.68,0,1.114-0.424,1.264-0.859
				c0.032-0.096,0.041-0.202,0.041-0.297V167.824z"/>
			<path d="M257.017,165.31l0.731,1.093c0.19,0.297,0.352,0.552,0.521,0.838h0.031c0.171-0.297,0.34-0.563,0.521-0.838l0.711-1.093
				h1.019l-1.751,2.482l1.793,2.653h-1.061l-0.755-1.156c-0.201-0.298-0.37-0.583-0.552-0.892h-0.02
				c-0.17,0.308-0.351,0.583-0.542,0.892l-0.742,1.156h-1.029l1.824-2.621l-1.739-2.514H257.017z"/>
			<path d="M261.938,164.365c-0.35,0-0.583-0.276-0.583-0.604c0-0.329,0.244-0.594,0.605-0.594c0.36,0,0.594,0.265,0.594,0.594
				c0,0.329-0.233,0.604-0.605,0.604H261.938z M261.493,170.445v-5.135h0.933v5.135H261.493z"/>
			<path d="M263.849,169.5c0.285,0.169,0.773,0.361,1.241,0.361c0.669,0,0.985-0.329,0.985-0.764c0-0.446-0.265-0.69-0.943-0.944
				c-0.934-0.339-1.369-0.838-1.369-1.453c0-0.828,0.681-1.507,1.771-1.507c0.521,0,0.977,0.137,1.253,0.318l-0.224,0.668
				c-0.201-0.116-0.573-0.296-1.05-0.296c-0.553,0-0.849,0.318-0.849,0.7c0,0.435,0.296,0.626,0.965,0.88
				c0.881,0.329,1.349,0.775,1.349,1.55c0,0.912-0.711,1.549-1.909,1.549c-0.563,0-1.083-0.149-1.444-0.36L263.849,169.5z"/>
		</g>
		<g>
			<line fill="none" stroke="#FF0000" stroke-width="0.8841" x1="152.831" y1="117.988" x2="173.156" y2="126.188"/>
			
				<ellipse transform="matrix(-0.8887 0.4586 -0.4586 -0.8887 384.9169 158.7937)" fill="#BF0000" cx="173.18" cy="126.127" rx="1.01" ry="0.92"/>
		</g>
		<line fill="none" stroke="#FF0000" stroke-width="0.8841" x1="152.696" y1="106.075" x2="172.538" y2="103.629"/>
		
			<ellipse transform="matrix(0.2664 0.9639 -0.9639 0.2664 226.2416 -90.3842)" fill="#BF0000" cx="172.495" cy="103.427" rx="1.149" ry="0.956"/>
		<g>
			<line fill="none" stroke="#FF0000" stroke-width="0.8841" x1="205.435" y1="196.232" x2="187.755" y2="179.284"/>
			<ellipse fill="#BF0000" cx="187.753" cy="179.284" rx="1.01" ry="0.919"/>
		</g>
		<ellipse fill="#BF0000" cx="191.224" cy="145.915" rx="1.01" ry="0.92"/>
		<g>
			<line fill="none" stroke="#FF0000" stroke-width="0.8841" x1="192.468" y1="162.461" x2="209.807" y2="183.412"/>
			<ellipse fill="#BF0000" cx="192.468" cy="162.461" rx="1.01" ry="0.919"/>
		</g>
		<line fill="none" stroke="#FF0000" stroke-width="0.8841" x1="222.528" y1="164.545" x2="198.952" y2="140.97"/>
		
			<line fill="none" stroke="#CCFF00" stroke-width="0.4421" stroke-dasharray="0.8841" x1="194.109" y1="157.755" x2="202.057" y2="131.073"/>
		<ellipse fill="#BF0000" cx="198.952" cy="140.97" rx="1.01" ry="0.919"/>
		<g>
			<g>
				<path d="M127.889,184.68v-7.151h1.019l2.281,3.618c0.521,0.838,0.944,1.581,1.273,2.324l0.032-0.011
					c-0.085-0.955-0.106-1.825-0.106-2.928v-3.002h0.87v7.151h-0.934l-2.27-3.628c-0.5-0.796-0.976-1.614-1.326-2.387l-0.032,0.01
					c0.053,0.902,0.064,1.762,0.064,2.95v3.056H127.889z"/>
				<path d="M135.358,182.271c0.021,1.262,0.817,1.783,1.75,1.783c0.669,0,1.083-0.117,1.422-0.254l0.17,0.657
					c-0.329,0.148-0.902,0.329-1.719,0.329c-1.57,0-2.525-1.051-2.525-2.589c0-1.56,0.923-2.78,2.419-2.78
					c1.677,0,2.111,1.475,2.111,2.419c0,0.19-0.01,0.339-0.032,0.445L135.358,182.271z M138.084,181.603
					c0.011-0.583-0.244-1.517-1.284-1.517c-0.954,0-1.358,0.869-1.432,1.517H138.084z"/>
				<path d="M143.803,184.5c-0.244,0.116-0.785,0.296-1.475,0.296c-1.549,0-2.557-1.05-2.557-2.63c0-1.582,1.082-2.737,2.758-2.737
					c0.551,0,1.04,0.137,1.294,0.276l-0.212,0.71c-0.222-0.117-0.572-0.245-1.082-0.245c-1.178,0-1.814,0.882-1.814,1.953
					c0,1.188,0.764,1.92,1.782,1.92c0.53,0,0.882-0.128,1.146-0.244L143.803,184.5z"/>
				<path d="M146.157,178.314v1.23h1.338v0.711h-1.338v2.769c0,0.637,0.181,0.998,0.7,0.998c0.255,0,0.404-0.022,0.541-0.064
					l0.042,0.711c-0.18,0.063-0.466,0.127-0.828,0.127c-0.435,0-0.785-0.148-1.007-0.392c-0.255-0.287-0.361-0.743-0.361-1.348
					v-2.801h-0.796v-0.711h0.796V178.6L146.157,178.314z"/>
				<path d="M152.162,183.448c0,0.446,0.021,0.881,0.074,1.231h-0.838l-0.085-0.648h-0.031c-0.275,0.404-0.838,0.764-1.571,0.764
					c-1.039,0-1.57-0.732-1.57-1.475c0-1.241,1.104-1.92,3.087-1.909v-0.106c0-0.425-0.117-1.199-1.167-1.188
					c-0.488,0-0.987,0.138-1.348,0.381l-0.212-0.625c0.424-0.265,1.05-0.445,1.697-0.445c1.581,0,1.962,1.071,1.962,2.1V183.448z
					M151.25,182.059c-1.019-0.021-2.175,0.159-2.175,1.157c0,0.614,0.404,0.891,0.87,0.891c0.679,0,1.114-0.424,1.263-0.859
					c0.031-0.095,0.042-0.202,0.042-0.297V182.059z"/>
				<path d="M153.668,181.146c0-0.604-0.011-1.125-0.043-1.602h0.817l0.043,1.008h0.031c0.233-0.689,0.807-1.125,1.433-1.125
					c0.095,0,0.169,0.01,0.254,0.032v0.87c-0.106-0.01-0.202-0.021-0.329-0.021c-0.658,0-1.125,0.499-1.252,1.188
					c-0.021,0.138-0.031,0.287-0.031,0.446v2.737h-0.935L153.668,181.146z"/>
				<path d="M157.721,179.544l1.114,3.035c0.127,0.339,0.254,0.742,0.339,1.05h0.021c0.096-0.308,0.202-0.7,0.329-1.072l1.019-3.013
					h0.987l-1.4,3.66c-0.668,1.762-1.125,2.663-1.761,3.226c-0.467,0.392-0.912,0.551-1.146,0.594l-0.233-0.784
					c0.233-0.064,0.541-0.212,0.817-0.456c0.254-0.202,0.563-0.563,0.785-1.041c0.042-0.096,0.074-0.159,0.074-0.223
					c0-0.053-0.021-0.127-0.074-0.233l-1.889-4.742H157.721z"/>
			</g>
		</g>
		<line fill="none" stroke="#FF0000" stroke-width="0.8841" x1="166.042" y1="183.412" x2="191.225" y2="145.915"/>
		<g>
			<path fill="#00A33D" stroke="#000000" stroke-width="0.6376" d="M21.115,67.96c1.153,3.96,4.28,7.223,6.606,10.572
				c4.951,7.123,10.388,13.974,17.233,19.267c6.824,5.279,13.639,10.671,18.985,17.511c4.864,6.223,8.788,13.321,10.448,21.1
				c0.717,3.361-1.955,13.146,1.028,15.44c4.462,3.437,7.028-23.612,8.747-25.224c-0.207,0.194,2.23,7.175,2.341,8.165
				c0.38,3.393,0.064,5.998-0.944,9.308c-1.898,6.233-6.553,12.881-5.46,19.668c-4.54-1.423-5.264,1.999-7.498,4.786
				c-0.647,0.808-9.336,9.421-8.189,9.827c-2.043-0.722-3.163-2.748-3.276-5.012c-7.248-0.717-27.333,2.515-31.225-6.302
				c-3.081-6.983,4.213-1.801,6.357-0.599c5.149,2.885,14.306,4.938,19.663,1.224c-3.344-0.031-6.417-0.483-9.241-1.297
				c-24.22-6.983-30.072-40.571-30.601-62.4c-0.283-11.651-2.405-21.672-6.381-32.6"/>
			<path fill="#16C14F" d="M70.784,132.566c-1.746-7.57-5.69-14.288-11.458-19.41c-3.562-3.166-6.564-6.949-10.381-9.919
				c-4.378-3.41-8.379-7.279-12.774-10.667c-3.056-2.355-8.811-6.879-12.75-4.051c-5.281,3.793-4.379,13.716-4.284,19.403
				c0.132,7.956,1.25,15.921,3.136,23.647c3.934,16.104,16.019,35.324,35.591,30.025c5.047-1.367,9.454-4.543,11.714-9.652
				C72.38,145.612,72.336,139.295,70.784,132.566z"/>
			<path fill="#07772D" d="M37.901,153.668c2.988,2.524,6.914,6.029,11.091,6.056c3.271,0.021,7.192-2.766,6.277-6.377
				c-0.874-3.448-3.835-7.628-5.779-10.583c-0.009-0.029,0.014,0.625,0.042,0.842c-0.738-0.365-1.2-1.144-1.248-1.953
				c1.624,4.282-3.985,4.86-6.012,1.551c-0.901-1.469-1.331-5.81,0.441-6.906c1.114-0.69,2.691,0.354,3.676,0.834
				c-0.528-1.718-1.593-2.558-2.527-3.963c-0.58-0.873-2.426-3.913-2.248-4.939c-0.094,0.54-0.327,1.088-0.67,1.494
				c-0.476-0.56-0.683-1.359-0.894-2.136c0.322,2.025,0.308,3.67-2.045,4.104c-2.034,0.375-4.182-0.973-4.862-2.911
				c-0.782-2.229,0.354-5.351,2.718-6.1c1.407-0.447,2.504,0.354,3.833,0.784c0.074,0.089,0.067,0.096-0.017,0.016
				c-0.26-2.174-2.431-6.208-3.993-7.689c0.014,0.408-0.189,0.899-0.206,1.241c-0.419-0.617-0.655-1.349-0.733-2.094
				c1.516,5.04-5.866,2.967-6.796-0.892c-0.364-1.506,0.024-3.822,1.502-4.639c0.982-0.544,2.415-0.231,3.507-0.3
				c-0.318-2.54-2.277-5.457-3.464-7.713c-0.947-1.803-3.849-9.42-6.534-6.161c-2.185,2.651-0.868,8.506-0.619,11.587
				c0.227,2.8-0.067,5.656,0.043,8.504c0.223,5.808,0.867,11.602,2.744,17.13C27.768,140.234,31.54,148.293,37.901,153.668z"/>
			<path fill="#07772D" d="M45.567,104.309c-2.551-1.975-4.899-4.461-7.555-6.438c-1.793-1.334-3.385-2.916-5.165-4.267
				c-0.669-0.51-3.246-2.656-4.19-2.372c-1.659,0.496-0.398,3.537,0.133,4.642c0.864,1.792,1.562,3.703,2.692,5.355
				c0.893,1.306,2.454,2.013,3.202,3.355c-0.918-3.915,4.201-1.966,5.737-0.764c1.217,0.953,2.738,2.526,2.254,4.239
				c-0.693,2.448-3.948,2.131-5.196,0.355c0.087,0.292,0.013,0.607,0.063,0.871c-0.445,0.047-1.489-0.194-1.598-0.789
				c0.342,1.871,1.723,3.074,2.484,4.724c0.563,1.22,0.435,2.353,1.766,3.127c0.067-1.734,1.876-2.45,3.398-2.357
				c2.798,0.169,4.639,2.138,5.486,4.669c0.499,1.49,0.692,3.849-0.878,4.8c-1.787,1.082-3.864-1-3.951-2.757
				c0.765,1.402-0.516,2.639,0.214,4.306c0.464,1.059,1.855,4.108,3.067,4.429c1.189,0.314,2.707-1.178,3.99-1.293
				c3.021-0.271,5.409,2.167,5.568,5.097c0.221,4.03-5.804,5.481-5.535,1.166c-0.111,0.661,0.017,1.333,0.359,1.896
				c-0.117-0.089-0.576-0.244-0.757-0.393c-0.222,1.291,0.645,2.675,1.282,3.747c2.234,3.756,4.827,13.755,10.561,13.033
				c6.305-0.794,6.051-11.679,5.309-16.138c-2.18-13.104-12.605-24.409-22.716-32.221C45.584,104.324,45.575,104.316,45.567,104.309
				z"/>
		</g>
		<path d="M251.5,62.454c1.76,2.046,2.898,4.418,3.438,6.887c0.159,0.746,0.269,1.502,0.322,2.26
			c0.015,0.228,47.384,2.914,74.957,13.305l1.289-3.764l6.493,8.149c0,0-10.587,4.601-10.587,4.638c0,0.056,1.366-4.287,1.366-4.287
			c-20.016-8.189-73.487-16.407-73.501-16.15c-0.045,0.918-0.169,1.832-0.373,2.734c-0.73,3.228-2.472,6.265-5.182,8.597
			c-6.675,5.74-16.696,5.031-22.385-1.583c-5.691-6.614-4.895-16.63,1.778-22.37C235.789,55.13,245.81,55.839,251.5,62.454z
			M230.31,62.244c-5.765,4.958-6.419,13.651-1.461,19.415c4.962,5.764,13.653,6.417,19.418,1.459
			c5.765-4.959,6.418-13.652,1.46-19.416C244.767,57.937,236.075,57.283,230.31,62.244z"/>
		<path d="M196.831,136.229c-2.447-1.135-4.464-2.825-5.974-4.852c-0.456-0.613-0.865-1.257-1.227-1.925
			c-0.109-0.202-55.727,18.806-85.133,20.738l0.383,3.96l-9.28-4.739c0,0,7.742-8.565,7.726-8.598
			c-0.023-0.05,0.526,4.467,0.526,4.467c21.613-0.811,85.074-17.305,84.98-17.542c-0.339-0.855-0.603-1.74-0.789-2.645
			c-0.67-3.242-0.339-6.726,1.167-9.97c3.705-7.983,13.121-11.478,21.037-7.805c7.915,3.673,11.329,13.122,7.624,21.105
			C214.165,136.408,204.749,139.903,196.831,136.229z M216.219,127.667c3.198-6.898,0.202-15.085-6.693-18.284
			c-6.897-3.201-15.084-0.205-18.284,6.692c-3.202,6.898-0.204,15.083,6.691,18.284
			C204.831,137.561,213.018,134.565,216.219,127.667z"/>
		<g>
			<path d="M76.68,182.677c-1.9,0-3.215-1.464-3.215-3.628c0-2.271,1.401-3.756,3.311-3.756c1.962,0,3.225,1.497,3.225,3.618
				c0,2.451-1.496,3.767-3.31,3.767H76.68z M76.722,181.924c1.463,0,2.292-1.348,2.292-2.972c0-1.421-0.743-2.906-2.282-2.906
				c-1.538,0-2.302,1.432-2.302,2.981c0,1.506,0.828,2.897,2.281,2.897H76.722z"/>
			<path d="M81.687,177.425l1.008,2.875c0.169,0.479,0.308,0.902,0.413,1.326h0.032c0.117-0.424,0.265-0.848,0.435-1.326
				l0.998-2.875h0.976l-2.016,5.135h-0.892l-1.952-5.135H81.687z"/>
			<path d="M89.898,181.33c0,0.445,0.021,0.88,0.075,1.23h-0.839l-0.085-0.647h-0.032c-0.275,0.403-0.838,0.764-1.57,0.764
				c-1.04,0-1.57-0.732-1.57-1.475c0-1.241,1.104-1.92,3.087-1.91v-0.106c0-0.424-0.116-1.198-1.167-1.188
				c-0.488,0-0.986,0.138-1.347,0.382l-0.212-0.625c0.424-0.266,1.05-0.446,1.697-0.446c1.581,0,1.963,1.072,1.963,2.101V181.33z
				M88.986,179.94c-1.019-0.022-2.175,0.158-2.175,1.156c0,0.615,0.404,0.891,0.87,0.891c0.679,0,1.114-0.424,1.262-0.859
				c0.032-0.095,0.043-0.202,0.043-0.297V179.94z"/>
			<path d="M91.404,179.027c0-0.605-0.01-1.125-0.042-1.602h0.817l0.042,1.008h0.032c0.233-0.69,0.806-1.125,1.432-1.125
				c0.096,0,0.17,0.011,0.254,0.032v0.87c-0.106-0.011-0.202-0.021-0.329-0.021c-0.657,0-1.125,0.499-1.251,1.188
				c-0.021,0.137-0.031,0.286-0.031,0.445v2.738h-0.934L91.404,179.027z"/>
			<path d="M95.457,177.425l1.115,3.034c0.127,0.339,0.254,0.743,0.339,1.05h0.022c0.095-0.308,0.202-0.701,0.328-1.072l1.02-3.013
				h0.986l-1.4,3.661c-0.669,1.76-1.125,2.662-1.762,3.225c-0.466,0.393-0.912,0.552-1.146,0.594l-0.233-0.785
				c0.233-0.064,0.541-0.212,0.817-0.456c0.254-0.202,0.563-0.563,0.785-1.04c0.043-0.096,0.075-0.16,0.075-0.224
				c0-0.052-0.021-0.126-0.075-0.233l-1.888-4.742H95.457z"/>
		</g>
		<line fill="none" stroke="#FF0000" stroke-width="0.8841" x1="221.034" y1="58.123" x2="149.398" y2="24.709"/>
		<line fill="none" stroke="#FF0000" stroke-width="0.8841" x1="216.171" y1="74.352" x2="131.773" y2="32.313"/>
		<g>
			<path d="M113.219,22.138c0.415,0.265,1.007,0.467,1.644,0.467c0.944,0,1.496-0.489,1.496-1.221c0-0.658-0.382-1.05-1.348-1.411
				c-1.166-0.424-1.888-1.04-1.888-2.038c0-1.114,0.924-1.941,2.313-1.941c0.721,0,1.263,0.17,1.571,0.351l-0.256,0.752
				c-0.222-0.138-0.699-0.339-1.347-0.339c-0.976,0-1.348,0.583-1.348,1.071c0,0.668,0.435,0.998,1.422,1.379
				c1.209,0.478,1.813,1.05,1.813,2.1c0,1.104-0.806,2.069-2.493,2.069c-0.688,0-1.442-0.212-1.824-0.467L113.219,22.138z"/>
			<path d="M119.616,16.897v1.231h1.337v0.71h-1.337v2.77c0,0.636,0.18,0.998,0.701,0.998c0.253,0,0.403-0.022,0.541-0.064
				l0.042,0.711c-0.18,0.064-0.468,0.127-0.827,0.127c-0.435,0-0.786-0.148-1.007-0.393c-0.256-0.287-0.362-0.743-0.362-1.347
				v-2.801h-0.795v-0.71h0.795v-0.944L119.616,16.897z"/>
			<path d="M122.448,17.184c-0.349,0-0.583-0.276-0.583-0.605c0-0.329,0.244-0.594,0.605-0.594c0.36,0,0.594,0.265,0.594,0.594
				c0,0.33-0.234,0.605-0.605,0.605H122.448z M122.003,23.263v-5.135h0.934v5.135H122.003z"/>
			<path d="M128.878,22.51c0,1.188-0.244,1.899-0.732,2.355c-0.509,0.457-1.231,0.615-1.878,0.615c-0.615,0-1.293-0.148-1.707-0.424
				l0.232-0.721c0.341,0.223,0.869,0.413,1.507,0.413c0.955,0,1.654-0.498,1.654-1.804v-0.562h-0.02
				c-0.276,0.478-0.838,0.859-1.634,0.859c-1.273,0-2.185-1.083-2.185-2.515c0-1.739,1.135-2.716,2.322-2.716
				c0.892,0,1.369,0.456,1.603,0.881h0.021l0.032-0.764h0.828c-0.032,0.361-0.042,0.774-0.042,1.4V22.51z M127.944,20.144
				c0-0.149-0.01-0.286-0.053-0.414c-0.169-0.552-0.616-0.998-1.305-0.998c-0.893,0-1.527,0.753-1.527,1.952
				c0,0.998,0.52,1.846,1.517,1.846c0.584,0,1.102-0.36,1.294-0.964c0.053-0.149,0.074-0.33,0.074-0.5V20.144z"/>
			<path d="M130.416,19.518c0-0.542-0.021-0.966-0.042-1.39h0.816l0.043,0.828h0.03c0.289-0.488,0.765-0.944,1.625-0.944
				c0.689,0,1.221,0.424,1.442,1.029h0.021c0.16-0.296,0.372-0.508,0.583-0.668c0.308-0.234,0.637-0.361,1.125-0.361
				c0.69,0,1.698,0.445,1.698,2.228v3.024h-0.912v-2.907c0-0.997-0.372-1.581-1.114-1.581c-0.542,0-0.944,0.393-1.114,0.838
				c-0.043,0.138-0.075,0.308-0.075,0.467v3.183h-0.913v-3.077c0-0.828-0.36-1.411-1.07-1.411c-0.573,0-1.008,0.467-1.157,0.933
				c-0.052,0.139-0.075,0.298-0.075,0.457v3.098h-0.912V19.518z"/>
			<path d="M142.882,22.032c0,0.446,0.021,0.88,0.074,1.231h-0.838l-0.084-0.647h-0.032c-0.275,0.403-0.837,0.764-1.57,0.764
				c-1.041,0-1.57-0.732-1.57-1.475c0-1.24,1.102-1.92,3.086-1.91v-0.105c0-0.425-0.117-1.199-1.167-1.188
				c-0.488,0-0.988,0.138-1.348,0.382l-0.213-0.626c0.426-0.265,1.05-0.445,1.698-0.445c1.581,0,1.963,1.071,1.963,2.101V22.032z
				M141.97,20.642c-1.019-0.021-2.176,0.159-2.176,1.156c0,0.616,0.404,0.892,0.872,0.892c0.678,0,1.114-0.424,1.262-0.859
				c0.031-0.095,0.042-0.201,0.042-0.296V20.642z"/>
		</g>
		<g>
			<path d="M103.877,32.668c0.414,0.265,1.007,0.467,1.645,0.467c0.943,0,1.496-0.488,1.496-1.22c0-0.658-0.382-1.05-1.348-1.412
				c-1.168-0.424-1.889-1.039-1.889-2.037c0-1.114,0.922-1.941,2.313-1.941c0.722,0,1.262,0.17,1.57,0.351l-0.254,0.753
				c-0.222-0.138-0.699-0.34-1.348-0.34c-0.976,0-1.348,0.583-1.348,1.072c0,0.668,0.436,0.997,1.422,1.379
				c1.209,0.478,1.814,1.05,1.814,2.101c0,1.103-0.807,2.068-2.494,2.068c-0.69,0-1.442-0.211-1.825-0.466L103.877,32.668z"/>
			<path d="M110.273,27.427v1.231h1.338v0.71h-1.338v2.77c0,0.636,0.182,0.997,0.701,0.997c0.255,0,0.404-0.021,0.542-0.064
				l0.042,0.712c-0.179,0.063-0.466,0.126-0.826,0.126c-0.435,0-0.786-0.148-1.008-0.392c-0.254-0.287-0.361-0.743-0.361-1.348
				v-2.801h-0.794v-0.71h0.794v-0.945L110.273,27.427z"/>
			<path d="M113.097,28.658l1.114,3.034c0.128,0.338,0.255,0.742,0.339,1.049h0.023c0.095-0.307,0.202-0.7,0.328-1.072l1.019-3.012
				h0.986l-1.4,3.66c-0.669,1.761-1.125,2.663-1.762,3.225c-0.466,0.393-0.912,0.551-1.146,0.594l-0.234-0.785
				c0.234-0.064,0.542-0.212,0.818-0.456c0.254-0.202,0.562-0.563,0.785-1.04c0.042-0.096,0.073-0.159,0.073-0.224
				c0-0.053-0.02-0.127-0.073-0.233l-1.888-4.741H113.097z"/>
			<path d="M117.753,26.26h0.935v7.532h-0.935V26.26z"/>
			<path d="M120.766,31.384c0.022,1.262,0.817,1.783,1.75,1.783c0.669,0,1.082-0.117,1.421-0.254l0.169,0.658
				c-0.328,0.148-0.901,0.329-1.719,0.329c-1.568,0-2.524-1.051-2.524-2.588c0-1.56,0.923-2.78,2.418-2.78
				c1.677,0,2.113,1.475,2.113,2.419c0,0.19-0.011,0.339-0.032,0.446L120.766,31.384z M123.493,30.716
				c0.01-0.583-0.243-1.517-1.283-1.517c-0.954,0-1.358,0.87-1.433,1.517H123.493z"/>
		</g>
		<g>
			<path d="M79.652,38.138h3.852v0.774h-2.917v2.376h2.694v0.764h-2.694v3.235h-0.935V38.138z"/>
			<path d="M84.968,39.209c-0.35,0-0.583-0.276-0.583-0.605c0-0.329,0.243-0.594,0.605-0.594c0.36,0,0.593,0.265,0.593,0.594
				c0,0.329-0.233,0.605-0.605,0.605H84.968z M84.522,45.288v-5.134h0.933v5.134H84.522z"/>
			<path d="M87.005,37.756h0.933v7.532h-0.933V37.756z"/>
			<path d="M93.104,44.058c0,0.445,0.022,0.88,0.075,1.23h-0.838l-0.085-0.646h-0.032c-0.275,0.403-0.837,0.764-1.57,0.764
				c-1.04,0-1.57-0.732-1.57-1.475c0-1.241,1.103-1.921,3.087-1.91v-0.106c0-0.424-0.116-1.198-1.167-1.188
				c-0.489,0-0.987,0.138-1.348,0.382l-0.213-0.626c0.426-0.265,1.051-0.446,1.699-0.446c1.581,0,1.962,1.072,1.962,2.101V44.058z
				M92.192,42.668c-1.019-0.021-2.175,0.159-2.175,1.156c0,0.616,0.403,0.892,0.871,0.892c0.679,0,1.114-0.424,1.262-0.859
				c0.032-0.096,0.042-0.202,0.042-0.297V42.668z"/>
			<path d="M94.602,41.544c0-0.542-0.021-0.966-0.043-1.39h0.817l0.042,0.828h0.032c0.287-0.488,0.765-0.945,1.625-0.945
				c0.688,0,1.219,0.425,1.442,1.029h0.021c0.16-0.297,0.372-0.509,0.584-0.668c0.307-0.234,0.636-0.361,1.125-0.361
				c0.69,0,1.697,0.446,1.697,2.228v3.024h-0.912v-2.906c0-0.998-0.372-1.581-1.114-1.581c-0.542,0-0.945,0.393-1.114,0.838
				c-0.042,0.138-0.074,0.308-0.074,0.467v3.182h-0.913v-3.076c0-0.828-0.361-1.411-1.072-1.411c-0.573,0-1.008,0.467-1.157,0.933
				c-0.053,0.139-0.074,0.298-0.074,0.457v3.098h-0.912V41.544z"/>
			<path d="M103.979,42.88c0.022,1.262,0.818,1.783,1.751,1.783c0.669,0,1.082-0.116,1.422-0.254l0.169,0.658
				c-0.329,0.148-0.901,0.329-1.718,0.329c-1.57,0-2.526-1.05-2.526-2.588c0-1.56,0.924-2.78,2.419-2.78
				c1.677,0,2.112,1.475,2.112,2.419c0,0.191-0.012,0.339-0.032,0.446L103.979,42.88z M106.706,42.212
				c0.011-0.583-0.243-1.518-1.283-1.518c-0.956,0-1.359,0.87-1.433,1.518H106.706z"/>
			<path d="M108.764,41.544c0-0.542-0.011-0.966-0.043-1.39h0.827l0.054,0.838h0.021c0.254-0.477,0.848-0.955,1.697-0.955
				c0.711,0,1.814,0.425,1.814,2.186v3.066h-0.933v-2.959c0-0.827-0.308-1.528-1.189-1.528c-0.605,0-1.082,0.435-1.252,0.955
				c-0.042,0.117-0.063,0.286-0.063,0.435v3.098h-0.933V41.544z"/>
			<path d="M115.735,38.923v1.231h1.337v0.71h-1.337v2.77c0,0.636,0.179,0.997,0.7,0.997c0.255,0,0.403-0.021,0.542-0.063
				l0.042,0.711c-0.181,0.063-0.467,0.127-0.828,0.127c-0.435,0-0.786-0.149-1.008-0.394c-0.254-0.286-0.361-0.743-0.361-1.347
				v-2.801h-0.795v-0.71h0.795v-0.944L115.735,38.923z"/>
		</g>
		<g>
			<path d="M390.659,135.386l-0.744,2.25h-0.953l2.43-7.15h1.114l2.44,7.15h-0.987l-0.763-2.25H390.659z M393.003,134.666
				l-0.709-2.059c-0.15-0.467-0.256-0.891-0.361-1.305H391.9c-0.096,0.414-0.213,0.86-0.351,1.294l-0.699,2.069H393.003z"/>
			<path d="M395.933,133.891c0-0.541-0.012-0.965-0.045-1.39h0.828l0.055,0.838h0.021c0.255-0.477,0.849-0.955,1.698-0.955
				c0.71,0,1.814,0.424,1.814,2.186v3.066h-0.935v-2.959c0-0.828-0.307-1.528-1.189-1.528c-0.604,0-1.08,0.435-1.251,0.954
				c-0.041,0.118-0.064,0.287-0.064,0.436v3.098h-0.932V133.891z"/>
			<path d="M402.902,131.271v1.23h1.337v0.711h-1.337v2.769c0,0.637,0.181,0.998,0.7,0.998c0.254,0,0.403-0.021,0.541-0.064
				l0.042,0.711c-0.18,0.063-0.466,0.127-0.825,0.127c-0.437,0-0.787-0.149-1.01-0.393c-0.255-0.287-0.361-0.743-0.361-1.348v-2.801
				h-0.795V132.5h0.795v-0.944L402.902,131.271z"/>
			<path d="M405.289,130.104h0.934v3.204h0.022c0.146-0.266,0.38-0.51,0.667-0.659c0.277-0.17,0.604-0.265,0.954-0.265
				c0.69,0,1.794,0.424,1.794,2.196v3.056h-0.933v-2.95c0-0.838-0.308-1.528-1.189-1.528c-0.604,0-1.071,0.425-1.251,0.935
				c-0.053,0.127-0.064,0.265-0.064,0.445v3.098h-0.934V130.104z"/>
			<path d="M411.707,135.228c0.023,1.262,0.817,1.783,1.751,1.783c0.668,0,1.082-0.117,1.421-0.254l0.172,0.658
				c-0.329,0.148-0.902,0.329-1.72,0.329c-1.57,0-2.524-1.051-2.524-2.588c0-1.56,0.924-2.78,2.418-2.78
				c1.677,0,2.113,1.475,2.113,2.419c0,0.191-0.014,0.34-0.033,0.446L411.707,135.228z M414.435,134.559
				c0.011-0.583-0.244-1.517-1.284-1.517c-0.955,0-1.358,0.87-1.432,1.517H414.435z"/>
			<path d="M416.503,134.103c0-0.604-0.012-1.125-0.043-1.602h0.817l0.042,1.008h0.033c0.232-0.688,0.806-1.124,1.431-1.124
				c0.097,0,0.171,0.01,0.255,0.032v0.869c-0.106-0.01-0.201-0.021-0.329-0.021c-0.657,0-1.124,0.5-1.252,1.188
				c-0.021,0.139-0.031,0.287-0.031,0.446v2.737h-0.935L416.503,134.103z"/>
		</g>
		<path fill="#00A33D" stroke="#000000" stroke-width="0.4421" d="M317.864,173.966c-1.963-7.654,1.653-22.284,2.819-25.668
			c2.212-6.417,5.409-13.101,9.07-18.816c4.122-6.434,10.218-13.076,15.978-18.103c4.885-4.262,10.868-6.708,16.37-9.887
			c5.149-2.975,10.654-5.6,16.312-7.461c5.069-1.667,9.08,1.556,3.497,5.408c-3.897,2.691-8.3,4.339-12.588,6.189
			c-10.5,4.529-20.087,10.587-27.67,19.295c-8.186,9.398-13.7,21.119-15.534,33.457c-0.709,4.768-0.354,8.743,0.004,13.423"/>
		<path fill="#FFFF00" stroke="#000000" stroke-width="0.8841" d="M374.675,110.256c-0.035,0.161-0.08,0.32-0.133,0.479
			c-1.498,4.425-11.719,9.124-15.951,10.546c-6.555,2.206-18.508,3.773-18.115-6.441c0.173-4.524,4.36-9.438,7.872-11.937
			c3.15-2.243,7.063-4.806,10.572-6.289c3.957-1.671,5.871-0.107,9.103,2.533C370.806,101.423,375.597,106.136,374.675,110.256z"/>
		<linearGradient id="XMLID_19_" gradientUnits="userSpaceOnUse" x1="444.7676" y1="128.1968" x2="463.0388" y2="104.4735" gradientTransform="matrix(0.9628 0.2703 -0.2703 0.9628 -46.5876 -124.1503)">
			<stop offset="0" style="stop-color:#F2CA20"/>
			<stop offset="0.4479" style="stop-color:#F2C820"/>
			<stop offset="0.6092" style="stop-color:#F0C11F"/>
			<stop offset="0.7242" style="stop-color:#EEB61E"/>
			<stop offset="0.8171" style="stop-color:#EBA51C"/>
			<stop offset="0.8958" style="stop-color:#E78F19"/>
			<stop offset="0.927" style="stop-color:#E58418"/>
		</linearGradient>
		<path fill="url(#XMLID_19_)" stroke="#000000" stroke-width="0.221" d="M366.515,117.06c0.153-0.069,0.308-0.138,0.456-0.209
			c2.926-1.399,7.934-3.892,7.484-7.855c-0.316-2.799-2.62-6.174-4.694-8.021c-0.554-0.494-1.161-0.967-1.717-1.436
			c-1.77-1.488-5.359-4.776-7.901-2.904c-0.961,0.709-0.449,1.524-0.757,2.421c-0.375,1.101-1.815,1.637-2.64,2.361
			c-1.042,0.914-2.085,1.769-3.226,2.56c-2.302,1.593-4.797,3.042-6.524,5.302c-1.531,2.003-2.588,4.866-1.999,7.398
			c0.474,2.026,2.546,3.159,4.363,3.826c1.553,0.57,3.095,0.705,4.711,0.699C358.779,121.186,362.358,118.881,366.515,117.06z"/>
		<linearGradient id="XMLID_20_" gradientUnits="userSpaceOnUse" x1="448.4707" y1="113.4624" x2="459.8165" y2="121.5665" gradientTransform="matrix(0.9628 0.2703 -0.2703 0.9628 -46.5876 -124.1503)">
			<stop offset="0.0056" style="stop-color:#A6430E"/>
			<stop offset="0.3146" style="stop-color:#DD5913"/>
			<stop offset="1" style="stop-color:#F29620"/>
		</linearGradient>
		<path fill="url(#XMLID_20_)" stroke="#000000" stroke-width="0.221" d="M350.509,120.443c-1.324-0.131-2.559-0.6-3.595-1.584
			c-4.749-4.497,4.222-11.175,7.617-12.948c1.352-0.706,2.781-1.251,4.04-2.117c0.841-0.578,1.381-1.497,2.276-2.069
			c-0.467-0.884,0.353-2.026,1.166-2.344c2.229-0.871,4.243-0.019,5.81,1.644c1.151,1.223,2.48,2.529,3.176,4.088
			c0.451,1.016,0.214,2.109,0.323,3.165c0.391,3.746-1.629,4.112-4.257,6.053c-1.893,1.396-4.058,2.399-6.218,3.305
			C358.046,118.81,353.97,120.786,350.509,120.443z"/>
		<radialGradient id="XMLID_21_" cx="450.1934" cy="116.519" r="3.8683" gradientTransform="matrix(0.9628 0.2703 -0.2703 0.9628 -46.5876 -124.1503)" gradientUnits="userSpaceOnUse">
			<stop offset="0" style="stop-color:#F2CA20"/>
			<stop offset="0.0144" style="stop-color:#F2C71F"/>
			<stop offset="0.3516" style="stop-color:#F88E12"/>
			<stop offset="0.64" style="stop-color:#FC6308"/>
			<stop offset="0.8654" style="stop-color:#FE4A02"/>
			<stop offset="1" style="stop-color:#FF4000"/>
		</radialGradient>
		<path fill="url(#XMLID_21_)" stroke="#000000" stroke-width="0.1869" d="M358.517,111.627c-0.412,1.465-1.992,2.302-3.534,1.869
			c-1.54-0.431-2.454-1.97-2.043-3.436c0.41-1.466,1.993-2.304,3.534-1.872C358.012,108.622,358.929,110.161,358.517,111.627z"/>
		<radialGradient id="XMLID_22_" cx="451.7129" cy="119.019" r="3.8681" gradientTransform="matrix(0.9628 0.2703 -0.2703 0.9628 -46.5876 -124.1503)" gradientUnits="userSpaceOnUse">
			<stop offset="0" style="stop-color:#F2CA20"/>
			<stop offset="0.0144" style="stop-color:#F2C71F"/>
			<stop offset="0.3516" style="stop-color:#F88E12"/>
			<stop offset="0.64" style="stop-color:#FC6308"/>
			<stop offset="0.8654" style="stop-color:#FE4A02"/>
			<stop offset="1" style="stop-color:#FF4000"/>
		</radialGradient>
		<path fill="url(#XMLID_22_)" stroke="#000000" stroke-width="0.1869" d="M359.305,114.443c-0.412,1.465-1.995,2.303-3.535,1.87
			c-1.54-0.432-2.456-1.97-2.043-3.436c0.41-1.466,1.992-2.303,3.532-1.87C358.799,111.438,359.714,112.978,359.305,114.443z"/>
		<radialGradient id="XMLID_23_" cx="446.3936" cy="120.5327" r="3.8683" gradientTransform="matrix(0.9628 0.2703 -0.2703 0.9628 -46.5876 -124.1503)" gradientUnits="userSpaceOnUse">
			<stop offset="0" style="stop-color:#F2CA20"/>
			<stop offset="0.0144" style="stop-color:#F2C71F"/>
			<stop offset="0.3516" style="stop-color:#F88E12"/>
			<stop offset="0.64" style="stop-color:#FC6308"/>
			<stop offset="0.8654" style="stop-color:#FE4A02"/>
			<stop offset="1" style="stop-color:#FF4000"/>
		</radialGradient>
		<path fill="url(#XMLID_23_)" stroke="#000000" stroke-width="0.1869" d="M353.773,114.462c-0.41,1.466-1.993,2.304-3.534,1.872
			c-1.538-0.433-2.453-1.972-2.043-3.436c0.412-1.466,1.994-2.304,3.535-1.872C353.271,111.459,354.185,112.997,353.773,114.462z"/>
		<radialGradient id="XMLID_24_" cx="448.5654" cy="122.353" r="3.8676" gradientTransform="matrix(0.9628 0.2703 -0.2703 0.9628 -46.5876 -124.1503)" gradientUnits="userSpaceOnUse">
			<stop offset="0" style="stop-color:#F2CA20"/>
			<stop offset="0.0144" style="stop-color:#F2C71F"/>
			<stop offset="0.3516" style="stop-color:#F88E12"/>
			<stop offset="0.64" style="stop-color:#FC6308"/>
			<stop offset="0.8654" style="stop-color:#FE4A02"/>
			<stop offset="1" style="stop-color:#FF4000"/>
		</radialGradient>
		<path fill="url(#XMLID_24_)" stroke="#000000" stroke-width="0.1869" d="M355.372,116.801c-0.411,1.466-1.994,2.305-3.534,1.871
			c-1.539-0.432-2.455-1.97-2.043-3.436c0.412-1.466,1.993-2.304,3.535-1.871C354.869,113.798,355.783,115.336,355.372,116.801z"/>
		<radialGradient id="XMLID_25_" cx="454.5381" cy="110.8677" r="3.8681" gradientTransform="matrix(0.9628 0.2703 -0.2703 0.9628 -46.5876 -124.1503)" gradientUnits="userSpaceOnUse">
			<stop offset="0" style="stop-color:#F2CA20"/>
			<stop offset="0.0144" style="stop-color:#F2C71F"/>
			<stop offset="0.3516" style="stop-color:#F88E12"/>
			<stop offset="0.64" style="stop-color:#FC6308"/>
			<stop offset="0.8654" style="stop-color:#FE4A02"/>
			<stop offset="1" style="stop-color:#FF4000"/>
		</radialGradient>
		<path fill="url(#XMLID_25_)" stroke="#000000" stroke-width="0.1869" d="M364.228,107.357c-0.411,1.466-1.994,2.303-3.533,1.872
			c-1.54-0.433-2.455-1.971-2.044-3.436c0.412-1.466,1.994-2.304,3.534-1.871C363.725,104.354,364.639,105.893,364.228,107.357z"/>
		<radialGradient id="XMLID_26_" cx="455.1221" cy="115.0483" r="3.8683" gradientTransform="matrix(0.9628 0.2703 -0.2703 0.9628 -46.5876 -124.1503)" gradientUnits="userSpaceOnUse">
			<stop offset="0" style="stop-color:#F2CA20"/>
			<stop offset="0.0144" style="stop-color:#F2C71F"/>
			<stop offset="0.3516" style="stop-color:#F88E12"/>
			<stop offset="0.64" style="stop-color:#FC6308"/>
			<stop offset="0.8654" style="stop-color:#FE4A02"/>
			<stop offset="1" style="stop-color:#FF4000"/>
		</radialGradient>
		<path fill="url(#XMLID_26_)" stroke="#000000" stroke-width="0.1869" d="M363.66,111.542c-0.413,1.466-1.993,2.302-3.535,1.871
			c-1.54-0.433-2.454-1.971-2.043-3.436c0.412-1.465,1.995-2.303,3.533-1.872C363.156,108.538,364.071,110.076,363.66,111.542z"/>
		<radialGradient id="XMLID_27_" cx="461.8545" cy="110.8682" r="3.8683" gradientTransform="matrix(0.9628 0.2703 -0.2703 0.9628 -46.5876 -124.1503)" gradientUnits="userSpaceOnUse">
			<stop offset="0" style="stop-color:#F2CA20"/>
			<stop offset="0.0144" style="stop-color:#F2C71F"/>
			<stop offset="0.3516" style="stop-color:#F88E12"/>
			<stop offset="0.64" style="stop-color:#FC6308"/>
			<stop offset="0.8654" style="stop-color:#FE4A02"/>
			<stop offset="1" style="stop-color:#FF4000"/>
		</radialGradient>
		<path fill="url(#XMLID_27_)" stroke="#000000" stroke-width="0.1869" d="M371.272,109.335c-0.413,1.466-1.994,2.302-3.536,1.872
			c-1.539-0.433-2.454-1.972-2.043-3.438c0.412-1.466,1.993-2.302,3.532-1.87C370.768,106.33,371.682,107.87,371.272,109.335z"/>
		<radialGradient id="XMLID_28_" cx="460.2959" cy="104.8306" r="3.8678" gradientTransform="matrix(0.9628 0.2703 -0.2703 0.9628 -46.5876 -124.1503)" gradientUnits="userSpaceOnUse">
			<stop offset="0" style="stop-color:#F2CA20"/>
			<stop offset="0.0144" style="stop-color:#F2C71F"/>
			<stop offset="0.3516" style="stop-color:#F88E12"/>
			<stop offset="0.64" style="stop-color:#FC6308"/>
			<stop offset="0.8654" style="stop-color:#FE4A02"/>
			<stop offset="1" style="stop-color:#FF4000"/>
		</radialGradient>
		<path fill="url(#XMLID_28_)" stroke="#000000" stroke-width="0.1869" d="M371.402,103.103c-0.409,1.465-1.993,2.304-3.534,1.87
			c-1.537-0.432-2.453-1.971-2.043-3.437c0.412-1.464,1.994-2.304,3.534-1.871S371.813,101.637,371.402,103.103z"/>
		<radialGradient id="XMLID_29_" cx="481.9111" cy="102.5952" r="3.8676" gradientTransform="matrix(0.9628 0.2703 -0.2703 0.9628 -46.5876 -124.1503)" gradientUnits="userSpaceOnUse">
			<stop offset="0" style="stop-color:#F2CA20"/>
			<stop offset="0.0144" style="stop-color:#F2C71F"/>
			<stop offset="0.3516" style="stop-color:#F88E12"/>
			<stop offset="0.64" style="stop-color:#FC6308"/>
			<stop offset="0.8654" style="stop-color:#FE4A02"/>
			<stop offset="1" style="stop-color:#FF4000"/>
		</radialGradient>
		<path fill="url(#XMLID_29_)" stroke="#000000" stroke-width="0.1869" d="M392.817,106.793c-0.412,1.466-1.992,2.303-3.535,1.87
			c-1.539-0.432-2.453-1.97-2.041-3.436c0.41-1.465,1.993-2.302,3.532-1.871C392.313,103.788,393.228,105.328,392.817,106.793z"/>
		<radialGradient id="XMLID_30_" cx="476.5557" cy="112.2339" r="3.8688" gradientTransform="matrix(0.9628 0.2703 -0.2703 0.9628 -46.5876 -124.1503)" gradientUnits="userSpaceOnUse">
			<stop offset="0" style="stop-color:#F2CA20"/>
			<stop offset="0.0144" style="stop-color:#F2C71F"/>
			<stop offset="0.3516" style="stop-color:#F88E12"/>
			<stop offset="0.64" style="stop-color:#FC6308"/>
			<stop offset="0.8654" style="stop-color:#FE4A02"/>
			<stop offset="1" style="stop-color:#FF4000"/>
		</radialGradient>
		<path fill="url(#XMLID_30_)" stroke="#000000" stroke-width="0.1869" d="M385.058,114.625c-0.412,1.466-1.995,2.304-3.534,1.872
			c-1.54-0.433-2.455-1.97-2.044-3.436c0.411-1.466,1.994-2.303,3.534-1.872C384.554,111.622,385.47,113.161,385.058,114.625z"/>
		<radialGradient id="XMLID_31_" cx="467.6123" cy="107.0498" r="3.8683" gradientTransform="matrix(0.9628 0.2703 -0.2703 0.9628 -46.5876 -124.1503)" gradientUnits="userSpaceOnUse">
			<stop offset="0" style="stop-color:#F2CA20"/>
			<stop offset="0.0144" style="stop-color:#F2C71F"/>
			<stop offset="0.3516" style="stop-color:#F88E12"/>
			<stop offset="0.64" style="stop-color:#FC6308"/>
			<stop offset="0.8654" style="stop-color:#FE4A02"/>
			<stop offset="1" style="stop-color:#FF4000"/>
		</radialGradient>
		<path fill="url(#XMLID_31_)" stroke="#000000" stroke-width="0.1869" d="M377.848,107.217c-0.412,1.466-1.995,2.303-3.535,1.871
			c-1.539-0.433-2.453-1.971-2.042-3.436c0.412-1.466,1.994-2.304,3.533-1.872C377.345,104.213,378.259,105.751,377.848,107.217z"/>
		<radialGradient id="XMLID_32_" cx="459.3936" cy="114.2476" r="3.8683" gradientTransform="matrix(0.9628 0.2703 -0.2703 0.9628 -46.5876 -124.1503)" gradientUnits="userSpaceOnUse">
			<stop offset="0" style="stop-color:#F2CA20"/>
			<stop offset="0.0144" style="stop-color:#F2C71F"/>
			<stop offset="0.3516" style="stop-color:#F88E12"/>
			<stop offset="0.64" style="stop-color:#FC6308"/>
			<stop offset="0.8654" style="stop-color:#FE4A02"/>
			<stop offset="1" style="stop-color:#FF4000"/>
		</radialGradient>
		<path fill="url(#XMLID_32_)" stroke="#000000" stroke-width="0.1869" d="M367.989,111.926c-0.411,1.465-1.992,2.302-3.533,1.871
			c-1.541-0.432-2.455-1.971-2.045-3.437c0.412-1.466,1.995-2.303,3.535-1.871C367.487,108.921,368.4,110.46,367.989,111.926z"/>
		<radialGradient id="XMLID_33_" cx="454.8486" cy="118.668" r="3.8683" gradientTransform="matrix(0.9628 0.2703 -0.2703 0.9628 -46.5876 -124.1503)" gradientUnits="userSpaceOnUse">
			<stop offset="0" style="stop-color:#F2CA20"/>
			<stop offset="0.0144" style="stop-color:#F2C71F"/>
			<stop offset="0.3516" style="stop-color:#F88E12"/>
			<stop offset="0.64" style="stop-color:#FC6308"/>
			<stop offset="0.8654" style="stop-color:#FE4A02"/>
			<stop offset="1" style="stop-color:#FF4000"/>
		</radialGradient>
		<path fill="url(#XMLID_33_)" stroke="#000000" stroke-width="0.1869" d="M362.418,114.953c-0.41,1.465-1.992,2.303-3.532,1.871
			c-1.541-0.433-2.454-1.971-2.044-3.438c0.411-1.464,1.993-2.303,3.533-1.87C361.917,111.949,362.83,113.487,362.418,114.953z"/>
		<radialGradient id="XMLID_34_" cx="447.7188" cy="117.0371" r="3.8683" gradientTransform="matrix(0.9628 0.2703 -0.2703 0.9628 -46.5876 -124.1503)" gradientUnits="userSpaceOnUse">
			<stop offset="0" style="stop-color:#F2CA20"/>
			<stop offset="0.0144" style="stop-color:#F2C71F"/>
			<stop offset="0.3516" style="stop-color:#F88E12"/>
			<stop offset="0.64" style="stop-color:#FC6308"/>
			<stop offset="0.8654" style="stop-color:#FE4A02"/>
			<stop offset="1" style="stop-color:#FF4000"/>
		</radialGradient>
		<path fill="url(#XMLID_34_)" stroke="#000000" stroke-width="0.1869" d="M355.994,111.455c-0.412,1.466-1.995,2.304-3.535,1.871
			c-1.539-0.433-2.454-1.97-2.042-3.436c0.411-1.465,1.994-2.303,3.534-1.871C355.49,108.451,356.404,109.991,355.994,111.455z"/>
		<radialGradient id="XMLID_35_" cx="445.3662" cy="123.6655" r="3.8681" gradientTransform="matrix(0.9628 0.2703 -0.2703 0.9628 -46.5876 -124.1503)" gradientUnits="userSpaceOnUse">
			<stop offset="0" style="stop-color:#F2CA20"/>
			<stop offset="0.0144" style="stop-color:#F2C71F"/>
			<stop offset="0.3516" style="stop-color:#F88E12"/>
			<stop offset="0.64" style="stop-color:#FC6308"/>
			<stop offset="0.8654" style="stop-color:#FE4A02"/>
			<stop offset="1" style="stop-color:#FF4000"/>
		</radialGradient>
		<path fill="url(#XMLID_35_)" stroke="#000000" stroke-width="0.1869" d="M351.938,117.201c-0.412,1.466-1.994,2.302-3.534,1.87
			c-1.54-0.432-2.454-1.971-2.044-3.436c0.413-1.466,1.993-2.303,3.534-1.871C351.436,114.196,352.349,115.735,351.938,117.201z"/>
		<radialGradient id="XMLID_36_" cx="456.5313" cy="106.1177" r="3.8678" gradientTransform="matrix(0.9628 0.2703 -0.2703 0.9628 -46.5876 -124.1503)" gradientUnits="userSpaceOnUse">
			<stop offset="0" style="stop-color:#F2CA20"/>
			<stop offset="0.0144" style="stop-color:#F2C71F"/>
			<stop offset="0.3516" style="stop-color:#F88E12"/>
			<stop offset="0.64" style="stop-color:#FC6308"/>
			<stop offset="0.8654" style="stop-color:#FE4A02"/>
			<stop offset="1" style="stop-color:#FF4000"/>
		</radialGradient>
		<path fill="url(#XMLID_36_)" stroke="#000000" stroke-width="0.1869" d="M367.43,103.325c-0.412,1.464-1.993,2.302-3.532,1.87
			c-1.541-0.433-2.457-1.973-2.044-3.437c0.41-1.466,1.995-2.304,3.533-1.872C366.926,100.32,367.842,101.857,367.43,103.325z"/>
		<g>
			<path d="M344.67,147.509c-0.052-0.998-0.115-2.208-0.115-3.088h-0.022c-0.254,0.828-0.54,1.729-0.9,2.716l-1.263,3.469h-0.701
				l-1.167-3.406c-0.339-1.018-0.614-1.931-0.817-2.78h-0.021c-0.021,0.892-0.074,2.08-0.137,3.162l-0.191,3.066h-0.881l0.499-7.151
				h1.178l1.221,3.459c0.297,0.881,0.529,1.666,0.721,2.409h0.021c0.191-0.722,0.446-1.506,0.765-2.409l1.273-3.459h1.178
				l0.445,7.151h-0.912L344.67,147.509z"/>
			<path d="M347.726,144.57c-0.35,0-0.582-0.276-0.582-0.604c0-0.329,0.243-0.594,0.604-0.594c0.359,0,0.594,0.265,0.594,0.594
				c0,0.329-0.234,0.604-0.605,0.604H347.726z M347.281,150.649v-5.135h0.932v5.135H347.281z"/>
			<path d="M353.423,150.469c-0.242,0.116-0.785,0.296-1.474,0.296c-1.55,0-2.558-1.05-2.558-2.63c0-1.582,1.082-2.738,2.758-2.738
				c0.553,0,1.04,0.138,1.294,0.276l-0.212,0.71c-0.223-0.117-0.572-0.244-1.082-0.244c-1.177,0-1.813,0.882-1.813,1.953
				c0,1.189,0.764,1.92,1.782,1.92c0.529,0,0.88-0.128,1.146-0.244L353.423,150.469z"/>
			<path d="M354.527,147.116c0-0.604-0.012-1.125-0.044-1.602h0.817l0.043,1.007h0.031c0.234-0.689,0.808-1.124,1.433-1.124
				c0.095,0,0.17,0.01,0.254,0.032v0.87c-0.105-0.01-0.201-0.021-0.329-0.021c-0.658,0-1.123,0.499-1.251,1.188
				c-0.021,0.138-0.032,0.287-0.032,0.446v2.737h-0.934L354.527,147.116z"/>
			<path d="M360.012,150.766c-1.38,0-2.462-1.019-2.462-2.642c0-1.718,1.136-2.726,2.547-2.726c1.474,0,2.473,1.071,2.473,2.631
				c0,1.91-1.327,2.737-2.547,2.737H360.012z M360.043,150.065c0.893,0,1.561-0.838,1.561-2.004c0-0.87-0.437-1.963-1.538-1.963
				c-1.094,0-1.57,1.019-1.57,1.995c0,1.125,0.636,1.973,1.537,1.973H360.043z"/>
			<path d="M363.618,149.705c0.286,0.169,0.775,0.36,1.24,0.36c0.67,0,0.988-0.328,0.988-0.764c0-0.446-0.266-0.69-0.945-0.944
				c-0.933-0.339-1.369-0.838-1.369-1.454c0-0.827,0.681-1.506,1.773-1.506c0.519,0,0.975,0.138,1.252,0.318l-0.224,0.668
				c-0.202-0.117-0.574-0.297-1.05-0.297c-0.552,0-0.849,0.319-0.849,0.701c0,0.435,0.297,0.625,0.965,0.88
				c0.88,0.329,1.348,0.775,1.348,1.549c0,0.912-0.711,1.549-1.909,1.549c-0.563,0-1.082-0.148-1.444-0.36L363.618,149.705z"/>
			<path d="M367.946,147.191c0-0.658-0.01-1.188-0.043-1.677h0.839l0.054,0.88h0.021c0.372-0.637,0.986-0.997,1.813-0.997
				c1.252,0,2.188,1.05,2.188,2.61c0,1.846-1.137,2.758-2.336,2.758c-0.689,0-1.271-0.296-1.579-0.807h-0.022v2.79h-0.934V147.191z
				M368.88,148.559c0,0.127,0.011,0.265,0.043,0.382c0.158,0.647,0.731,1.093,1.39,1.093c0.986,0,1.56-0.807,1.56-1.984
				c0-1.028-0.53-1.91-1.518-1.91c-0.636,0-1.24,0.446-1.422,1.146c-0.02,0.127-0.053,0.266-0.053,0.382V148.559z"/>
			<path d="M376.084,150.766c-1.38,0-2.463-1.019-2.463-2.642c0-1.718,1.136-2.726,2.547-2.726c1.474,0,2.472,1.071,2.472,2.631
				c0,1.91-1.326,2.737-2.546,2.737H376.084z M376.114,150.065c0.893,0,1.561-0.838,1.561-2.004c0-0.87-0.437-1.963-1.539-1.963
				c-1.092,0-1.569,1.019-1.569,1.995c0,1.125,0.636,1.973,1.538,1.973H376.114z"/>
			<path d="M379.831,147.116c0-0.604-0.014-1.125-0.045-1.602h0.817l0.042,1.007h0.033c0.232-0.689,0.806-1.124,1.431-1.124
				c0.097,0,0.171,0.01,0.255,0.032v0.87c-0.106-0.01-0.201-0.021-0.329-0.021c-0.657,0-1.124,0.499-1.251,1.188
				c-0.021,0.138-0.032,0.287-0.032,0.446v2.737h-0.935L379.831,147.116z"/>
			<path d="M386.841,149.418c0,0.445,0.023,0.88,0.075,1.23h-0.839l-0.084-0.647h-0.031c-0.276,0.404-0.838,0.764-1.57,0.764
				c-1.041,0-1.569-0.732-1.569-1.475c0-1.241,1.101-1.92,3.085-1.91v-0.105c0-0.424-0.116-1.198-1.166-1.188
				c-0.488,0-0.987,0.138-1.348,0.382l-0.212-0.625c0.425-0.266,1.051-0.446,1.697-0.446c1.582,0,1.962,1.071,1.962,2.101V149.418z
				M385.929,148.029c-1.019-0.021-2.175,0.159-2.175,1.156c0,0.615,0.403,0.891,0.87,0.891c0.679,0,1.114-0.424,1.264-0.859
				c0.031-0.095,0.041-0.202,0.041-0.297V148.029z"/>
			<path d="M388.338,146.904c0-0.54-0.011-0.965-0.044-1.39h0.828l0.054,0.838h0.021c0.255-0.477,0.848-0.955,1.697-0.955
				c0.711,0,1.814,0.424,1.814,2.186v3.066h-0.934v-2.96c0-0.827-0.308-1.527-1.189-1.527c-0.605,0-1.083,0.434-1.251,0.955
				c-0.042,0.117-0.064,0.287-0.064,0.436v3.097h-0.933V146.904z"/>
			<path d="M398.616,149.896c0,1.188-0.242,1.899-0.731,2.355c-0.508,0.456-1.229,0.616-1.876,0.616
				c-0.616,0-1.296-0.149-1.71-0.424l0.233-0.722c0.341,0.223,0.87,0.414,1.507,0.414c0.955,0,1.655-0.5,1.655-1.804v-0.562h-0.021
				c-0.275,0.477-0.838,0.858-1.634,0.858c-1.272,0-2.185-1.082-2.185-2.514c0-1.74,1.135-2.716,2.322-2.716
				c0.893,0,1.369,0.456,1.602,0.881h0.022l0.032-0.764h0.827c-0.031,0.361-0.044,0.775-0.044,1.401V149.896z M397.685,147.53
				c0-0.149-0.012-0.286-0.055-0.414c-0.168-0.551-0.616-0.997-1.304-0.997c-0.891,0-1.526,0.753-1.526,1.952
				c0,0.997,0.519,1.846,1.515,1.846c0.584,0,1.103-0.36,1.296-0.965c0.053-0.148,0.074-0.329,0.074-0.499V147.53z"/>
			<path d="M400.601,144.57c-0.35,0-0.582-0.276-0.582-0.604c0-0.329,0.243-0.594,0.603-0.594c0.36,0,0.596,0.265,0.596,0.594
				c0,0.329-0.235,0.604-0.605,0.604H400.601z M400.156,150.649v-5.135h0.932v5.135H400.156z"/>
			<path d="M406.936,149.249c0,0.53,0.01,0.997,0.042,1.4h-0.827l-0.053-0.837h-0.021c-0.233,0.414-0.785,0.954-1.697,0.954
				c-0.808,0-1.772-0.456-1.772-2.249v-3.003h0.934v2.833c0,0.976,0.309,1.644,1.146,1.644c0.625,0,1.061-0.435,1.229-0.859
				c0.053-0.127,0.086-0.297,0.086-0.478v-3.14h0.934V149.249z"/>
			<path d="M408.482,146.904c0-0.54-0.02-0.965-0.042-1.39h0.817l0.042,0.827h0.032c0.286-0.488,0.765-0.944,1.624-0.944
				c0.688,0,1.22,0.424,1.441,1.029h0.021c0.16-0.297,0.372-0.509,0.583-0.669c0.31-0.232,0.638-0.36,1.125-0.36
				c0.69,0,1.698,0.446,1.698,2.228v3.024h-0.912v-2.907c0-0.997-0.372-1.58-1.114-1.58c-0.542,0-0.945,0.392-1.113,0.838
				c-0.042,0.138-0.074,0.308-0.074,0.466v3.183h-0.913v-3.076c0-0.828-0.361-1.411-1.072-1.411c-0.572,0-1.008,0.466-1.157,0.933
				c-0.052,0.138-0.074,0.297-0.074,0.457v3.097h-0.912V146.904z"/>
		</g>
		<line fill="none" stroke="#FF0000" stroke-width="0.8841" x1="348.737" y1="141.005" x2="355.936" y2="109.258"/>
		<line fill="none" stroke="#FF0000" stroke-width="0.8841" x1="122.907" y1="42.751" x2="183.698" y2="75.382"/>
		<ellipse transform="matrix(0.2664 0.9639 -0.9639 0.2664 207.3392 -121.3536)" fill="#BF0000" cx="183.392" cy="75.533" rx="1.149" ry="0.955"/>
		<g>
			<path d="M333.673,68.176c-0.313,0.161-0.969,0.322-1.792,0.322c-1.915,0-3.344-1.208-3.344-3.444
				c0-2.134,1.439-3.565,3.543-3.565c0.837,0,1.381,0.181,1.613,0.303l-0.224,0.714c-0.32-0.161-0.794-0.282-1.358-0.282
				c-1.592,0-2.648,1.017-2.648,2.8c0,1.672,0.958,2.73,2.599,2.73c0.543,0,1.088-0.11,1.439-0.282L333.673,68.176z"/>
			<path d="M336.603,68.498c-1.307,0-2.336-0.966-2.336-2.507c0-1.632,1.078-2.588,2.418-2.588c1.399,0,2.346,1.017,2.346,2.498
				c0,1.813-1.258,2.598-2.416,2.598H336.603z M336.633,67.833c0.847,0,1.481-0.796,1.481-1.904c0-0.825-0.412-1.863-1.46-1.863
				c-1.038,0-1.491,0.967-1.491,1.893c0,1.068,0.604,1.874,1.461,1.874H336.633z"/>
			<path d="M340.148,64.833c0-0.515-0.01-0.917-0.04-1.32h0.785l0.051,0.796h0.021c0.241-0.454,0.806-0.907,1.611-0.907
				c0.675,0,1.722,0.402,1.722,2.075v2.911h-0.887v-2.81c0-0.786-0.292-1.45-1.128-1.45c-0.573,0-1.027,0.413-1.188,0.906
				c-0.041,0.11-0.062,0.272-0.062,0.413v2.94h-0.886V64.833z"/>
			<path d="M345.739,64.833c0-0.515-0.01-0.917-0.041-1.32h0.785l0.051,0.796h0.021c0.241-0.454,0.806-0.907,1.611-0.907
				c0.675,0,1.722,0.402,1.722,2.075v2.911h-0.885v-2.81c0-0.786-0.293-1.45-1.129-1.45c-0.574,0-1.026,0.413-1.189,0.906
				c-0.039,0.11-0.06,0.272-0.06,0.413v2.94h-0.886V64.833z"/>
			<path d="M351.832,66.101c0.021,1.199,0.774,1.692,1.661,1.692c0.635,0,1.028-0.11,1.349-0.241l0.163,0.625
				c-0.313,0.141-0.856,0.313-1.633,0.313c-1.489,0-2.396-0.998-2.396-2.458c0-1.48,0.877-2.638,2.296-2.638
				c1.592,0,2.005,1.399,2.005,2.296c0,0.181-0.01,0.321-0.031,0.423L351.832,66.101z M354.42,65.467
				c0.011-0.554-0.232-1.44-1.219-1.44c-0.907,0-1.289,0.826-1.359,1.44H354.42z"/>
			<path d="M359.848,68.216c-0.231,0.111-0.744,0.282-1.399,0.282c-1.47,0-2.428-0.997-2.428-2.497s1.028-2.599,2.619-2.599
				c0.524,0,0.987,0.131,1.229,0.262l-0.201,0.675c-0.212-0.111-0.545-0.232-1.028-0.232c-1.117,0-1.724,0.836-1.724,1.853
				c0,1.128,0.727,1.824,1.694,1.824c0.503,0,0.837-0.122,1.087-0.232L359.848,68.216z"/>
			<path d="M362.084,62.344v1.168h1.27v0.675h-1.27v2.629c0,0.604,0.172,0.946,0.664,0.946c0.243,0,0.384-0.02,0.516-0.061
				l0.04,0.675c-0.172,0.061-0.444,0.12-0.786,0.12c-0.413,0-0.746-0.141-0.958-0.372c-0.24-0.272-0.342-0.706-0.342-1.28v-2.659
				h-0.756v-0.675h0.756v-0.896L362.084,62.344z"/>
			<path d="M364.773,62.616c-0.332,0-0.554-0.262-0.554-0.574s0.232-0.563,0.573-0.563c0.343,0,0.564,0.25,0.564,0.563
				s-0.222,0.574-0.575,0.574H364.773z M364.35,68.387v-4.875h0.888v4.875H364.35z"/>
			<path d="M367.051,63.512l0.957,2.729c0.16,0.454,0.291,0.856,0.392,1.259h0.03c0.111-0.403,0.251-0.806,0.414-1.259l0.946-2.729
				h0.926l-1.913,4.875h-0.847l-1.854-4.875H367.051z"/>
			<path d="M371.944,66.101c0.021,1.199,0.774,1.692,1.662,1.692c0.634,0,1.027-0.11,1.351-0.241l0.16,0.625
				c-0.313,0.141-0.854,0.313-1.633,0.313c-1.489,0-2.396-0.998-2.396-2.458c0-1.48,0.878-2.638,2.298-2.638
				c1.59,0,2.004,1.399,2.004,2.296c0,0.181-0.011,0.321-0.03,0.423L371.944,66.101z M374.532,65.467
				c0.011-0.554-0.23-1.44-1.217-1.44c-0.907,0-1.291,0.826-1.361,1.44H374.532z"/>
		</g>
		<line fill="none" stroke="#FF0000" stroke-width="0.8841" x1="350.835" y1="72.6" x2="376.486" y2="98.252"/>
		<ellipse transform="matrix(0.2667 0.9638 -0.9638 0.2667 370.7745 -290.8016)" fill="#BF0000" cx="376.486" cy="98.252" rx="1.15" ry="0.955"/>
		<path fill="none" stroke="#FF0000" stroke-width="0.8841" d="M354.193,132.612l3.775,3.777c0,0,5.668,3.987,9.653,0
			c3.986-3.986,11.961-9.443,11.961-9.443l9.442,2.728l-2.519-8.393l13.219-13.219c0,0,5.876-4.195,1.89-8.183
			c-3.988-3.987-6.296-6.295-6.296-6.295"/>
		<g>
			<path d="M49.892,85.406c-1.803,0-3.051-1.39-3.051-3.444c0-2.156,1.329-3.565,3.142-3.565c1.863,0,3.062,1.42,3.062,3.434
				c0,2.327-1.42,3.576-3.143,3.576H49.892z M49.932,84.691c1.391,0,2.176-1.279,2.176-2.819c0-1.351-0.705-2.761-2.166-2.761
				s-2.186,1.36-2.186,2.83c0,1.431,0.785,2.75,2.165,2.75H49.932z"/>
			<path d="M54.646,80.421l0.957,2.729c0.161,0.454,0.292,0.856,0.392,1.259h0.031c0.111-0.403,0.252-0.806,0.413-1.259l0.946-2.729
				h0.928l-1.914,4.875h-0.846l-1.854-4.875H54.646z"/>
			<path d="M63.227,83.966c0,0.503,0.01,0.946,0.04,1.33h-0.785L62.431,84.5h-0.02c-0.221,0.393-0.745,0.906-1.611,0.906
				c-0.765,0-1.682-0.433-1.682-2.135v-2.85h0.887v2.689c0,0.927,0.292,1.561,1.087,1.561c0.594,0,1.007-0.413,1.168-0.815
				c0.05-0.122,0.081-0.282,0.081-0.453v-2.981h0.886V83.966z"/>
			<path d="M64.697,78.146h0.887v7.15h-0.887V78.146z"/>
			<path d="M67.558,83.009c0.021,1.199,0.776,1.692,1.663,1.692c0.634,0,1.027-0.11,1.349-0.242l0.161,0.625
				c-0.312,0.141-0.856,0.313-1.632,0.313c-1.491,0-2.397-0.998-2.397-2.458c0-1.48,0.876-2.639,2.296-2.639
				c1.592,0,2.004,1.4,2.004,2.296c0,0.182-0.01,0.323-0.03,0.424L67.558,83.009z M70.146,82.375c0.009-0.554-0.232-1.44-1.219-1.44
				c-0.906,0-1.289,0.826-1.359,1.44H70.146z"/>
		</g>
		<polyline fill="none" stroke="#FF0000" stroke-width="0.8841" points="37.742,127.293 46.776,87.362 54.668,131.292 		"/>
		<path fill="#FFFFFF" d="M191.749,57.473"/>
		<g>
			<path d="M322.218,189.353c0.393,0.251,0.956,0.443,1.561,0.443c0.898,0,1.422-0.462,1.422-1.158c0-0.625-0.364-0.997-1.28-1.339
				c-1.107-0.402-1.794-0.987-1.794-1.934c0-1.057,0.879-1.843,2.196-1.843c0.687,0,1.2,0.161,1.491,0.333l-0.241,0.715
				c-0.212-0.131-0.665-0.323-1.279-0.323c-0.927,0-1.279,0.555-1.279,1.018c0,0.634,0.414,0.947,1.351,1.309
				c1.147,0.454,1.722,0.998,1.722,1.994c0,1.048-0.765,1.964-2.367,1.964c-0.654,0-1.369-0.201-1.732-0.443L322.218,189.353z"/>
			<path d="M328.291,184.377v1.168h1.269v0.675h-1.269v2.629c0,0.604,0.173,0.946,0.665,0.946c0.242,0,0.383-0.021,0.515-0.06
				l0.041,0.675c-0.173,0.06-0.444,0.12-0.788,0.12c-0.412,0-0.743-0.14-0.956-0.372c-0.241-0.272-0.342-0.706-0.342-1.279v-2.659
				h-0.754v-0.675h0.754v-0.897L328.291,184.377z"/>
			<path d="M333.991,189.251c0,0.423,0.021,0.836,0.072,1.169h-0.798l-0.079-0.614h-0.031c-0.261,0.382-0.795,0.724-1.489,0.724
				c-0.987,0-1.491-0.694-1.491-1.399c0-1.178,1.048-1.824,2.931-1.813v-0.101c0-0.403-0.11-1.138-1.108-1.128
				c-0.462,0-0.937,0.131-1.278,0.363l-0.202-0.594c0.403-0.252,0.997-0.424,1.612-0.424c1.501,0,1.862,1.018,1.862,1.995V189.251z
				M333.125,187.932c-0.966-0.02-2.064,0.151-2.064,1.098c0,0.584,0.383,0.845,0.826,0.845c0.645,0,1.058-0.402,1.198-0.815
				c0.031-0.091,0.04-0.192,0.04-0.282V187.932z"/>
			<path d="M335.412,186.865c0-0.514-0.02-0.917-0.039-1.319h0.774l0.041,0.785h0.031c0.27-0.463,0.724-0.896,1.538-0.896
				c0.655,0,1.16,0.403,1.372,0.978h0.019c0.152-0.282,0.354-0.483,0.556-0.635c0.292-0.221,0.604-0.342,1.066-0.342
				c0.654,0,1.611,0.424,1.611,2.116v2.87h-0.866v-2.76c0-0.946-0.352-1.501-1.058-1.501c-0.515,0-0.896,0.373-1.057,0.796
				c-0.041,0.131-0.071,0.292-0.071,0.443v3.021h-0.865v-2.92c0-0.786-0.343-1.34-1.017-1.34c-0.545,0-0.959,0.444-1.1,0.887
				c-0.05,0.131-0.069,0.282-0.069,0.433v2.941h-0.867V186.865z"/>
			<path d="M344.315,188.134c0.021,1.199,0.775,1.692,1.663,1.692c0.634,0,1.026-0.111,1.35-0.242l0.16,0.625
				c-0.313,0.14-0.854,0.312-1.632,0.312c-1.49,0-2.396-0.998-2.396-2.458c0-1.479,0.876-2.639,2.296-2.639
				c1.592,0,2.004,1.4,2.004,2.296c0,0.181-0.01,0.322-0.031,0.422L344.315,188.134z M346.903,187.5
				c0.012-0.554-0.231-1.44-1.217-1.44c-0.908,0-1.291,0.825-1.36,1.44H346.903z"/>
			<path d="M348.857,186.865c0-0.514-0.01-0.917-0.04-1.319h0.785l0.051,0.796h0.021c0.242-0.454,0.807-0.907,1.611-0.907
				c0.675,0,1.723,0.403,1.723,2.075v2.911h-0.887v-2.81c0-0.786-0.292-1.451-1.129-1.451c-0.572,0-1.027,0.413-1.188,0.906
				c-0.039,0.111-0.061,0.272-0.061,0.414v2.941h-0.887V186.865z"/>
		</g>
		<polyline fill="none" stroke="#FF0000" stroke-width="1.259" points="90.856,101.977 90.856,123.379 137.438,123.379 		"/>
		<g>
			<path d="M187.359,13.806c-0.051-0.946-0.11-2.095-0.11-2.931h-0.021c-0.241,0.786-0.513,1.642-0.855,2.579l-1.199,3.293h-0.664
				l-1.108-3.233c-0.322-0.966-0.584-1.833-0.775-2.638h-0.021c-0.021,0.846-0.07,1.974-0.131,3.001l-0.181,2.911h-0.836
				l0.473-6.789h1.118l1.158,3.284c0.282,0.836,0.504,1.581,0.685,2.286h0.021c0.182-0.685,0.423-1.43,0.726-2.286l1.209-3.284
				h1.117l0.423,6.789h-0.866L187.359,13.806z"/>
			<path d="M193.2,15.619c0,0.423,0.022,0.836,0.071,1.168h-0.795l-0.081-0.614h-0.03c-0.262,0.382-0.795,0.725-1.491,0.725
				c-0.986,0-1.49-0.694-1.49-1.4c0-1.178,1.048-1.823,2.931-1.813v-0.101c0-0.402-0.11-1.137-1.107-1.128
				c-0.463,0-0.937,0.131-1.279,0.363l-0.202-0.595c0.403-0.251,0.998-0.423,1.613-0.423c1.5,0,1.861,1.018,1.861,1.995V15.619z
				M192.335,14.299c-0.967-0.021-2.064,0.151-2.064,1.098c0,0.584,0.383,0.846,0.826,0.846c0.644,0,1.058-0.403,1.197-0.816
				c0.03-0.09,0.041-0.19,0.041-0.282V14.299z"/>
			<path d="M195.649,10.744v1.168h1.27v0.675h-1.27v2.628c0,0.604,0.171,0.947,0.664,0.947c0.242,0,0.384-0.02,0.515-0.061
				l0.039,0.675c-0.17,0.061-0.442,0.121-0.785,0.121c-0.413,0-0.745-0.142-0.957-0.373c-0.242-0.271-0.343-0.705-0.343-1.28v-2.658
				h-0.755v-0.675h0.755v-0.896L195.649,10.744z"/>
			<path d="M201.993,15.458c0,0.504,0.012,0.946,0.042,1.33h-0.787l-0.049-0.795h-0.021c-0.221,0.393-0.746,0.906-1.612,0.906
				c-0.765,0-1.683-0.433-1.683-2.135v-2.851h0.888v2.69c0,0.926,0.292,1.561,1.087,1.561c0.596,0,1.007-0.413,1.169-0.816
				c0.051-0.121,0.081-0.282,0.081-0.453v-2.981h0.885V15.458z"/>
			<path d="M203.476,13.433c0-0.574-0.011-1.067-0.041-1.521h0.775l0.041,0.958h0.029c0.222-0.655,0.766-1.068,1.359-1.068
				c0.092,0,0.163,0.01,0.242,0.031v0.826c-0.101-0.011-0.19-0.021-0.313-0.021c-0.624,0-1.067,0.474-1.188,1.128
				c-0.021,0.131-0.029,0.271-0.029,0.423v2.599h-0.887L203.476,13.433z"/>
			<path d="M207.201,14.501c0.02,1.198,0.775,1.691,1.663,1.691c0.633,0,1.027-0.11,1.35-0.242l0.159,0.625
				c-0.313,0.141-0.854,0.313-1.631,0.313c-1.491,0-2.397-0.997-2.397-2.458c0-1.481,0.876-2.639,2.298-2.639
				c1.591,0,2.005,1.4,2.005,2.296c0,0.182-0.011,0.322-0.032,0.423L207.201,14.501z M209.79,13.867
				c0.011-0.554-0.231-1.441-1.219-1.441c-0.906,0-1.29,0.826-1.361,1.441H209.79z"/>
			<path d="M213.899,9.999h3.656v0.735h-2.771v2.256h2.559v0.726h-2.559v3.072h-0.886V9.999z"/>
			<path d="M218.612,9.636h0.887v7.151h-0.887V9.636z"/>
			<path d="M222.954,16.898c-1.309,0-2.337-0.967-2.337-2.508c0-1.631,1.076-2.588,2.418-2.588c1.398,0,2.345,1.018,2.345,2.498
				c0,1.813-1.259,2.599-2.416,2.599H222.954z M222.983,16.234c0.847,0,1.48-0.796,1.48-1.904c0-0.826-0.413-1.863-1.459-1.863
				c-1.039,0-1.491,0.967-1.491,1.894c0,1.066,0.604,1.874,1.459,1.874H222.983z"/>
			<path d="M226.781,11.912l0.655,2.468c0.13,0.544,0.261,1.058,0.351,1.562h0.03c0.111-0.493,0.272-1.017,0.434-1.552l0.796-2.478
				h0.744l0.757,2.438c0.18,0.575,0.321,1.099,0.433,1.592h0.03c0.081-0.493,0.212-1.008,0.373-1.581l0.694-2.448h0.876l-1.57,4.875
				h-0.806l-0.746-2.327c-0.171-0.553-0.311-1.037-0.433-1.611h-0.021c-0.121,0.584-0.271,1.098-0.442,1.622l-0.786,2.316h-0.806
				l-1.47-4.875H226.781z"/>
			<path d="M234.255,14.501c0.019,1.198,0.775,1.691,1.662,1.691c0.634,0,1.028-0.11,1.35-0.242l0.16,0.625
				c-0.313,0.141-0.856,0.313-1.631,0.313c-1.491,0-2.397-0.997-2.397-2.458c0-1.481,0.875-2.639,2.297-2.639
				c1.592,0,2.003,1.4,2.003,2.296c0,0.182-0.009,0.322-0.029,0.423L234.255,14.501z M236.844,13.867
				c0.009-0.554-0.231-1.441-1.22-1.441c-0.905,0-1.289,0.826-1.36,1.441H236.844z"/>
			<path d="M238.806,13.433c0-0.574-0.01-1.067-0.038-1.521h0.773l0.042,0.958h0.029c0.222-0.655,0.765-1.068,1.359-1.068
				c0.092,0,0.162,0.01,0.242,0.031v0.826c-0.103-0.011-0.191-0.021-0.313-0.021c-0.625,0-1.066,0.474-1.188,1.128
				c-0.02,0.131-0.029,0.271-0.029,0.423v2.599h-0.888L238.806,13.433z"/>
		</g>
	</g>
</svg>
