<?xml version="1.0" encoding="utf-8"?>
<!-- Generator: Adobe Illustrator 13.0.0, SVG Export Plug-In . SVG Version: 6.00 Build 14948)  -->
<!DOCTYPE svg PUBLIC "-//W3C//DTD SVG 1.1//EN" "http://www.w3.org/Graphics/SVG/1.1/DTD/svg11.dtd">
<svg version="1.1" id="Layer_1" xmlns="http://www.w3.org/2000/svg" xmlns:xlink="http://www.w3.org/1999/xlink" x="0px" y="0px"
	 width="100%" height="100%" viewBox="0 0 372.25 272.75" style="enable-background:new 0 0 372.25 272.75;"
	 xml:space="preserve" preserveAspectRatio="xMinYMin" transform="scale(1) translate(0,0)">
<!--
<g>
	<path style="fill:none;stroke:#000000;stroke-width:0.5;" d="M326.67,32.85c0-4.42-7.16-8-16-8s-16,3.58-16,8
		c0,2.21,1.79,4.21,4.69,5.66l1.89-0.94c-2.41-1.21-3.91-2.87-3.91-4.71c0-3.68,5.97-6.67,13.33-6.67S324,29.17,324,32.85
		c0,1.84-1.49,3.51-3.91,4.71l1.89,0.94C324.88,37.06,326.67,35.06,326.67,32.85z"/>
	<polygon style="fill:none;stroke:#000000;stroke-width:0.5;" points="299.17,38.56 299.17,65.38 301.17,64.42 301.17,37.56 	"/>
	<polygon style="fill:none;stroke:#000000;stroke-width:0.5;" points="320.1,37.62 320.1,64.62 321.98,65.56 321.98,38.56 	"/>
</g>
-->
<g key="leaf" keyword="0006339">
	<g>
		<path style="fill:#FFF8C5;" d="M142.37,18.21c-3.38,4.12-6.48,8.48-10.12,12.39c-3.89,4.17-8.72,6.99-13.91,9.29
			c-9.39,4.17-19.65,6.94-30,5.96c-9.76-0.93-16.95-9.35-26.97-8.75c-5.56,0.33-8.56,2.96-13.13,5.44
			c-4.8,2.61-11.71,0.07-16.77-0.6C29.74,41.71,5.36,36.3,5.4,38.2c0.06,2.79,0.12,5.58,0.17,8.37c0.01,0.4-0.22,2.06,0.05,2.39
			c3.4,0.03,6.81,0.15,10.17,0.72c4.76,0.81,9.37,2.29,14.05,3.44c2.97,0.73,5.78,1.38,8.84,1.62c3.27,0.26,4.98-0.17,6.13,3.22
			c3.31,9.79,12.37,13.57,22.29,13.44c5.21-0.07,8.29-3.94,10.35-8.24c2.19-4.57,4.17-5.79,9.34-5.72
			c11.36,0.14,24.09-1.4,34.34-6.72c8.89-4.61,17-11.98,23.66-19.45c0.19-0.22,3.02-3.27,3.16-3.01c-0.6-1.07-1.19-2.15-1.79-3.22
			C144.91,22.77,143.64,20.49,142.37,18.21"/>
	</g>
	<g>
		<g>
			<path style="fill:#007F0F;" d="M136.08,5.87c-10.25,5.89-23.68,14.46-36.16,12.33c-5.78-0.98-10.11-5.9-15.85-7.36
				c-2.95-0.75-6.26-1-9.16,0.06c-2.48,0.91-4.63,2.53-7.18,3.27c-5.81,1.67-12.07,0.05-17.65-1.63c-6.34-1.9-10.79,2.71-15.19,6.63
				c-4.9,4.38-9.67,6.77-15.65,9.37c-2.6,1.13-4.94,2.73-7.51,3.93c-2.26,1.05-4.85,2.03-6.64,3.83c5.55-0.34,11.18,0.64,16.55,1.95
				c4.27,1.04,8.48,1.79,12.82,2.43c3.88,0.57,8,1.92,11.94,1.06c3.35-0.74,5.46-3.82,8.68-4.89c3.56-1.18,7.32-1.75,11.04-1.07
				c7.31,1.34,12.79,6.97,20.14,8.18c14.32,2.36,30.97-2.99,42.19-11.92c3.12-2.48,5.62-5.73,8.04-8.86c0.97-1.26,5.43-5.62,4.74-7
				C139.52,12.75,137.8,9.31,136.08,5.87"/>
		</g>
		<g>
			<path style="fill:none;stroke:#000000;stroke-width:0.5;" d="M5.65,36.31c4.48-0.9,10.29,0.59,14.65,1.62
				c6.89,1.63,13.84,3.02,20.87,3.88c2.89,0.36,5.74,0.27,8.22-1.41c2.84-1.91,5.03-3.54,8.47-4.33c6.49-1.49,12.15,0.43,17.81,3.56
				c5.45,3.02,10.22,4.76,16.55,4.82c5.83,0.05,11.71-0.86,17.25-2.68c6.35-2.09,12.65-4.97,18.03-8.97
				c5.74-4.26,9.55-10.6,14.03-16.05"/>
			<path keyword="0006339" style="fill:none;stroke:#000000;stroke-width:0.75;" d="M5.1,36.31c1.79-1.8,4.38-2.78,6.64-3.83
				c2.57-1.19,4.91-2.8,7.51-3.93c5.98-2.6,10.74-4.99,15.65-9.37c4.39-3.93,8.85-8.54,15.19-6.63c5.57,1.67,11.84,3.3,17.65,1.63
				c2.56-0.73,4.7-2.36,7.18-3.27c2.9-1.06,6.21-0.81,9.16-0.06c5.74,1.47,10.06,6.38,15.85,7.36c12.47,2.12,25.9-6.44,36.16-12.33"
				/>
		</g>
	</g>
	<g>
		<g>
			<path style="fill:#055F00;" d="M142.37,18.21c-4.13,5.03-7.81,10.63-12.73,14.95c-5.02,4.41-11.63,7.13-17.86,9.32
				c-11.49,4.05-24.31,5.56-35.24-0.64c-5.1-2.89-10.36-5.35-16.38-4.64c-3.41,0.41-6.58,1.43-9.32,3.52
				c-2.69,2.06-5.1,3.05-8.56,2.8c-6.95-0.49-14.12-2.05-20.88-3.69c-4.76-1.16-11.1-2.93-16.01-1.95c-0.43-3.4,9.41-1.06,11.47-0.7
				c7.2,1.26,14.35,2.89,21.56,4.19c2.91,0.52,6.23,1.13,9.08,0.03c2.8-1.08,4.7-3.61,7.58-4.56c6.46-2.14,12.39-1.44,18.4,1.62
				c5.53,2.82,9.93,5.48,16.3,5.89c6.15,0.4,12.54-0.38,18.43-2.2c6.79-2.09,13.55-5.12,19.27-9.37c5.74-4.26,9.55-10.6,14.03-16.05
				C141.78,17.19,142.22,17.71,142.37,18.21"/>
		</g>
		<path style="fill:none;stroke:#000000;stroke-width:0.5;" d="M5.65,36.31c4.48-0.9,10.29,0.59,14.65,1.62
			c6.89,1.63,13.84,3.02,20.87,3.88c2.89,0.36,5.74,0.27,8.22-1.41c2.84-1.91,5.03-3.54,8.47-4.33c6.49-1.49,12.15,0.43,17.81,3.56
			c5.45,3.02,10.22,4.76,16.55,4.82c5.83,0.05,11.71-0.86,17.25-2.68c6.35-2.09,12.65-4.97,18.03-8.97
			c5.74-4.26,9.55-10.6,14.03-16.05"/>
		<path style="fill:none;stroke:#000000;stroke-width:0.5;" d="M5.4,37.89c4.48-0.9,10.29,0.59,14.65,1.62
			c6.89,1.63,13.84,3.02,20.87,3.88c2.89,0.36,5.74,0.27,8.22-1.41c2.84-1.91,5.03-3.54,8.47-4.33c6.49-1.49,12.15,0.43,17.81,3.56
			c5.45,3.02,10.22,4.76,16.55,4.82c6.32,0.06,12.55-1.08,18.53-3.1c6.38-2.15,12.99-4.83,18.3-9.06
			c5.39-4.29,9.25-10.39,13.58-15.67"/>
	</g>
	<g>
		<path style="fill:none;stroke:#000000;stroke-width:0.5;" d="M98.04,22.18c-3.17-0.96-5.03-3.63-8.7-4.35"/>
		<path style="fill:none;stroke:#000000;stroke-width:0.5;" d="M96.95,25.98c-3.46-1.91-6.49-3.24-10.33-4.35"/>
		<path style="fill:none;stroke:#000000;stroke-width:0.5;" d="M94.23,28.15c-2.26-1.98-6.68-3.56-9.78-3.8"/>
		<path style="fill:none;stroke:#000000;stroke-width:0.5;" d="M92.6,30.33c-3-1.11-5.8-3.05-9.24-3.26"/>
		<path style="fill:none;stroke:#000000;stroke-width:0.5;" d="M90.43,33.04c-1.87-2.85-5.47-2.73-8.15-4.35"/>
		<path style="fill:none;stroke:#000000;stroke-width:0.5;" d="M85.54,40.11c-3.43-2.27-6.84-3.77-10.87-5.44"/>
		<path style="fill:none;stroke:#000000;stroke-width:0.5;" d="M86.62,37.94c-2.76-2.07-5.91-3.85-9.24-4.89"/>
		<path style="fill:none;stroke:#000000;stroke-width:0.5;" d="M88.8,35.22c-1.36-2.64-5.73-3.32-8.15-4.89"/>
	</g>
	<path style="fill:none;stroke:#000000;" d="M56.31,44.5c-1-2.61-5.23-2.36-6.1-3.21"/>
	<path style="fill:none;stroke:#000000;" d="M71.96,45.46c1.48-1.94,3.33-2.33,4.33-3.58"/>
	<path style="fill:none;stroke:#000000;" d="M72.94,52.96c3.81,1.12,5.24,3.15,7.19,5.5"/>
	<path style="fill:none;stroke:#000000;" d="M54,51.58c-2.12,1.56-7.62,3-9.71,4.54"/>
	<path style="fill:none;stroke:#000000;stroke-width:0.5;" d="M70.25,13.21c-2.62,1.5-6.5,6.5-9.5,6.62"/>
	<g>
		<path style="fill:#72BF00;stroke:#000000;stroke-width:0.25;" d="M53.62,46.96c0.08-4.58,21.61-6.73,19.43,2.4
			C71.72,54.94,53.54,51.79,53.62,46.96z"/>
		<path style="fill:#5F9AFF;stroke:#000000;stroke-width:0.25;" d="M73.05,49.36C72,53.4,59.81,53.71,53.81,48.15
			C50.88,57.77,75.94,60.46,73.05,49.36z"/>
	</g>
	<g>
		<g>
			<path style="fill:#095F00;" d="M148,28.33c-2.28,1.16-3.79,3.62-5.64,5.34c-2.63,2.45-5.19,4.96-7.84,7.38
				c-5.56,5.09-11.33,9.01-18.41,11.67c-8.04,3.03-16.7,4.47-25.24,4.68c-2.64,0.06-5.37-0.21-7.98,0.24
				c-3.26,0.56-4.12,2.78-5.42,5.5c-3.41,7.13-8.04,8.61-15.59,7.8c-6.35-0.68-12.33-3.44-15.5-9.15c-1.44-2.59-1.25-6.57-4.75-6.85
				c-4.47-0.36-8.59-1.02-12.94-2.14c-7.74-1.99-15.01-3.8-23.06-3.86c-0.35,1.85,1.09,1.36,2.41,1.39c2.12,0.04,4.22,0.28,6.3,0.63
				c2.61,0.56,5.13,1.46,7.77,1.98c3.29,0.66,6.44,1.71,9.7,2.46c3.03,0.69,6.07,0.36,9.12,0.85c3.17,0.51,3.51,6.17,5.48,8.75
				c2.53,3.33,5.73,5.08,9.68,6.17c7.73,2.12,15.09,3.43,20.75-3.32c2.32-2.77,2.03-7.69,6.17-8.71c3.39-0.84,7.44-0.24,10.95-0.38
				c6.4-0.26,12.37-1.68,18.5-3.38c7.1-1.97,14.3-5.5,19.92-10.34c3.08-2.66,6.04-5.47,8.98-8.27c2.6-2.48,5.15-6.16,8.49-7.69
				C149.25,28.86,148.62,28.47,148,28.33"/>
		</g>
		<g>
			<path keyword="0006339" style="fill:none;stroke:#000000;stroke-width:0.5;" d="M29.02,54.78c-3.49-1.41-7.58-1.79-10.87-2.72"/>
			<path keyword="0006339" style="fill:none;stroke:#000000;stroke-width:0.5;" d="M5.75,50.33c2.88,0,4.75,0,8.59,0.65"/>
			<path keyword="0006339" style="fill:none;stroke:#000000;stroke-width:0.5;" d="M32.5,55.58c2.29,0.84,5.09,0.35,7.49,0.57
				c4.1,0.38,3.21,3.57,4.98,6.7c3.43,6.05,8.98,8.1,15.46,9.34c6.46,1.23,11.08,1.29,15.85-3.71c2.26-2.37,2.23-6.35,4.78-8.4
				c2.82-2.27,7.26-0.73,10.54-1.21"/>
			<path keyword="0006339" style="fill:none;stroke:#000000;stroke-width:0.5;" d="M94.78,58.75c3.48,0.04,12.18-1.44,15.4-2.72"/>
			<path keyword="0006339" style="fill:none;stroke:#000000;stroke-width:0.5;" d="M112.71,55.33c4.14-1.29,8.69-2.85,12.5-5.43"/>
			<path keyword="0006339" style="fill:none;stroke:#000000;stroke-width:0.5;" d="M128,48.35c4.12-2.55,7.89-6.7,11.5-9.72"/>
			<path keyword="0006339" style="fill:none;stroke:#000000;stroke-width:0.5;" d="M140.6,37.49c2.89-2.59,6.87-7.3,9.23-8.38"/>
			<path style="fill:none;stroke:#000000;stroke-width:0.5;" d="M5.62,48.96c7.65,0.06,14.61,1.62,21.96,3.57
				c3.69,0.98,7.29,1.9,11.11,2.2c1.37,0.11,3.23-0.09,4.53,0.47c1.61,0.7,1.95,3.93,2.56,5.37c2.71,6.37,8.57,8.98,15.03,10.22
				c6.89,1.32,12.92,0.21,16.14-6.57c1-2.11,1.83-5.09,4.15-6.07c2.59-1.1,5.54-0.61,8.27-0.7c8.78-0.28,16.99-1.58,25.38-4.25
				c7-2.22,13.47-6.16,18.77-11.22c2.74-2.62,5.59-5.08,8.27-7.77c1.9-1.91,3.8-4.66,6.21-5.89"/>
		</g>
	</g>
	<g>
		<g>
			<g>
				<path style="fill:#72BF00;" d="M127.32,41.45c0.54-0.66,1.05-1.07,1.49-1.27c-0.76-1.26-2.66-1.85-3.92-0.3
					c-1.36,1.67-0.12,3.58,1.45,3.86C126.26,43.23,126.53,42.42,127.32,41.45z"/>
			</g>
			<g>
				<path style="fill:none;stroke:#000000;stroke-width:0.25;" d="M127.32,41.45c0.54-0.66,1.05-1.07,1.49-1.27
					c-0.76-1.26-2.66-1.85-3.92-0.3c-1.36,1.67-0.12,3.58,1.45,3.86C126.26,43.23,126.53,42.42,127.32,41.45z"/>
			</g>
		</g>
		<g>
			<g>
				<path style="fill:#5F9AFF;" d="M127.32,41.45c-0.79,0.97-1.05,1.77-0.98,2.29c0.75,0.14,1.56-0.09,2.21-0.88
					c0.75-0.93,0.71-1.92,0.26-2.68C128.37,40.39,127.85,40.79,127.32,41.45z"/>
			</g>
			<g>
				<path style="fill:none;stroke:#000000;stroke-width:0.25;" d="M127.32,41.45c-0.79,0.97-1.05,1.77-0.98,2.29
					c0.75,0.14,1.56-0.09,2.21-0.88c0.75-0.93,0.71-1.92,0.26-2.68C128.37,40.39,127.85,40.79,127.32,41.45z"/>
			</g>
		</g>
	</g>
	<g>
		<g>
			<g>
				<path style="fill:#72BF00;" d="M139.14,32.55c-0.14,0.8-1.16,0.72-2.13-0.82c-0.31-0.5-0.48-0.92-0.55-1.28
					c-1.17,0.18-1.93,1.6-0.83,3.35C137.27,36.38,140.01,34.96,139.14,32.55z"/>
			</g>
			<g>
				<path style="fill:none;stroke:#000000;stroke-width:0.25;" d="M139.14,32.55c-0.14,0.8-1.16,0.72-2.13-0.82
					c-0.31-0.5-0.48-0.92-0.55-1.28c-1.17,0.18-1.93,1.6-0.83,3.35C137.27,36.38,140.01,34.96,139.14,32.55z"/>
			</g>
		</g>
		<g>
			<g>
				<path style="fill:#5F9AFF;" d="M139.14,32.55c-0.09-0.24-0.2-0.49-0.36-0.75c-0.7-1.1-1.59-1.47-2.32-1.35
					c0.07,0.35,0.24,0.78,0.55,1.28C137.98,33.27,138.99,33.35,139.14,32.55z"/>
			</g>
			<g>
				<path style="fill:none;stroke:#000000;stroke-width:0.25;" d="M139.14,32.55c-0.09-0.24-0.2-0.49-0.36-0.75
					c-0.7-1.1-1.59-1.47-2.32-1.35c0.07,0.35,0.24,0.78,0.55,1.28C137.98,33.27,138.99,33.35,139.14,32.55z"/>
			</g>
		</g>
	</g>
</g>
<g key="stem" keyword="0009047">
	<g>
		<path style="fill:#FFF8C5;stroke:#000000;stroke-width:0.25;" d="M247.96,30.96c0-12.89-17.09-23.33-38.17-23.33
			s-38.17,10.45-38.17,23.33c0,6.21,3.98,11.86,10.46,16.04l6.69-3.88c-1.96-1.38-3.08-3.68-1.27-5.77c0.54-0.41,1.21-0.7,1.93-0.91
			c3.71-1.11,9.08,0.03,9.08,0.03c-0.12,0.4-0.26,0.82-0.39,1.25l11.66-6.75l10.34,5.97c1.41,0.01,9.24,0.43,12.04,2.53
			c1.19,0.89,1.47,2.09-0.04,3.68c-0.16,0.17-0.33,0.29-0.51,0.42l5.91,3.41C243.99,42.79,247.96,37.16,247.96,30.96z"/>
		<polygon style="fill:#FFF8C5;stroke:#000000;stroke-width:0.25;" points="182.04,47.03 182.04,84.99 188.79,81.05 188.79,43.12 		
			"/>
		<polygon style="fill:#FFF8C5;stroke:#000000;stroke-width:0.25;" points="209.79,30.96 198.12,37.72 198.12,75.6 209.79,68.79 		
			"/>
		<polygon style="fill:#FFF8C5;stroke:#000000;stroke-width:0.25;" points="209.79,30.96 209.79,68.79 220.12,74.66 220.12,36.92 		
			"/>
		<polygon style="fill:#FFF8C5;stroke:#000000;stroke-width:0.25;" points="231.62,43.55 231.62,81.19 237.46,84.5 237.46,46.92 		
			"/>
	</g>
	<g>
		<g>
			<path keyword="0009047" style="fill:#007F0F;stroke:#000000;stroke-width:0.25;" d="M238.73,47.66c6.45-4.39,10.39-10.26,10.39-16.7l0,37.5
				c0,6.5-3.85,12.42-10.17,16.89"/>
		</g>
		<g>
			<path keyword="0009047" style="fill:#007F0F;stroke:#000000;stroke-width:0.25;" d="M180.9,47.69c-6.48-4.4-10.43-10.26-10.43-16.72l-0.01,37.82
				l0,0c0,6.57,4.06,12.35,10.5,16.83"/>
		</g>
	</g>
	<g>
		<g>
			<path style="fill:#72BF00;stroke:#000000;stroke-width:0.25;" d="M196.07,28.56c0.63-1.53,0.6-6.2-1.94-8.61
				c-0.54-0.37-1.07-0.65-1.61-0.89c-3.82,1.29-6.7,4.08-7.6,7.48C187.99,29.04,194.18,29.04,196.07,28.56z"/>
			<path style="fill:#72BF00;stroke:#000000;stroke-width:0.25;" d="M209.71,15.46c-2.44,0-4.62-0.78-6.13-2.02
				c-0.04,0.06-0.09,0.12-0.12,0.19c-1.59,3.23,5.03,7.23,5.72,7.61c3.14,0.01,9.64-3.99,6.95-8.05
				C214.62,14.57,212.31,15.46,209.71,15.46z"/>
			<path style="fill:#72BF00;stroke:#000000;stroke-width:0.25;" d="M232.61,22.14c-3.85,0.58-8.48,4.81-8.48,4.81
				c1.5,0.49,5.47,1.53,8.68,1.62C232.15,26.56,232.16,24.24,232.61,22.14z"/>
			<g>
				<path style="fill:#72BF00;stroke:#000000;stroke-width:0.25;" d="M189.44,36.43c1.23,0.94,2.6,2.62,3.31,3.35
					c0.22,0.22,0.41,0.46,0.59,0.7l4.78-2.77c0.14-0.43,0.27-0.85,0.39-1.25C198.52,36.46,193.15,35.33,189.44,36.43z"/>
				<polygon style="fill:#72BF00;stroke:#000000;stroke-width:0.25;" points="193.46,40.42 193.46,78.33 198.12,75.6 198.12,37.72 
									"/>
			</g>
			<g>
				<path style="fill:#72BF00;stroke:#000000;stroke-width:0.25;" d="M232.17,39.45c-2.8-2.1-10.63-2.51-12.04-2.53l9.08,5.24
					C230.61,41.5,231.82,40.61,232.17,39.45z"/>
				<polygon style="fill:#72BF00;stroke:#000000;stroke-width:0.25;" points="220.12,36.92 220.12,74.66 229.29,79.86 229.29,42.21 
									"/>
			</g>
		</g>
		<g>
			<path style="fill:#5F9AFF;stroke:#000000;stroke-width:0.25;" d="M192.52,19.07c-5.13-2.28-9.88,1.26-9.09,5.47
				c0.29,0.81,0.82,1.47,1.5,2.01C185.81,23.15,188.7,20.36,192.52,19.07z"/>
			<path style="fill:#5F9AFF;stroke:#000000;stroke-width:0.25;" d="M216.14,13.18c-0.03-0.05-0.05-0.1-0.09-0.15
				c-2.03-2.83-10.63-2.64-12.47,0.41c1.51,1.24,3.69,2.02,6.13,2.02C212.31,15.46,214.62,14.57,216.14,13.18z"/>
			<path style="fill:#5F9AFF;stroke:#000000;stroke-width:0.25;" d="M236.7,24.03c-0.93-1.72-2.44-2.14-4.09-1.89
				c-0.45,2.1-0.46,4.42,0.2,6.43C236.17,28.67,238.7,27.73,236.7,24.03z"/>
			<g>
				<path style="fill:#5F9AFF;stroke:#000000;stroke-width:0.25;" d="M192.76,39.78c-0.72-0.72-2.09-2.4-3.31-3.35
					c-0.72,0.21-1.38,0.5-1.93,0.91c-1.81,2.09-0.69,4.4,1.27,5.77l4.56-2.64C193.16,40.24,192.97,40,192.76,39.78z"/>
				<polygon style="fill:#5F9AFF;stroke:#000000;stroke-width:0.25;" points="188.79,43.12 188.79,81.05 193.46,78.33 193.46,40.42 
									"/>
			</g>
			<g>
				<path style="fill:#5F9AFF;stroke:#000000;stroke-width:0.25;" d="M232.17,39.45c-0.35,1.16-1.56,2.05-2.97,2.71l2.42,1.4
					c0.17-0.13,0.35-0.26,0.51-0.42C233.65,41.54,233.36,40.34,232.17,39.45z"/>
				<polygon style="fill:#5F9AFF;stroke:#000000;stroke-width:0.25;" points="229.29,42.21 229.29,79.86 231.62,81.19 231.62,43.55 
									"/>
			</g>
		</g>
	</g>
	<g>
		<path keyword="0009047" style="fill:#055F00;stroke:#000000;stroke-width:0.25;" d="M209.79,6.29c-21.72,0-39.33,11.04-39.33,24.67
			c0,6.46,3.96,12.33,10.44,16.73l1.19-0.69c-6.48-4.18-10.46-9.83-10.46-16.04c0-12.89,17.09-23.33,38.17-23.33
			s38.17,10.45,38.17,23.33c0,6.2-3.96,11.83-10.42,16.01l1.19,0.69c6.45-4.39,10.39-10.26,10.39-16.7
			C249.12,17.33,231.51,6.29,209.79,6.29z"/>
		<polygon style="fill:#055F00;stroke:#000000;stroke-width:0.25;" points="180.88,47.71 180.96,85.63 182.04,84.99 182.04,47.03 		
			"/>
		<polygon style="fill:#055F00;stroke:#000000;stroke-width:0.25;" points="238.73,47.66 237.46,46.92 237.46,84.5 238.95,85.35 		
			"/>
	</g>
	<path style="fill:none;stroke:#000000;stroke-width:0.25;" d="M209.79,43.63"/>
</g>
<g key="root" keyword="0009005">
    <g>
    	<path style="fill:none;stroke:#000000;stroke-width:0.5;" d="M294.67,32.85c0-4.42,7.16-8,16-8s16,3.58,16,8
    		c0,2.21-1.79,4.21-4.69,5.66l1.41,0.71c3.26-1.63,5.27-3.88,5.27-6.36c0-4.97-8.06-9-18-9s-18,4.03-18,9
    		c0,2.49,2.01,4.74,5.27,6.36l1.41-0.71C296.46,37.06,294.67,35.06,294.67,32.85z"/>
    	<polygon style="fill:none;stroke:#000000;stroke-width:0.5;" points="297.94,39.17 297.94,65.97 299.17,65.38 299.17,38.56 	"/>
    	<polygon style="fill:none;stroke:#000000;stroke-width:0.5;" points="321.98,38.56 321.98,65.56 323.4,66.26 323.4,39.26 	"/>
    </g>
    <g>
    	<path keyword="0009005" style="fill:#FFF8C5;stroke:#000000;stroke-width:0.25;" d="M346.67,32.85c0-9.94-16.12-18-36-18s-36,8.06-36,18
    		c0,4.97,4.03,9.47,10.54,12.73l12.73-6.36c-3.26-1.63-5.27-3.88-5.27-6.36c0-4.97,8.06-9,18-9s18,4.03,18,9
    		c0,2.49-2.01,4.74-5.27,6.36l12.73,6.36C342.64,42.32,346.67,37.82,346.67,32.85z"/>
    	<polygon style="fill:#FFF8C5;stroke:#000000;stroke-width:0.25;" points="285,45.58 285,72.19 297.94,65.97 297.94,39.17 	"/>
    	<polygon style="fill:#FFF8C5;stroke:#000000;stroke-width:0.25;" points="336.12,45.58 323.4,39.26 323.4,66.26 336,72.52 	"/>
    </g>
    <g>
    	<polygon style="fill:#72BF00;stroke:#000000;stroke-width:0.25;" points="310.67,32.85 303.25,36.53 303.25,63.42 310.67,59.85 	
    		"/>
    	<polygon style="fill:#72BF00;stroke:#000000;stroke-width:0.25;" points="310.67,32.94 310.67,59.85 310.67,59.94 318.1,63.63 
    		318.1,36.63 	"/>
    	<path style="fill:#72BF00;stroke:#000000;stroke-width:0.25;" d="M319.24,28.02c0.12-0.02,0.21-0.08,0.28-0.14
    		c-1.94-0.86-4.38-1.44-7.07-1.62c-1.14,1.3-2.48,1.63-4.44,1.52c-1.05-0.06-2.13-0.22-3.17-0.33c-0.42-0.05-0.77-0.03-1.18-0.18
    		c-0.03-0.01-0.06-0.03-0.09-0.04c-3.74,1.18-6.23,3.26-6.23,5.64c0,0.44,0.09,0.87,0.25,1.29c0.64,0.06,1.3,0.14,1.92,0.29
    		c1.05,0.26,1.69,0.88,2.55,1.42c0.46,0.29,0.91,0.38,1.36,0.62l7.24-3.62l7.33,3.67c1.29-0.83,3.66-1.57,5.01-1.15
    		c0.63-0.78,0.99-1.63,0.99-2.52c0-0.12-0.02-0.24-0.04-0.37c-0.92-0.16-1.89-0.64-2.62-0.96
    		C319.79,30.84,319.34,29.61,319.24,28.02z"/>
    </g>
    <g>
    	<g>
    		<polygon style="fill:#5F9AFF;stroke:#000000;stroke-width:0.25;" points="318.1,36.63 318.1,63.63 320.1,64.62 320.1,37.62 		"/>
    		<path style="fill:#5F9AFF;stroke:#000000;stroke-width:0.25;" d="M318,36.52l2.1,1.05c1.24-0.62,2.24-1.37,2.91-2.2
    			C321.66,34.95,319.29,35.69,318,36.52z"/>
    	</g>
    	<path style="fill:#5F9AFF;stroke:#000000;stroke-width:0.25;" d="M304.84,27.44c1.04,0.12,2.12,0.27,3.17,0.33
    		c1.96,0.11,3.3-0.22,4.44-1.52c-0.58-0.04-1.17-0.07-1.78-0.07c-2.61,0-5.04,0.38-7.1,1.03c0.03,0.01,0.06,0.03,0.09,0.04
    		C304.07,27.41,304.41,27.39,304.84,27.44z"/>
    	<g>
    		<polygon style="fill:#5F9AFF;stroke:#000000;stroke-width:0.25;" points="301.17,37.56 301.17,64.42 303.25,63.42 303.25,36.53 		
    			"/>
    		<path style="fill:#5F9AFF;stroke:#000000;stroke-width:0.25;" d="M299.51,34.43c-0.62-0.16-1.28-0.23-1.92-0.29
    			c0.52,1.32,1.82,2.51,3.65,3.43l2.19-1.09c-0.45-0.23-0.9-0.33-1.36-0.62C301.2,35.31,300.56,34.7,299.51,34.43z"/>
    	</g>
    	<path style="fill:#5F9AFF;stroke:#000000;stroke-width:0.25;" d="M319.52,27.88c-0.07,0.06-0.16,0.12-0.28,0.14
    		c0.11,1.59,0.55,2.83,2.11,3.51c0.73,0.32,1.71,0.8,2.62,0.96C323.77,30.65,322.09,29.02,319.52,27.88z"/>
    </g>
    <path keyword="0009005" style="fill:#007F0F;stroke:#000000;stroke-width:0.25;" d="M336.12,45.58c6.52-3.26,10.54-7.76,10.54-12.73v27
    	c0,4.99-4.11,9.41-10.67,12.67L336.12,45.58z"/>
    <path keyword="0009005" style="fill:#007F0F;stroke:#000000;stroke-width:0.25;" d="M285,45.58c-6.52-3.26-10.33-7.76-10.33-12.73v27
    	c0,4.89,4.01,9.09,10.33,12.33V45.58z"/>
</g>
<g key="flower" keyword="0009046">
<g>
	<path keyword="0009046" style="fill:#EF9C22;stroke:#000000;stroke-width:0.4421;" d="M117.37,161.94c2.59-0.07,4.79-2.41,7.8-2.52
		c2.59-0.09,5.84-0.44,8.22-1.63c1.88-0.94,2.5-2.09,4.75-2.43c2.09-0.32,4.34,0.01,6.42-0.21c-1.23,0.13-5.05-2.71-6.5-3.23
		c-2.74-1-5.79-1.72-8.69-1.04C124.22,152.06,118.68,156.71,117.37,161.94z"/>
	<path keyword="0009046" style="fill:#EF9C22;stroke:#000000;stroke-width:0.4421;" d="M266.29,188.9c-2.32-2.32-6.73-1.54-8.62-3.93
		c-2.16-2.74-1.59-7.74-3.68-10.99c-1.06-1.65-2.06-2.99-3.53-4.32c-1.92-1.73-1.85-0.93-1.81-3.79c0.09-6.9-3.81-12.53-10.95-14.03
		c-3.04-0.64-4.56-0.83-6.92-2.67c-3.38-2.63-6.65-2.55-10.63-3.87c-9.47-3.15-19.19-7.99-29.06-8.23
		c-4.38-0.11-11.66,2.6-15.74,0.92c-3.24-1.33-2.55-3.44-6.7-2.57c-5.68,1.19-12.3,1.53-16.7-2.94c-4.38-4.45-2.86-9.31,2.17-12.19
		c13.3-7.62,23.1-1.34,35.16,5.17c3.5,1.89,7.04,2.3,10.91,3.08c3.86,0.78,7.64,1.23,11.39,2.42c3.31,1.05,6.49,1.31,9.63,2.74
		c3,1.36,6.16,2.46,9.37,3.18c10.74,2.39,18.77,9.89,26.1,17.88c5.78,6.31,14.17,16.6,13.63,25.52c-0.24,3.99,0.27,6.02,1.69,9.54
		c0.61,1.51,1.35,4.03-0.6,4.57C268.92,195.05,267.61,190.22,266.29,188.9z"/>
	<path keyword="0009046" style="fill:#F2CA20;stroke:#000000;stroke-width:0.4421;" d="M233.35,147.55c7.56-4.21,15.75-9.32,23-1.99
		c2.99,3.03,6.01,6.1,8.43,9.61c2.12,3.07,2.91,6.26,4.36,9.55c1.5,3.41,2.52,5.8,2.64,9.66c0.1,3.31-0.25,6.66,0.38,9.93
		c0.56,2.92,2.76,6.58,2.49,9.5c-3.23,0.95-4.21-2.24-4.95-4.56c-1.1-3.44-2.15-6.92-4.69-9.6c-2.83-2.98-6.5-3.55-10.67-3.2
		c-12.51,1.05-26.07,4.47-35.65,13.07c-5.9,5.3-10.19,12.16-16.56,16.99c-2.85,2.16-5.43,4.24-8.79,5.33
		c-6.32,2.05-15.11,2.04-19.66-3.33c-2.69-3.17-4.1-7.64-5.41-11.57c-2.75-8.25-3.08-17.04-7.18-24.85
		c-3.67-6.98-8.94-13.46-16.18-16.9c-7.41-3.52-13.47-5.98-20.25,0.11c-1.8,1.62-3.93,5.01-6.05,5.98c-3.28,1.5-2.9-1.89-2.79-4.88
		c0.46-12.38,12.95-14.26,19.44-22.96c1.45-1.94,1.81-4.34,2.85-6.33c3.01-5.78,10.91-8.22,16.9-9.05
		c7.28-1.01,14.11,4.64,18.34,10.12c4.74,6.14,6.46,14.32,7.87,21.75c1.08,5.71,1.44,11.44,2.55,17.04
		c0.9,4.53,1.69,10.45,1.35,15.06c-0.12-5.43-0.57-10.74-0.97-16.11c-0.54-7.19-0.16-14.74-1.77-21.79
		c-1.6-7.02-5.19-13.69-9.45-19.44c-2.01-2.71-7.27-7.06-10.76-7.02c1.05-4.63,10.03-3.95,13.25-3.08
		c13.32,3.6,23.06,13.82,37.46,14.38c7.13,0.28,15.82-3.12,22.34,0.51c1.95,1.08,3.53,2.81,5.38,4.04c1.53,1.01,5.08,2.76,4.81,5.05
		c-0.29,2.46-6.11,4.54-7.95,5.54c-3.71,2-6.94,4.65-10.35,7.09c-8.45,6.06-16.71,14.86-22.89,23.21c1.02-2.95,4.51-6.12,6.63-8.34
		c3.95-4.13,8.5-8.3,12.91-11.97C226.73,151.61,229.96,149.44,233.35,147.55z"/>
	<path style="fill:#E5AB05;" d="M169.23,182.4c2.34,5.51,4.39,11.01,6.29,16.68c0.77,2.29,1.59,8.15,5.27,7.15
		c0.23-2.61-1.18-5.9-1.85-8.49c-1.47-5.67-1.94-11.52-2.12-17.39c-0.04,4.6,2.37,10.08,4.05,14.27c0.77,1.93,1.37,4.78,2.88,6.02
		c-0.02-2.79-0.53-5.65-0.42-8.49c2.48,1.2,4.71,4.43,7.57,2.61c2.47-1.58,4.05-6.45,5.23-9c-2.33,4.62-5.96,9.07-7.06,14.39
		c1.42,0.29,1.75-1.1,2.7-1.99c3.07-2.89,5.89-5.81,8.6-9.05c5.57-6.67,12.39-11.07,18.46-17.02c-2.22,2.82-5.18,4.96-7.78,7.41
		c-3.21,3.02-5.96,6.49-8.86,9.81c-3.2,3.67-5.73,7.94-9.01,11.52c6.83-3.64,12.4-11.24,18.44-16.2c4.18-3.43,9.71-7.73,14.82-9.57
		c-7.7,6.33-14.79,13.07-22.17,19.73c-3.83,3.46-8.11,5.81-12.21,8.85c-1.57,1.16-4.02,2.74-4.9,4.54
		c5.28-2.89,10.22-5.27,14.86-9.29c6.24-5.4,11.96-11.6,18.89-16.18c7.81-5.17,16.39-8.4,25.47-10.53c3.14-0.74,6.85-2.3,10.15-1.92
		c-3.42-1.38-10.54-0.31-14.23,0.21c-3.79,0.54-7.8,1.97-11.62,1.74c7.96-5.01,17.09-9.89,26.32-11.97
		c-9.92,3.9-20.37,6.44-30.23,10.55c-5.9,2.46-10.95,6.71-16.2,10.08c8.66-8.31,18.18-16.63,28.89-22.21
		c5.67-2.95,10.33-5.46,16.69-5.59c-11-0.15-22.28,5.88-31.19,11.71c-8.25,5.4-19.15,11.96-24.57,20.54
		c4.06-5.49,7.79-11.02,12.58-16.03c3.41-3.57,7.4-6.31,11.05-9.56c-7.21,5.39-13.17,11.84-19.82,17.82
		c-2.15,1.94-6.72,4.42-6.19-0.4c0.37-3.37,3.89-8.12,5.53-10.99c3.12-5.44,7.4-10.67,11.72-15.22c4.55-4.8,9.54-9.92,15.11-13.48
		c-8.37,3.09-16.27,12.3-21.55,19.15c-3.93,5.11-7.37,10.76-10.83,15.97c-0.11-2.27,0.97-4.41,1.86-6.49
		c1.84-4.31,3.07-8.76,4.43-13.24c1.79-5.9,3.2-12.58,5.46-18.17c-0.28,2.96-2.85,6.1-3.87,8.94c-1.81,5.01-3.56,9.91-5.07,15.02
		c-2.37,8.07-5.52,15.91-7.83,23.98c1.48-17.31,4.61-37.32-1.12-53.88c3.03,10.34,4.55,22.08,3.36,32.9
		c-0.42,3.81-1.27,7.72-2.17,11.43c-0.34,1.4-0.44,2.79-1.47,3.76c-1.22-16.94-1.77-33.42-8.25-49.37
		c1.62,5.05,3.81,9.82,4.96,15.15c1.69,7.85,1.55,16.04,0.86,24c-0.65,7.45-1.91,14.85-3.61,22c-0.31,0.01-0.6,0.03-0.91,0.01
		c-1.81-3.47-2.09-7.3-3.06-11.11c-1.82-7.18-3.48-14.92-7.04-21.5c2.15,7.18,5.05,15.6,4.6,23.18c-1.34-2.06-1.9-4.74-2.5-7.16
		c-1.23-5.02-3.12-9.18-5.53-13.75c-4.43-8.39-10.85-20.74-20.35-24.4c6.3,5.62,12,14.37,15.67,21.85
		c4.56,9.28,7.77,18.43,9.4,28.56c-5.79-10.52-11.13-22.26-18.54-31.86c-3.13-4.06-6.76-8.67-11.24-11.35
		c-1.46-0.88-5.63-3.35-7.15-2.56c2.83,1.19,4.79,3.07,6.75,5.29c-2.69,0.18-5.5-0.55-8.24-0.05c-2.26,0.42-4.47,1.73-6.63,2.43
		c3.82-1.46,8.76-1.5,12.71-0.48c3.19,0.83,6.58,3.94,8.91,6.23C160.74,160.13,164.76,171.87,169.23,182.4z"/>
</g>
<g>
	<g>
		<path style="fill:#FFFF00;stroke:#000000;stroke-width:0.4421;" d="M184.17,140.11c0.75-2.09,2.47-7.6-1.04-7.19
			c-3.12,0.36-6.2,4.06-7.43,6.73c-0.53,1.15-1.31,3.19-0.69,4.34c0.56,1.05,1.87,1.44,2.65,0.48c-0.16,2.43,1.54,2.76,3.25,1.36
			C182.65,144.42,183.45,142.13,184.17,140.11z"/>
		<path style="fill:#FFFF00;stroke:#000000;stroke-width:0.4421;" d="M220.07,150.89c0.52-2.58,0.89-10.83-3.94-7.57
			c-2.29,1.55-5.11,7.09-4.54,9.9c0.5,2.5,3.09,1.81,4.54,0.64c-0.16,1.37,0.84,2.18,1.93,1.64
			C219.41,154.85,219.82,152.15,220.07,150.89z"/>
		<g>
			<g key="pedicel">
				<path keyword="0009046" style="fill:#00A33D;stroke:#000000;stroke-width:0.4421;" d="M170.76,225.45c-1.21,2.06-1.31,4.32-1.97,6.55
					c-1.66,5.64-6.26,9.69-2.29,15.25c1.49,2.08,6.06,8.99,9.18,8.48c1.65-0.27,0.79-3.12,1.12-4.53c0.72-3.05,2.89-5.98,4.01-8.93
					c1.35-3.55,2.1-7.31,3.23-10.93c0.62-1.98-0.27-3.77-0.39-5.47l-9.7-2.69C172.9,223.76,171.46,224.26,170.76,225.45z"/>
				<path style="fill:#16C14F;" d="M175.47,224.43c-3.78,3.24-9.11,11.19-7.53,16.44c0.93,3.09,4.89,4.98,7.73,3.23
					c3.6-2.22,6.05-9.85,6.73-13.76c0.28-1.64-0.62-3.47-0.96-5.19l-5.09-1.55C176.1,223.86,175.81,224.13,175.47,224.43z"/>
			</g>
			<g key="septal">
				<path keyword="0009046" style="fill:#00A33D;stroke:#000000;stroke-width:0.4421;" d="M171.42,208.54c-1.75-2.13-2.9-4.67-3.65-7.36
					c-2.15-7.8-2.41-14.67-8.61-20.64c3.23,3.11,2.79,7.65,3.83,11.64c1.14,4.37,0.99,9.64,2.98,13.71c1,2.04,2.03,4.39,3.15,6.3
					c0.56,0.95,2.41,2.97,3.94,5.01l1.04-6.22C172.99,210.36,171.93,209.16,171.42,208.54z"/>
				<path style="fill:#16C14F;" d="M173.49,211.37c-1.25-0.82-3.52-3.76-3.72-0.7c-0.13,2,1.65,3.64,3.48,5.22l0.63-4.26
					C173.76,211.55,173.63,211.46,173.49,211.37z"/>
			</g>
			<g key="articulation">
				<path keyword="0009046" style="fill:#00A33D;stroke:#000000;stroke-width:0.4421;" d="M188.57,213.48l-12.02-2.7c-0.07,0.08-0.15,0.16-0.25,0.25
					c-0.64,0.54-1.43,0.39-2.2-0.04l-1.04,6.22c1.43,1.91,2.57,3.83,2.08,4.9c-0.21,0.45-0.65,0.77-1.18,1.07l9.7,2.69
					c-0.03-0.42-0.01-0.83,0.08-1.23c0.44-1.87,2.76-1.96,4.14-2.84c0.98-0.62,1.77-1.39,2.61-2.13l-0.15-4.81
					C189.31,214.81,188.47,214.48,188.57,213.48z"/>
				<path style="fill:#16C14F;" d="M187.38,213.22C187.38,213.22,187.38,213.22,187.38,213.22l-9.26-2.08
					c-1.54,1.92-2.49,1.62-4.25,0.5l-0.63,4.26c1.45,1.25,2.92,2.45,3.52,3.77c0.79,1.75,0.62,2.78-0.43,3.93l5.09,1.55
					c-0.26-1.28-0.21-2.5,0.86-3.53c1.19-1.14,3.97-1.55,5.47-2.48c0.92-0.57,1.8-1.17,2.71-1.72l-0.17-1.75
					C187.82,216.04,186.17,215.63,187.38,213.22z"/>
			</g>
			<g key="septal">
				<path keyword="0009046" style="fill:#00A33D;stroke:#000000;stroke-width:0.4421;" d="M208.88,204.3c-4.2,4.45-9.47,8.09-15.32,10.02
					c-0.65,0.21-2.06,0.56-3.22,0.52l0.15,4.81c0.81-0.72,1.67-1.42,2.8-1.96c4.61-2.24,10.09-3.08,13.82-6.88
					c1.71-1.75,3.3-3.75,4.84-5.74c2.98-3.86,5.62-7.19,10.44-8.76C216.77,196.1,212.44,200.54,208.88,204.3z"/>
				<path style="fill:#16C14F;" d="M190.31,215.67l0.17,1.75c1.08-0.66,2.2-1.23,3.47-1.56c2.32-0.6,4.9-0.89,6.4-2.88
					C199.61,212.84,194.03,215.11,190.31,215.67z"/>
			</g>
			<g key="nectary">
				<path style="fill:#00A33D;stroke:#000000;stroke-width:0.4421;" d="M188.6,213.23c0.28-1.23,2.73-1.37,2.94-2.69
					c0.14-0.88-0.62-0.94-1-1.68c-0.23-0.45-0.21-0.8-0.03-1.09l-12.64-2.97c0.11,0.38,0.13,0.79,0.03,1.21
					c-1.21,0.58-2.14-0.24-2.2,1.41c-0.05,1.28,1.81,2.23,0.86,3.35l12.02,2.7C188.58,213.4,188.58,213.32,188.6,213.23z"/>
				<path style="fill:#16C14F;" d="M188.89,210.63c-0.22-1.36-1.93-1.03-1.12-2.58c0.2-0.37,0.49-0.7,0.85-0.99l-9.18-1.93
					c0.93,1.93,0.28,3.82-0.97,5.54c-0.12,0.16-0.23,0.31-0.35,0.45l9.26,2.08C187.83,212.33,189.07,211.77,188.89,210.63z"/>
			</g>
			<g key="carpel" keyword="0009030">
    			<path key="style" keyword="0009030" style="fill:#00A33D;stroke:#000000;stroke-width:0.4421;" d="M200.36,151.19c0.4-1.73,1.15-3.26,1.9-4.8l-4.15-1.2
    				c-0.55,1.62-1.34,3.21-1.92,4.63c-1.11,2.74-2.37,5.48-3.77,8.16l6.93,1.68C199.41,156.76,199.73,153.89,200.36,151.19z"/>
    			<g key="stigma" keyword="0009030">
    				<path keyword="0009030" style="fill:#00A33D;stroke:#000000;stroke-width:0.4421;" d="M203.05,144.73c1.13-2.51,6.61-8.34,3.71-11.14
    					c-1.75-1.69-3.4,0.53-4.96-0.1c-1.52-0.62-2.2-4.32-4.3-0.45c-1.49,2.76,0.84,5.29,1.2,7.86c0.2,1.4-0.11,2.86-0.6,4.29
    					l4.15,1.2C202.53,145.84,202.8,145.29,203.05,144.73z"/>
    				<path style="fill:none;stroke:#000000;stroke-width:0.4421;" d="M199.46,136.22c1.16-1.08,2.36-2.43,3.89-2.05
    					c1.32,0.32,1.84,1.91,2.98,2.28"/>
    			</g>
    			<g key="ovary" keyword="0009030">
    				<g>
    					<path style="fill:#00A33D;stroke:#000000;stroke-width:0.4421;" d="M196.66,205.97c4.35-2.01,9.43-8.6,11.85-12.75
    						c4.21-7.22,4.79-13.43,5.15-21.72c0.19-4.37,0.31-9.29,1.45-13.5c0.68-2.51,2.2-5.02,2.35-7.58c-3.29,1.79-4.1,9.29-4.41,12.56
    						c-0.6,6.27-0.06,12.32-1.88,18.56c-1.7,5.82-3.85,10.86-8.08,15.18c-1.86,1.89-6.15,7.45-9.31,5.69
    						c1.6-2.2,3.87-3.82,5.34-6.17c1.81-2.88,2.68-5.93,2.92-9.31c0.45-6.4-1.1-12.28-2.08-18.49c-0.45-2.83-0.66-5.82-0.6-8.81
    						l-6.93-1.68c-2.08,3.96-4.48,7.75-7.25,11.08c-4.25,5.08-8.63,11.82-9.18,18.57c-0.31,3.78,0.12,10.29,3.7,12.62
    						c-6.25-4.07-7.17-10.38-8.18-17.22c-1.18-8.05-0.88-17.19,1.01-25.17c0.74-3.13,1.94-6.04,3.26-8.91
    						c0.68-1.48,2.67-4.25,1.8-5.55c-5.33,6.68-7.34,15.57-8.17,23.9c-0.82,8.21-0.38,18.13,1.92,26.07
    						c0.74,2.56,1.88,5.18,3.38,7.4c0.26,0.38,0.63,0.77,1.02,1.18c0.85,0.87,1.82,1.81,2.12,2.88l12.64,2.97
    						C191.3,206.54,195.28,206.61,196.66,205.97z"/>
    				</g>
    				<g>
    					<path keyword="0009030" style="fill:#16C14F;" d="M192.44,205.41c0.43-0.11,4.39-1.55,4.03-1.66c-2.66-0.79-7.35,1.13-2.96-2.9
    						c6.87-6.32,7.61-14.62,6.96-23.42c-0.28-3.78-1.26-7.56-1.96-11.26c-0.44-2.3-1.79-5.92-4.72-4.03
    						c-2.66,1.72-5.01,4.24-7.14,6.57c-6.53,7.14-12.67,19.3-7.91,28.85c0.62,1.24,2.59,2.97,2.36,4.33
    						c-1.07-0.15-5.58-1.79-5.34-3.27c-0.42,2.51,2.33,4.22,3.46,6.11c0.08,0.14,0.16,0.28,0.22,0.41l9.18,1.93
    						C189.69,206.2,191.3,205.68,192.44,205.41z"/>
    					<path style="fill:#07772D;" d="M185.6,197.52c0.22-0.6,1.65-6.03,1.33-6.1c-0.06-0.01-0.13-0.03-0.19-0.04
    						c0.03-0.35,0.03-0.72-0.23-0.89c-0.15,0.65-1.08,2.11-1.95,1.7c-0.94-0.44-0.41-2.72-0.12-3.39c0.53-1.22,2.85-3.57,3.3-1.1
    						c0.24-0.99,0.62-1.92,0.83-2.94c0.12-0.61,0.42-1.34,0.09-1.85c-0.19-0.29-0.82,0.31-0.69-0.52c-0.42,0.58-0.81,2.31-1.84,1.95
    						c-1.27-0.44-0.8-2.66-0.34-3.45c0.79-1.36,3.3-1.97,3.43,0.18c0.28-0.72,0.35-1.47,0.58-2.23c0.21-0.71,0.67-1.56,0.55-2.31
    						c-0.11,0.11-0.33,0.18-0.45,0.29c0.32-1.75-0.74-0.43-1.34,0.04c-0.96,0.76-2.03,0.29-1.84-1.12c0.16-1.11,1.21-2.57,2.38-2.75
    						c0.88-0.13,1.44,0.5,2.08,0.96c1.21-0.44,1.21-2.93,1.57-3.94c0.42-1.17,0.53-2.11,0.46-3.32c-0.07-1.13-0.25-0.92-1.14-0.25
    						c-2.47,1.86-4.27,4.05-6.18,6.47c-1.87,2.38-3.57,4.89-4.69,7.71c-1.58,3.97-2.8,8.44-2.09,12.71c0.32,1.95,0.9,5.28,2.75,6.27
    						C184,200.77,184.82,199.63,185.6,197.52z"/>
    					<path style="fill:#07772D;" d="M194.46,197.49c-1.08,1.27-5.53,4.63-6.14,1.11c-0.11-0.63-0.15-2.71,0.65-2.96
    						c0.55-0.17,0.94,0.69,1.46,0.79c0.8,0.16,1.2-0.46,1.44-1.16c0.36-1.02,0.11-4.91-1.82-3.99c-0.09-1.3-0.13-3.78,0.76-4.76
    						c0.37,0.64-0.1,1.63,0.39,2.26c0.71,0.91,1.46,0.22,1.83-0.58c0.36-0.77,0.22-4.32-1.38-3.56c0.09-1.07-0.31-3.88,1.22-4.1
    						c0.3,0.7,0.31,2.39,1.51,1.6c0.77-0.51,0.88-2.61,0.66-3.42c-0.08-0.33-0.36-0.88-0.64-1.08c-0.62-0.45-1.18-0.19-1.43-1.12
    						c-0.19-0.68,0.17-1.03,0.36-1.62c0.54-1.63,0.64-3.37,1.26-5c0.3-0.78,1.17-4.86,1.95-2.51c1.26,3.76,2.25,7.12,2.55,11.07
    						c0.26,3.4,0.25,6.32-0.45,9.67c-0.27,1.28-0.53,2.62-1.03,3.84c-0.44,1.06-0.92,2.24-1.52,3.23
    						C195.65,195.93,195.1,196.74,194.46,197.49z"/>
    				</g>
    			</g>
            </g>
		</g>
		<path style="fill:#FFBF00;stroke:#000000;stroke-width:0.4421;" d="M218.3,152.52c0.72-1.84,0.97-4.64,0.86-6.69
			c-0.15-2.73-1.42-3.02-2.87-0.69c-1.08,1.74-2.45,4.71-1.92,6.82C214.9,154.1,217.38,154.88,218.3,152.52z"/>
		<path style="fill:#FFFF00;stroke:#000000;stroke-width:0.4421;" d="M179.14,144.08c1.01-0.27,1.83-1.37,2.36-2.19
			c0.98-1.51,3.16-5.04,2.11-6.88c-1.12-1.94-3.61,0.68-4.41,1.62c-1.01,1.2-2.02,2.61-2.3,4.19
			C176.62,142.38,177.02,144.66,179.14,144.08z"/>
	</g>
	<circle style="fill:#FFFF00;stroke:#FF7F00;stroke-width:0.4421;" cx="216.49" cy="148.16" r="0.43"/>
	<ellipse style="fill:#FFFF00;stroke:#FF7F00;stroke-width:0.4421;" cx="218.25" cy="147.68" rx="0.39" ry="0.47"/>
	<circle style="fill:#FFFF00;stroke:#FF7F00;stroke-width:0.4421;" cx="217.29" cy="146.33" r="0.47"/>
	<ellipse style="fill:#FFFF00;stroke:#FF7F00;stroke-width:0.4421;" cx="217.44" cy="149.96" rx="0.43" ry="0.52"/>
	<ellipse style="fill:#FFFF00;stroke:#FF7F00;stroke-width:0.4421;" cx="216.17" cy="150.88" rx="0.46" ry="0.41"/>
	<path style="fill:#FFFF00;stroke:#FF7F00;stroke-width:0.4421;" d="M218.04,152.49c0,0.3-0.27,0.55-0.6,0.55
		c-0.33,0-0.6-0.25-0.6-0.55c0-0.3,0.27-0.55,0.6-0.55C217.77,151.93,218.04,152.18,218.04,152.49z"/>
	<circle style="fill:#FFFF00;stroke:#FF7F00;stroke-width:0.4421;" cx="215.31" cy="149.75" r="0.44"/>
	<ellipse style="fill:#FFFF00;stroke:#FF7F00;stroke-width:0.4421;" cx="218.16" cy="144.98" rx="0.4" ry="0.51"/>
	<ellipse style="fill:#FFFF00;stroke:#FF7F00;stroke-width:0.4421;" cx="215.69" cy="152.83" rx="0.48" ry="0.47"/>
</g>
</g>
<g>
	<path style="fill:#00A33D;stroke:#000000;stroke-width:0.6376;" d="M46.4,148.18c0.9,3.08,3.33,5.61,5.13,8.21
		c3.85,5.53,8.07,10.86,13.39,14.97c5.3,4.1,10.6,8.29,14.75,13.61c3.78,4.83,6.83,10.35,8.12,16.39c0.56,2.61-1.52,10.21,0.8,12
		c3.47,2.67,5.46-18.35,6.8-19.6c-0.16,0.15,1.73,5.58,1.82,6.34c0.29,2.64,0.05,4.66-0.73,7.23c-1.47,4.84-5.09,10.01-4.24,15.28
		c-3.53-1.11-4.09,1.55-5.83,3.72c-0.5,0.63-7.25,7.32-6.36,7.64c-1.59-0.56-2.46-2.14-2.55-3.89c-5.63-0.56-21.24,1.95-24.26-4.9
		c-2.39-5.43,3.27-1.4,4.94-0.47c4,2.24,11.12,3.84,15.28,0.95c-2.6-0.02-4.99-0.38-7.18-1.01c-18.82-5.43-23.37-31.52-23.78-48.49
		c-0.22-9.05-1.87-16.84-4.96-25.33"/>
	<path style="fill:#16C14F;" d="M84.99,198.38c-1.36-5.88-4.42-11.1-8.9-15.08c-2.77-2.46-5.1-5.4-8.07-7.71
		c-3.4-2.65-6.51-5.66-9.93-8.29c-2.37-1.83-6.85-5.34-9.91-3.15c-4.1,2.95-3.4,10.66-3.33,15.08c0.1,6.18,0.97,12.37,2.44,18.37
		c3.06,12.51,12.45,27.45,27.65,23.33c3.92-1.06,7.35-3.53,9.1-7.5C86.23,208.52,86.2,203.61,84.99,198.38z"/>
	<path style="fill:#07772D;" d="M59.44,214.78c2.32,1.96,5.37,4.68,8.62,4.71c2.54,0.02,5.59-2.15,4.88-4.96
		c-0.68-2.68-2.98-5.93-4.49-8.22c-0.01-0.02,0.01,0.49,0.03,0.65c-0.57-0.28-0.93-0.89-0.97-1.52c1.26,3.33-3.1,3.78-4.67,1.21
		c-0.7-1.14-1.03-4.51,0.34-5.37c0.87-0.54,2.09,0.28,2.86,0.65c-0.41-1.33-1.24-1.99-1.96-3.08c-0.45-0.68-1.88-3.04-1.75-3.84
		c-0.07,0.42-0.25,0.85-0.52,1.16c-0.37-0.44-0.53-1.06-0.69-1.66c0.25,1.57,0.24,2.85-1.59,3.19c-1.58,0.29-3.25-0.76-3.78-2.26
		c-0.61-1.73,0.27-4.16,2.11-4.74c1.09-0.35,1.95,0.27,2.98,0.61c0.06,0.07,0.05,0.07-0.01,0.01c-0.2-1.69-1.89-4.82-3.1-5.97
		c0.01,0.32-0.15,0.7-0.16,0.96c-0.33-0.48-0.51-1.05-0.57-1.63c1.18,3.92-4.56,2.31-5.28-0.69c-0.28-1.17,0.02-2.97,1.17-3.6
		c0.76-0.42,1.88-0.18,2.72-0.23c-0.25-1.97-1.77-4.24-2.69-5.99c-0.74-1.4-2.99-7.32-5.08-4.79c-1.7,2.06-0.67,6.61-0.48,9
		c0.18,2.18-0.05,4.39,0.03,6.61c0.17,4.51,0.67,9.01,2.13,13.31C51.57,204.34,54.5,210.6,59.44,214.78z"/>
	<path style="fill:#07772D;" d="M65.4,176.43c-1.98-1.53-3.81-3.47-5.87-5c-1.39-1.04-2.63-2.27-4.01-3.32
		c-0.52-0.4-2.52-2.06-3.26-1.84c-1.29,0.39-0.31,2.75,0.1,3.61c0.67,1.39,1.21,2.88,2.09,4.16c0.69,1.01,1.91,1.56,2.49,2.61
		c-0.71-3.04,3.26-1.53,4.46-0.59c0.95,0.74,2.13,1.96,1.75,3.29c-0.54,1.9-3.07,1.66-4.04,0.28c0.07,0.23,0.01,0.47,0.05,0.68
		c-0.35,0.04-1.16-0.15-1.24-0.61c0.27,1.45,1.34,2.39,1.93,3.67c0.44,0.95,0.34,1.83,1.37,2.43c0.05-1.35,1.46-1.9,2.64-1.83
		c2.17,0.13,3.6,1.66,4.26,3.63c0.39,1.16,0.54,2.99-0.68,3.73c-1.39,0.84-3-0.78-3.07-2.14c0.59,1.09-0.4,2.05,0.17,3.35
		c0.36,0.82,1.44,3.19,2.38,3.44c0.92,0.24,2.1-0.92,3.1-1c2.35-0.21,4.2,1.68,4.33,3.96c0.17,3.13-4.51,4.26-4.3,0.91
		c-0.09,0.51,0.01,1.04,0.28,1.47c-0.09-0.07-0.45-0.19-0.59-0.31c-0.17,1,0.5,2.08,1,2.91c1.74,2.92,3.75,10.69,8.21,10.13
		c4.9-0.62,4.7-9.07,4.13-12.54c-1.69-10.18-9.79-18.97-17.65-25.04C65.41,176.44,65.4,176.43,65.4,176.43z"/>
</g>
<path d="M225.41,143.9c1.37,1.59,2.25,3.43,2.67,5.35c0.12,0.58,0.21,1.17,0.25,1.76c0.01,0.18,36.82,2.26,58.24,10.34l1-2.92
	l5.05,6.33c0,0-8.23,3.57-8.23,3.6c0,0.04,1.06-3.33,1.06-3.33c-15.55-6.36-57.1-12.75-57.11-12.55c-0.03,0.71-0.13,1.42-0.29,2.12
	c-0.57,2.51-1.92,4.87-4.03,6.68c-5.19,4.46-12.97,3.91-17.39-1.23c-4.42-5.14-3.8-12.92,1.38-17.38
	C213.2,138.21,220.99,138.76,225.41,143.9z M208.94,143.74c-4.48,3.85-4.99,10.61-1.13,15.09c3.85,4.48,10.61,4.99,15.09,1.13
	c4.48-3.85,4.99-10.61,1.13-15.09C220.18,140.4,213.42,139.89,208.94,143.74z"/>
<path d="M182.93,201.23c-1.9-0.88-3.47-2.19-4.64-3.77c-0.35-0.48-0.67-0.98-0.95-1.5c-0.08-0.16-43.3,14.61-66.15,16.11l0.3,3.08
	l-7.21-3.68c0,0,6.02-6.66,6-6.68c-0.02-0.04,0.41,3.47,0.41,3.47c16.79-0.63,66.1-13.45,66.03-13.63
	c-0.26-0.66-0.47-1.35-0.61-2.06c-0.52-2.52-0.26-5.23,0.91-7.75c2.88-6.2,10.2-8.92,16.35-6.06c6.15,2.85,8.8,10.2,5.92,16.4
	C196.4,201.37,189.08,204.08,182.93,201.23z M198,194.58c2.49-5.36,0.16-11.72-5.2-14.21c-5.36-2.49-11.72-0.16-14.21,5.2
	c-2.49,5.36-0.16,11.72,5.2,14.21C189.15,202.26,195.51,199.94,198,194.58z"/>
<g>
	<path d="M89.57,237.32c-1.48,0-2.5-1.14-2.5-2.82c0-1.77,1.09-2.92,2.57-2.92c1.52,0,2.51,1.16,2.51,2.81
		C92.15,236.3,90.99,237.32,89.57,237.32L89.57,237.32L89.57,237.32z M89.61,236.73c1.14,0,1.78-1.05,1.78-2.31
		c0-1.1-0.58-2.26-1.77-2.26c-1.19,0-1.79,1.11-1.79,2.32C87.82,235.65,88.47,236.73,89.61,236.73L89.61,236.73z"/>
	<path d="M93.46,233.24l0.78,2.23c0.13,0.37,0.24,0.7,0.32,1.03h0.03c0.09-0.33,0.21-0.66,0.34-1.03l0.78-2.23h0.76l-1.57,3.99H94.2
		l-1.52-3.99H93.46z"/>
	<path d="M99.84,236.27c0,0.35,0.02,0.68,0.06,0.96h-0.65l-0.07-0.5h-0.02c-0.21,0.31-0.65,0.59-1.22,0.59
		c-0.81,0-1.22-0.57-1.22-1.15c0-0.96,0.86-1.49,2.4-1.48v-0.08c0-0.33-0.09-0.93-0.91-0.92c-0.38,0-0.77,0.11-1.05,0.3L97,233.49
		c0.33-0.21,0.82-0.35,1.32-0.35c1.23,0,1.52,0.83,1.52,1.63V236.27z M99.13,235.19c-0.79-0.02-1.69,0.12-1.69,0.9
		c0,0.48,0.31,0.69,0.68,0.69c0.53,0,0.87-0.33,0.98-0.67c0.02-0.07,0.03-0.16,0.03-0.23V235.19z"/>
	<path d="M101.01,234.48c0-0.47-0.01-0.87-0.03-1.25h0.64l0.03,0.78h0.02c0.18-0.54,0.63-0.87,1.11-0.87c0.07,0,0.13,0.01,0.2,0.02
		v0.68c-0.08-0.01-0.16-0.02-0.26-0.02c-0.51,0-0.87,0.39-0.97,0.92c-0.02,0.11-0.02,0.22-0.02,0.35v2.13h-0.73L101.01,234.48z"/>
	<path d="M104.16,233.24l0.87,2.36c0.1,0.26,0.2,0.58,0.26,0.82h0.02c0.07-0.24,0.16-0.54,0.25-0.83l0.79-2.34h0.77l-1.09,2.84
		c-0.52,1.37-0.87,2.07-1.37,2.51c-0.36,0.3-0.71,0.43-0.89,0.46l-0.18-0.61c0.18-0.05,0.42-0.16,0.63-0.35
		c0.2-0.16,0.44-0.44,0.61-0.81c0.03-0.07,0.06-0.12,0.06-0.17c0-0.04-0.02-0.1-0.06-0.18l-1.47-3.68L104.16,233.24L104.16,233.24z"
		/>
</g>
<g>
	<path style="fill:#FFFF00;stroke:#000000;stroke-width:0.8841;" d="M305.67,195.97c-5.58-0.9-4-5.24-6.04-9.47
		c-1.23-2.57-3.32-1.61-5.22-3.17c-8.32-6.82,5.42-14.55,10.66-16.87c5.94-2.64,12.22-4.81,18.74-5.33c2.19-0.17,8.11-1.04,7.74,2.8
		c-0.3,3.17-7.5,5.88-9.74,7.65c-1.46,1.15-2.67,2.52-4.34,3.39c3.73-1.96,12.12-9.2,16.56-7.49c4.58,1.76-0.34,7.99-1.89,10.31
		c-4.36,6.5-9.04,12.6-16.16,16.25c-3.36,1.72-6.51,2.53-10.24,1.95C305.72,195.98,305.7,195.97,305.67,195.97z"/>
	<path style="fill:#00A33D;stroke:#000000;stroke-width:0.4421;" d="M276.98,230.55c-1.52-5.95,1.28-17.31,2.19-19.94
		c1.72-4.99,4.2-10.18,7.05-14.62c3.2-5,7.94-10.16,12.42-14.07c3.8-3.31,8.44-5.21,12.72-7.68c4-2.31,8.28-4.35,12.68-5.8
		c3.94-1.3,7.06,1.21,2.72,4.2c-3.03,2.09-6.45,3.37-9.78,4.81c-8.16,3.52-15.61,8.23-21.5,14.99c-6.36,7.3-10.64,16.41-12.07,26
		c-0.55,3.71-0.28,6.79,0,10.43"/>
	<path style="fill:#FFFF00;stroke:#000000;stroke-width:0.8841;" d="M321.12,181.05c-0.03,0.13-0.06,0.25-0.1,0.37
		c-1.16,3.44-9.11,7.09-12.39,8.19c-5.09,1.71-14.38,2.93-14.08-5c0.14-3.51,3.39-7.33,6.12-9.28c2.45-1.74,5.49-3.73,8.21-4.89
		c3.07-1.3,4.56-0.08,7.07,1.97C318.11,174.18,321.83,177.85,321.12,181.05z"/>
	
		<linearGradient id="SVGID_1_" gradientUnits="userSpaceOnUse" x1="354.0356" y1="268.7422" x2="368.2334" y2="287.1766" gradientTransform="matrix(0.9628 0.2703 0.2703 -0.9628 -113.9068 351.2783)">
		<stop  offset="0" style="stop-color:#F2CA20"/>
		<stop  offset="0.4479" style="stop-color:#F2C820"/>
		<stop  offset="0.6092" style="stop-color:#F0C11F"/>
		<stop  offset="0.7242" style="stop-color:#EEB61E"/>
		<stop  offset="0.8171" style="stop-color:#EBA51C"/>
		<stop  offset="0.8958" style="stop-color:#E78F19"/>
		<stop  offset="0.927" style="stop-color:#E58418"/>
	</linearGradient>
	<path style="fill:url(#SVGID_1_);stroke:#000000;stroke-width:0.221;" d="M314.78,186.33c0.12-0.05,0.24-0.11,0.35-0.16
		c2.27-1.09,6.17-3.02,5.82-6.1c-0.25-2.17-2.04-4.8-3.65-6.23c-0.43-0.38-0.9-0.75-1.33-1.12c-1.38-1.16-4.16-3.71-6.14-2.26
		c-0.75,0.55-0.35,1.18-0.59,1.88c-0.29,0.86-1.41,1.27-2.05,1.83c-0.81,0.71-1.62,1.37-2.51,1.99c-1.79,1.24-3.73,2.36-5.07,4.12
		c-1.19,1.56-2.01,3.78-1.55,5.75c0.37,1.57,1.98,2.45,3.39,2.97c1.21,0.44,2.4,0.55,3.66,0.54
		C308.77,189.54,311.55,187.75,314.78,186.33z"/>
	
		<linearGradient id="SVGID_2_" gradientUnits="userSpaceOnUse" x1="356.916" y1="280.1914" x2="365.7312" y2="273.8949" gradientTransform="matrix(0.9628 0.2703 0.2703 -0.9628 -113.9068 351.2783)">
		<stop  offset="5.600000e-03" style="stop-color:#A6430E"/>
		<stop  offset="0.3146" style="stop-color:#DD5913"/>
		<stop  offset="1" style="stop-color:#F29620"/>
	</linearGradient>
	<path style="fill:url(#SVGID_2_);stroke:#000000;stroke-width:0.221;" d="M302.34,188.96c-1.03-0.1-1.99-0.47-2.79-1.23
		c-3.69-3.5,3.28-8.68,5.92-10.06c1.05-0.55,2.16-0.97,3.14-1.65c0.65-0.45,1.07-1.16,1.77-1.61c-0.36-0.69,0.27-1.57,0.91-1.82
		c1.73-0.68,3.3-0.02,4.52,1.28c0.89,0.95,1.93,1.97,2.47,3.18c0.35,0.79,0.17,1.64,0.25,2.46c0.3,2.91-1.27,3.2-3.31,4.7
		c-1.47,1.08-3.15,1.86-4.83,2.57C308.2,187.69,305.03,189.23,302.34,188.96z"/>
	<g>
		
			<radialGradient id="SVGID_3_" cx="358.2529" cy="277.8164" r="3.0049" gradientTransform="matrix(0.9628 0.2703 0.2703 -0.9628 -113.9068 351.2783)" gradientUnits="userSpaceOnUse">
			<stop  offset="0" style="stop-color:#F2CA20"/>
			<stop  offset="0.0144" style="stop-color:#F2C71F"/>
			<stop  offset="0.3516" style="stop-color:#F88E12"/>
			<stop  offset="0.64" style="stop-color:#FC6308"/>
			<stop  offset="0.8654" style="stop-color:#FE4A02"/>
			<stop  offset="1" style="stop-color:#FF4000"/>
		</radialGradient>
		<path style="fill:url(#SVGID_3_);stroke:#000000;stroke-width:0.1869;" d="M308.56,182.11c-0.32,1.14-1.55,1.79-2.75,1.45
			c-1.2-0.34-1.91-1.53-1.59-2.67c0.32-1.14,1.55-1.79,2.75-1.46C308.17,179.78,308.88,180.97,308.56,182.11z"/>
		
			<radialGradient id="SVGID_4_" cx="359.4316" cy="275.875" r="3.0054" gradientTransform="matrix(0.9628 0.2703 0.2703 -0.9628 -113.9068 351.2783)" gradientUnits="userSpaceOnUse">
			<stop  offset="0" style="stop-color:#F2CA20"/>
			<stop  offset="0.0144" style="stop-color:#F2C71F"/>
			<stop  offset="0.3516" style="stop-color:#F88E12"/>
			<stop  offset="0.64" style="stop-color:#FC6308"/>
			<stop  offset="0.8654" style="stop-color:#FE4A02"/>
			<stop  offset="1" style="stop-color:#FF4000"/>
		</radialGradient>
		<path style="fill:url(#SVGID_4_);stroke:#000000;stroke-width:0.1869;" d="M309.17,184.3c-0.32,1.14-1.55,1.79-2.75,1.45
			c-1.2-0.33-1.91-1.53-1.59-2.67c0.32-1.14,1.55-1.79,2.75-1.45C308.78,181.97,309.49,183.16,309.17,184.3z"/>
		
			<radialGradient id="SVGID_5_" cx="355.3003" cy="274.6978" r="3.0054" gradientTransform="matrix(0.9628 0.2703 0.2703 -0.9628 -113.9068 351.2783)" gradientUnits="userSpaceOnUse">
			<stop  offset="0" style="stop-color:#F2CA20"/>
			<stop  offset="0.0144" style="stop-color:#F2C71F"/>
			<stop  offset="0.3516" style="stop-color:#F88E12"/>
			<stop  offset="0.64" style="stop-color:#FC6308"/>
			<stop  offset="0.8654" style="stop-color:#FE4A02"/>
			<stop  offset="1" style="stop-color:#FF4000"/>
		</radialGradient>
		<path style="fill:url(#SVGID_5_);stroke:#000000;stroke-width:0.1869;" d="M304.88,184.32c-0.32,1.14-1.55,1.79-2.75,1.45
			c-1.2-0.34-1.91-1.53-1.59-2.67c0.32-1.14,1.55-1.79,2.75-1.46C304.49,181.98,305.2,183.18,304.88,184.32z"/>
		
			<radialGradient id="SVGID_6_" cx="356.9868" cy="273.2822" r="3.0066" gradientTransform="matrix(0.9628 0.2703 0.2703 -0.9628 -113.9068 351.2783)" gradientUnits="userSpaceOnUse">
			<stop  offset="0" style="stop-color:#F2CA20"/>
			<stop  offset="0.0144" style="stop-color:#F2C71F"/>
			<stop  offset="0.3516" style="stop-color:#F88E12"/>
			<stop  offset="0.64" style="stop-color:#FC6308"/>
			<stop  offset="0.8654" style="stop-color:#FE4A02"/>
			<stop  offset="1" style="stop-color:#FF4000"/>
		</radialGradient>
		<path style="fill:url(#SVGID_6_);stroke:#000000;stroke-width:0.1869;" d="M306.12,186.13c-0.32,1.14-1.55,1.79-2.75,1.45
			c-1.2-0.34-1.91-1.53-1.59-2.67c0.32-1.14,1.55-1.79,2.75-1.45C305.73,183.8,306.44,184.99,306.12,186.13z"/>
		
			<radialGradient id="SVGID_7_" cx="361.6284" cy="282.207" r="3.005" gradientTransform="matrix(0.9628 0.2703 0.2703 -0.9628 -113.9068 351.2783)" gradientUnits="userSpaceOnUse">
			<stop  offset="0" style="stop-color:#F2CA20"/>
			<stop  offset="0.0144" style="stop-color:#F2C71F"/>
			<stop  offset="0.3516" style="stop-color:#F88E12"/>
			<stop  offset="0.64" style="stop-color:#FC6308"/>
			<stop  offset="0.8654" style="stop-color:#FE4A02"/>
			<stop  offset="1" style="stop-color:#FF4000"/>
		</radialGradient>
		<path style="fill:url(#SVGID_7_);stroke:#000000;stroke-width:0.1869;" d="M313,178.79c-0.32,1.14-1.55,1.79-2.75,1.45
			c-1.2-0.34-1.91-1.53-1.59-2.67c0.32-1.14,1.55-1.79,2.75-1.45C312.61,176.46,313.32,177.66,313,178.79z"/>
		
			<radialGradient id="SVGID_8_" cx="362.082" cy="278.959" r="3.0058" gradientTransform="matrix(0.9628 0.2703 0.2703 -0.9628 -113.9068 351.2783)" gradientUnits="userSpaceOnUse">
			<stop  offset="0" style="stop-color:#F2CA20"/>
			<stop  offset="0.0144" style="stop-color:#F2C71F"/>
			<stop  offset="0.3516" style="stop-color:#F88E12"/>
			<stop  offset="0.64" style="stop-color:#FC6308"/>
			<stop  offset="0.8654" style="stop-color:#FE4A02"/>
			<stop  offset="1" style="stop-color:#FF4000"/>
		</radialGradient>
		<path style="fill:url(#SVGID_8_);stroke:#000000;stroke-width:0.1869;" d="M312.56,182.05c-0.32,1.14-1.55,1.79-2.75,1.45
			c-1.2-0.34-1.91-1.53-1.59-2.67c0.32-1.14,1.55-1.79,2.75-1.45C312.17,179.71,312.88,180.91,312.56,182.05z"/>
		
			<radialGradient id="SVGID_9_" cx="367.3125" cy="282.2065" r="3.006" gradientTransform="matrix(0.9628 0.2703 0.2703 -0.9628 -113.9068 351.2783)" gradientUnits="userSpaceOnUse">
			<stop  offset="0" style="stop-color:#F2CA20"/>
			<stop  offset="0.0144" style="stop-color:#F2C71F"/>
			<stop  offset="0.3516" style="stop-color:#F88E12"/>
			<stop  offset="0.64" style="stop-color:#FC6308"/>
			<stop  offset="0.8654" style="stop-color:#FE4A02"/>
			<stop  offset="1" style="stop-color:#FF4000"/>
		</radialGradient>
		<path style="fill:url(#SVGID_9_);stroke:#000000;stroke-width:0.1869;" d="M318.47,180.33c-0.32,1.14-1.55,1.79-2.75,1.45
			c-1.2-0.34-1.91-1.53-1.59-2.67c0.32-1.14,1.55-1.79,2.74-1.45C318.08,178,318.79,179.19,318.47,180.33z"/>
		
			<radialGradient id="SVGID_10_" cx="366.1016" cy="286.8979" r="3.0054" gradientTransform="matrix(0.9628 0.2703 0.2703 -0.9628 -113.9068 351.2783)" gradientUnits="userSpaceOnUse">
			<stop  offset="0" style="stop-color:#F2CA20"/>
			<stop  offset="0.0144" style="stop-color:#F2C71F"/>
			<stop  offset="0.3516" style="stop-color:#F88E12"/>
			<stop  offset="0.64" style="stop-color:#FC6308"/>
			<stop  offset="0.8654" style="stop-color:#FE4A02"/>
			<stop  offset="1" style="stop-color:#FF4000"/>
		</radialGradient>
		<path style="fill:url(#SVGID_10_);stroke:#000000;stroke-width:0.1869;" d="M318.57,175.49c-0.32,1.14-1.55,1.79-2.75,1.45
			c-1.19-0.34-1.91-1.53-1.59-2.67c0.32-1.14,1.55-1.79,2.75-1.45C318.18,173.15,318.89,174.35,318.57,175.49z"/>
		
			<radialGradient id="SVGID_11_" cx="382.897" cy="288.6357" r="3.0052" gradientTransform="matrix(0.9628 0.2703 0.2703 -0.9628 -113.9068 351.2783)" gradientUnits="userSpaceOnUse">
			<stop  offset="0" style="stop-color:#F2CA20"/>
			<stop  offset="0.0144" style="stop-color:#F2C71F"/>
			<stop  offset="0.3516" style="stop-color:#F88E12"/>
			<stop  offset="0.64" style="stop-color:#FC6308"/>
			<stop  offset="0.8654" style="stop-color:#FE4A02"/>
			<stop  offset="1" style="stop-color:#FF4000"/>
		</radialGradient>
		<path style="fill:url(#SVGID_11_);stroke:#000000;stroke-width:0.1869;" d="M335.21,178.36c-0.32,1.14-1.55,1.79-2.75,1.45
			c-1.2-0.34-1.91-1.53-1.59-2.67c0.32-1.14,1.55-1.79,2.74-1.45C334.82,176.02,335.53,177.22,335.21,178.36z"/>
		
			<radialGradient id="SVGID_12_" cx="378.7354" cy="281.1455" r="3.0068" gradientTransform="matrix(0.9628 0.2703 0.2703 -0.9628 -113.9068 351.2783)" gradientUnits="userSpaceOnUse">
			<stop  offset="0" style="stop-color:#F2CA20"/>
			<stop  offset="0.0144" style="stop-color:#F2C71F"/>
			<stop  offset="0.3516" style="stop-color:#F88E12"/>
			<stop  offset="0.64" style="stop-color:#FC6308"/>
			<stop  offset="0.8654" style="stop-color:#FE4A02"/>
			<stop  offset="1" style="stop-color:#FF4000"/>
		</radialGradient>
		<path style="fill:url(#SVGID_12_);stroke:#000000;stroke-width:0.1869;" d="M329.19,184.44c-0.32,1.14-1.55,1.79-2.75,1.45
			c-1.2-0.34-1.91-1.53-1.59-2.67c0.32-1.14,1.55-1.79,2.75-1.45C328.79,182.11,329.51,183.3,329.19,184.44z"/>
		
			<radialGradient id="SVGID_13_" cx="371.7866" cy="285.1743" r="3.0053" gradientTransform="matrix(0.9628 0.2703 0.2703 -0.9628 -113.9068 351.2783)" gradientUnits="userSpaceOnUse">
			<stop  offset="0" style="stop-color:#F2CA20"/>
			<stop  offset="0.0144" style="stop-color:#F2C71F"/>
			<stop  offset="0.3516" style="stop-color:#F88E12"/>
			<stop  offset="0.64" style="stop-color:#FC6308"/>
			<stop  offset="0.8654" style="stop-color:#FE4A02"/>
			<stop  offset="1" style="stop-color:#FF4000"/>
		</radialGradient>
		<path style="fill:url(#SVGID_13_);stroke:#000000;stroke-width:0.1869;" d="M323.58,178.69c-0.32,1.14-1.55,1.79-2.75,1.45
			c-1.19-0.34-1.9-1.53-1.59-2.67c0.32-1.14,1.55-1.79,2.75-1.45C323.19,176.35,323.9,177.55,323.58,178.69z"/>
		
			<radialGradient id="SVGID_14_" cx="365.4009" cy="279.5811" r="3.0057" gradientTransform="matrix(0.9628 0.2703 0.2703 -0.9628 -113.9068 351.2783)" gradientUnits="userSpaceOnUse">
			<stop  offset="0" style="stop-color:#F2CA20"/>
			<stop  offset="0.0144" style="stop-color:#F2C71F"/>
			<stop  offset="0.3516" style="stop-color:#F88E12"/>
			<stop  offset="0.64" style="stop-color:#FC6308"/>
			<stop  offset="0.8654" style="stop-color:#FE4A02"/>
			<stop  offset="1" style="stop-color:#FF4000"/>
		</radialGradient>
		<path style="fill:url(#SVGID_14_);stroke:#000000;stroke-width:0.1869;" d="M315.92,182.34c-0.32,1.14-1.55,1.79-2.75,1.45
			c-1.2-0.34-1.91-1.53-1.59-2.67c0.32-1.14,1.55-1.79,2.75-1.45S316.24,181.21,315.92,182.34z"/>
		
			<radialGradient id="SVGID_15_" cx="361.8691" cy="276.147" r="3.0059" gradientTransform="matrix(0.9628 0.2703 0.2703 -0.9628 -113.9068 351.2783)" gradientUnits="userSpaceOnUse">
			<stop  offset="0" style="stop-color:#F2CA20"/>
			<stop  offset="0.0144" style="stop-color:#F2C71F"/>
			<stop  offset="0.3516" style="stop-color:#F88E12"/>
			<stop  offset="0.64" style="stop-color:#FC6308"/>
			<stop  offset="0.8654" style="stop-color:#FE4A02"/>
			<stop  offset="1" style="stop-color:#FF4000"/>
		</radialGradient>
		<path style="fill:url(#SVGID_15_);stroke:#000000;stroke-width:0.1869;" d="M311.59,184.7c-0.32,1.14-1.55,1.79-2.74,1.45
			c-1.2-0.34-1.91-1.53-1.59-2.67c0.32-1.14,1.55-1.79,2.75-1.45C311.2,182.36,311.91,183.56,311.59,184.7z"/>
		
			<radialGradient id="SVGID_16_" cx="356.3301" cy="277.4131" r="3.0051" gradientTransform="matrix(0.9628 0.2703 0.2703 -0.9628 -113.9068 351.2783)" gradientUnits="userSpaceOnUse">
			<stop  offset="0" style="stop-color:#F2CA20"/>
			<stop  offset="0.0144" style="stop-color:#F2C71F"/>
			<stop  offset="0.3516" style="stop-color:#F88E12"/>
			<stop  offset="0.64" style="stop-color:#FC6308"/>
			<stop  offset="0.8654" style="stop-color:#FE4A02"/>
			<stop  offset="1" style="stop-color:#FF4000"/>
		</radialGradient>
		<path style="fill:url(#SVGID_16_);stroke:#000000;stroke-width:0.1869;" d="M306.6,181.98c-0.32,1.14-1.55,1.79-2.75,1.45
			c-1.2-0.34-1.91-1.53-1.59-2.67c0.32-1.14,1.55-1.79,2.75-1.45C306.21,179.65,306.92,180.84,306.6,181.98z"/>
		
			<radialGradient id="SVGID_17_" cx="354.502" cy="272.2637" r="3.0051" gradientTransform="matrix(0.9628 0.2703 0.2703 -0.9628 -113.9068 351.2783)" gradientUnits="userSpaceOnUse">
			<stop  offset="0" style="stop-color:#F2CA20"/>
			<stop  offset="0.0144" style="stop-color:#F2C71F"/>
			<stop  offset="0.3516" style="stop-color:#F88E12"/>
			<stop  offset="0.64" style="stop-color:#FC6308"/>
			<stop  offset="0.8654" style="stop-color:#FE4A02"/>
			<stop  offset="1" style="stop-color:#FF4000"/>
		</radialGradient>
		<path style="fill:url(#SVGID_17_);stroke:#000000;stroke-width:0.1869;" d="M303.45,186.44c-0.32,1.14-1.55,1.79-2.75,1.45
			c-1.2-0.34-1.91-1.53-1.59-2.67c0.32-1.14,1.55-1.79,2.75-1.45C303.06,184.11,303.77,185.3,303.45,186.44z"/>
		
			<radialGradient id="SVGID_18_" cx="363.1763" cy="285.8975" r="3.0058" gradientTransform="matrix(0.9628 0.2703 0.2703 -0.9628 -113.9068 351.2783)" gradientUnits="userSpaceOnUse">
			<stop  offset="0" style="stop-color:#F2CA20"/>
			<stop  offset="0.0144" style="stop-color:#F2C71F"/>
			<stop  offset="0.3516" style="stop-color:#F88E12"/>
			<stop  offset="0.64" style="stop-color:#FC6308"/>
			<stop  offset="0.8654" style="stop-color:#FE4A02"/>
			<stop  offset="1" style="stop-color:#FF4000"/>
		</radialGradient>
		<path style="fill:url(#SVGID_18_);stroke:#000000;stroke-width:0.1869;" d="M315.49,175.66c-0.32,1.14-1.55,1.79-2.74,1.45
			c-1.2-0.34-1.91-1.53-1.59-2.67c0.32-1.14,1.55-1.79,2.75-1.45C315.1,173.33,315.81,174.52,315.49,175.66z"/>
	</g>
</g>
<path style="fill:#FFFFFF;" d="M178.98,140.03"/>
<g>
	<path d="M280.36,242.51c0.31,0.19,0.74,0.34,1.21,0.34c0.7,0,1.1-0.36,1.1-0.9c0-0.49-0.28-0.78-0.99-1.04
		c-0.86-0.31-1.39-0.77-1.39-1.5c0-0.82,0.68-1.43,1.71-1.43c0.53,0,0.93,0.13,1.16,0.26l-0.19,0.56c-0.17-0.1-0.52-0.25-0.99-0.25
		c-0.72,0-0.99,0.43-0.99,0.79c0,0.49,0.32,0.74,1.05,1.02c0.89,0.35,1.34,0.78,1.34,1.55c0,0.81-0.59,1.53-1.84,1.53
		c-0.51,0-1.06-0.16-1.34-0.34L280.36,242.51z"/>
	<path d="M285.08,238.64v0.91h0.99v0.52h-0.99v2.04c0,0.47,0.14,0.73,0.52,0.73c0.19,0,0.3-0.02,0.4-0.05l0.03,0.52
		c-0.13,0.05-0.34,0.09-0.61,0.09c-0.32,0-0.58-0.11-0.74-0.29c-0.19-0.21-0.27-0.55-0.27-0.99v-2.07h-0.59v-0.52h0.59v-0.7
		L285.08,238.64z"/>
	<path d="M289.51,242.43c0,0.33,0.02,0.65,0.05,0.91h-0.62l-0.06-0.48h-0.02c-0.2,0.3-0.62,0.56-1.16,0.56
		c-0.77,0-1.16-0.54-1.16-1.09c0-0.92,0.81-1.42,2.28-1.41v-0.08c0-0.31-0.08-0.88-0.86-0.88c-0.36,0-0.73,0.1-0.99,0.28l-0.16-0.46
		c0.31-0.2,0.78-0.33,1.25-0.33c1.17,0,1.45,0.79,1.45,1.55V242.43L289.51,242.43z M288.83,241.4c-0.75-0.02-1.6,0.12-1.6,0.85
		c0,0.45,0.3,0.66,0.64,0.66c0.5,0,0.82-0.31,0.93-0.63c0.02-0.07,0.03-0.15,0.03-0.22V241.4z"/>
	<path d="M290.61,240.57c0-0.4-0.02-0.71-0.03-1.03h0.6l0.03,0.61h0.02c0.21-0.36,0.56-0.7,1.2-0.7c0.51,0,0.9,0.31,1.07,0.76h0.02
		c0.12-0.22,0.27-0.38,0.43-0.49c0.23-0.17,0.47-0.27,0.83-0.27c0.51,0,1.25,0.33,1.25,1.64v2.23h-0.67v-2.14
		c0-0.74-0.27-1.17-0.82-1.17c-0.4,0-0.7,0.29-0.82,0.62c-0.03,0.1-0.05,0.23-0.05,0.34v2.35h-0.67v-2.27
		c0-0.61-0.27-1.04-0.79-1.04c-0.42,0-0.75,0.35-0.85,0.69c-0.04,0.1-0.05,0.22-0.05,0.34v2.29h-0.67V240.57L290.61,240.57z"/>
	<path d="M297.53,241.56c0.02,0.93,0.6,1.31,1.29,1.31c0.49,0,0.8-0.09,1.05-0.19l0.12,0.49c-0.24,0.11-0.66,0.24-1.27,0.24
		c-1.16,0-1.86-0.78-1.86-1.91c0-1.15,0.68-2.05,1.78-2.05c1.24,0,1.56,1.09,1.56,1.78c0,0.14-0.01,0.25-0.02,0.33L297.53,241.56z
		 M299.54,241.07c0.01-0.43-0.18-1.12-0.95-1.12c-0.7,0-1,0.64-1.06,1.12H299.54z"/>
	<path d="M301.06,240.57c0-0.4-0.01-0.71-0.03-1.03h0.61l0.04,0.62h0.02c0.19-0.35,0.63-0.7,1.25-0.7c0.52,0,1.34,0.31,1.34,1.61
		v2.26h-0.69v-2.18c0-0.61-0.23-1.13-0.88-1.13c-0.44,0-0.8,0.32-0.92,0.7c-0.03,0.09-0.05,0.21-0.05,0.32v2.28h-0.69V240.57
		L301.06,240.57z"/>
</g>
<g>
	<g>
		<text transform="matrix(1 0 0 1 123.5942 104.0068)" style="font-family:'Helvetica'; font-size:7.7701;">Stigma</text>
		<path style="fill:none;stroke:#000000;" d="M151.05,101.42c0,3.29-2.67,5.96-5.96,5.96h-18.65c-3.29,0-5.96-2.67-5.96-5.96l0,0
			c0-3.29,2.67-5.96,5.96-5.96h18.65C148.38,95.46,151.05,98.13,151.05,101.42L151.05,101.42z"/>
	</g>
	<line style="fill:none;stroke:#000000;" x1="151.05" y1="101.42" x2="201.04" y2="140.53"/>
</g>
<g>
	<g>
		<text transform="matrix(1 0 0 1 112.9746 118.7705)" style="font-family:'Helvetica'; font-size:7.7701;">Style</text>
		<path style="fill:none;stroke:#000000;" d="M136.8,116.18c0,3.29-2.67,5.96-5.96,5.96H112.2c-3.29,0-5.96-2.67-5.96-5.96l0,0
			c0-3.29,2.67-5.96,5.96-5.96h18.65C134.14,110.22,136.8,112.89,136.8,116.18L136.8,116.18z"/>
	</g>
	<line style="fill:none;stroke:#000000;" x1="136.8" y1="117.48" x2="197.93" y2="150.63"/>
</g>
<g>
	<g>
		<text transform="matrix(1 0 0 1 99.5068 133.5342)" style="font-family:'Helvetica'; font-size:6.2161;">Filament</text>
		<path style="fill:none;stroke:#000000;" d="M126.96,131.98c0,3.29-2.67,5.96-5.96,5.96h-18.65c-3.29,0-5.96-2.67-5.96-5.96l0,0
			c0-3.29,2.67-5.96,5.96-5.96H121C124.29,126.02,126.96,128.69,126.96,131.98L126.96,131.98z"/>
	</g>
	<line style="fill:none;stroke:#000000;" x1="126.7" y1="133.53" x2="172.55" y2="153.22"/>
</g>
<g>
	<g>
		<text transform="matrix(1 0 0 1 336.7529 199.3203)" style="font-family:'Helvetica'; font-size:7.7701;">Anther</text>
		<path style="fill:none;stroke:#000000;" d="M363.17,196.73c0,3.29-2.67,5.96-5.96,5.96h-18.65c-3.29,0-5.96-2.67-5.96-5.96l0,0
			c0-3.29,2.67-5.96,5.96-5.96h18.65C360.5,190.77,363.17,193.44,363.17,196.73L363.17,196.73z"/>
	</g>
	<line style="fill:none;stroke:#000000;stroke-width:0.8841;" x1="332.61" y1="196.73" x2="316.29" y2="190.51"/>
</g>
<g>
	<g>
		<text transform="matrix(1 0 0 1 276.9248 149.0742)" style="font-family:'Helvetica'; font-size:5.4391;">Connective</text>
		<path style="fill:none;stroke:#000000;" d="M305.41,147.52c0,3.29-2.67,5.96-5.96,5.96h-18.65c-3.29,0-5.96-2.67-5.96-5.96l0,0
			c0-3.29,2.67-5.96,5.96-5.96h18.65C302.75,141.56,305.41,144.23,305.41,147.52L305.41,147.52z"/>
	</g>
	<line style="fill:none;stroke:#000000;stroke-width:0.8841;" x1="304.12" y1="150.89" x2="320.7" y2="171.87"/>
</g>
<g>
	<g>
		<text transform="matrix(1 0 0 1 294.6016 213.5659)" style="font-family:'Helvetica'; font-size:5.4391;">Microsporangium</text>
		<path style="fill:none;stroke:#000000;" d="M338.31,211.95c0,3.22-2.61,5.83-5.83,5.83h-34.77c-3.22,0-5.83-2.61-5.83-5.83l0,0
			c0-3.22,2.61-5.83,5.83-5.83h34.77C335.7,206.12,338.31,208.73,338.31,211.95L338.31,211.95z"/>
	</g>
	<line style="fill:none;stroke:#000000;" x1="308.59" y1="206.12" x2="309.17" y2="184.3"/>
</g>
<g>
	<g>
		<text transform="matrix(1 0 0 1 138.2271 220.688)" style="font-family:'Helvetica'; font-size:7.7701;">Nectary</text>
		<path style="fill:none;stroke:#000000;" d="M166.78,218.1c0,3.29-2.67,5.96-5.96,5.96h-18.65c-3.29,0-5.96-2.67-5.96-5.96l0,0
			c0-3.29,2.67-5.96,5.96-5.96h18.65C164.12,212.14,166.78,214.81,166.78,218.1L166.78,218.1z"/>
	</g>
	<line style="fill:none;stroke:#000000;" x1="165.62" y1="214.47" x2="179.6" y2="209.42"/>
</g>
<g>
	<g>
		<text transform="matrix(1 0 0 1 192.4248 230.0776)" style="font-family:'Helvetica'; font-size:5.4391;">Articulation</text>
		<path style="fill:none;stroke:#000000;" d="M220.91,228.52c0,3.29-2.67,5.96-5.96,5.96h-18.65c-3.29,0-5.96-2.67-5.96-5.96l0,0
			c0-3.29,2.67-5.96,5.96-5.96h18.65C218.25,222.57,220.91,225.23,220.91,228.52L220.91,228.52z"/>
	</g>
	<line style="fill:none;stroke:#000000;" x1="190.68" y1="225.74" x2="184.07" y2="218.36"/>
</g>
<g>
	<g>
		<text transform="matrix(1 0 0 1 189.8979 249.2432)" style="font-family:'Helvetica'; font-size:7.7701;">Pedicel</text>
		<path style="fill:none;stroke:#000000;" d="M217.68,246.65c0,3.29-2.67,5.96-5.96,5.96h-18.65c-3.29,0-5.96-2.67-5.96-5.96l0,0
			c0-3.29,2.67-5.96,5.96-5.96h18.65C215.01,240.7,217.68,243.36,217.68,246.65L217.68,246.65z"/>
	</g>
	<line style="fill:none;stroke:#000000;" x1="187.96" y1="243.22" x2="177.08" y2="234.09"/>
</g>
<g>
	<g>
		<text transform="matrix(1 0 0 1 66.5479 159.3047)" style="font-family:'Helvetica'; font-size:7.7701;">Ovule</text>
		<path style="fill:none;stroke:#000000;" d="M91.61,156.52c0,3.29-2.67,5.96-5.96,5.96H67c-3.29,0-5.96-2.67-5.96-5.96l0,0
			c0-3.29,2.67-5.96,5.96-5.96h18.65C88.94,150.56,91.61,153.23,91.61,156.52L91.61,156.52z"/>
	</g>
	<line style="fill:none;stroke:#000000;stroke-width:0.8841;" x1="69.85" y1="162.22" x2="65.77" y2="186.11"/>
	<line style="fill:none;stroke:#000000;stroke-width:0.8841;" x1="69.85" y1="162.22" x2="54.31" y2="183"/>
</g>
</svg>
