<?xml version="1.0" encoding="utf-8"?>
<!-- Generator: Adobe Illustrator 14.0.0, SVG Export Plug-In . SVG Version: 6.00 Build 43363)  -->
<!DOCTYPE svg PUBLIC "-//W3C//DTD SVG 1.0//EN" "http://www.w3.org/TR/2001/REC-SVG-20010904/DTD/svg10.dtd">
<svg version="1.0" id="Layer_2" xmlns="http://www.w3.org/2000/svg" xmlns:xlink="http://www.w3.org/1999/xlink" x="0px" y="0px"
	 width="156px" height="153.457px" viewBox="0 0 156 153.457" enable-background="new 0 0 156 153.457" xml:space="preserve">
<path fill-rule="evenodd" clip-rule="evenodd" fill="#B5CAF5" stroke="#0011A6" d="M94.545,71.928
	c-0.28,1.219-1.506,1.502-1.499,3.01c-1.219,0.285-1.5,1.508-3.012,1.504c-1.219,0.287-1.5,1.508-3.006,1.506
	c0-1.004,0-2.008,0-3.01c1.219-0.287,1.5-1.508,3.006-1.506c1.462-0.039,1.168-1.842,1.506-3.01
	C93.292,70.18,94.214,70.758,94.545,71.928z"/>
<path fill-rule="evenodd" clip-rule="evenodd" fill="#B5CAF5" stroke="#0011A6" d="M61.452,80.955
	c0.373-1.633,2.992-1.021,3.007-3.008c1.837,0.168,3.562,0.449,3.01,3.008C65.462,80.955,63.459,80.955,61.452,80.955z"/>
<path fill-rule="evenodd" clip-rule="evenodd" fill="#B5CAF5" stroke="#0011A6" d="M74.991,95.996c-2.678-1.104-0.217-2.73,0-4.512
	c1.509,0.006,1.791-1.219,3.01-1.506c0,1.004,0,2.008,0,3.012C77.333,94.33,76.676,95.678,74.991,95.996z"/>
<path fill-rule="evenodd" clip-rule="evenodd" fill="#B5CAF5" stroke="#0011A6" d="M71.982,56.883
	c-3.012,1.256-1.756,7.422-1.107,9.678c0.603,2.094,1.107,3.051,1.107,5.367c2.378-0.068,3.156,1.189,1.503,3.01
	c2.557,0,3.685-0.348,5.553,1.672c1.367,1.484,2.457,2.074,3.474-0.168c-2.301-0.215,1.37-7.357,1.421-9.111
	c0.103-3.621-0.007-5.055-2.793-7.568C78.582,57.447,75.392,56.602,71.982,56.883"/>
<path fill-rule="evenodd" clip-rule="evenodd" fill="#B5CAF5" stroke="#0011A6" d="M98.605,77.928
	c-2.742,0.686,7.075,0.02,10.988,0.02c0-3.818-0.044-8.021-4.647-8.893c-2.786-0.523-2.411,0.084-3.862,1.885
	c-1.348,1.68-4.285,0.988-6.538,0.988c-0.601,2.588-4.75,6.023-7.517,6.02c0-1.867-0.392-2.422,0.984-3.529
	c0.509-0.406,3.306-1.08,1.714-2.186c-1.86-1.295-5.594,2.984-5.71,4.209c-2.008,0-2.516,2.699-4.37,0.82
	c-2.26-2.293-3.027-2.324-6.162-2.324c3.045-3.354-4.511-4.826-4.511,0c-2.855,0.203-8.662-3.545-7.522,3.01
	c1.539,0,5.43-0.623,6.039,1.48c0.769,2.66-2.532,1.527-4.031,1.527c-3.068,0-2.775,1.504,0.248,1.504
	c5.679,0,7.147,4.789,12.787,4.514c0.349,1.996-1.425,2.693-1.504,4.512c1.361,0.006,1.798-1.219,3.01-1.506
	c0,1.688,1.221,5.338,1.719,1.719c-0.042-0.941,0.39-1.516,1.293-1.719c0-2.174-1.166-4.512,1.499-4.512
	c2.398,0,1.817,1.664,3.316,2.707c1.532,1.064,3.718-0.178,5.579,1.082c1.571,1.072,3.139,1.543,3.139-0.777
	c0-3.238-6.513-6.176-3.76-6.176c2.162,0,3.926,1.664,4.61-1.344c-0.502,0,3.711,0.102,3.209,0.102"/>
<path fill-rule="evenodd" clip-rule="evenodd" fill="#B5CAF5" stroke="#0011A6" d="M99.063,85.467c3.005,0,6.017,0,9.024,0
	c2.251-0.258,5.552,0.539,6.017-1.506c1.512,0,1.793,1.219,3.012,1.506c0.006,1.512-1.219,1.795-1.506,3.012
	c-1.212,0.795-2.442,1.566-4.511,1.5c-2.51,0-5.016,0-7.525,0C104.167,86.373,96.724,90.816,99.063,85.467z"/>
<path fill-rule="evenodd" clip-rule="evenodd" fill="#B5CAF5" stroke="#0011A6" d="M141.185,86.973
	c0.403-5.926-8.889-9.025-13.542-9.025c-2.926,0-2.779-1.141-5.293-1.648c-1.636-0.328-5.541-0.682-6.613,1.082
	c-1.476,2.443-24.951,1.025-24.951,4.922c0,1.518-3.193,3.023-1.021,2.479c3.121,0,27.552,1.531,30.355,2.191
	c-0.013,2.73,3.685,6.617,6.017,7.523c-4.296-4.75,6.159-1.561,7.584-1.566c2.414-0.006,5.583,0.803,7.751-0.656
	C143.119,91.164,143.432,87.609,141.185,86.973"/>
<path fill-rule="evenodd" clip-rule="evenodd" fill="#B5CAF5" stroke="#0011A6" d="M58.442,89.979
	c-2.209,0.637-2.98,1.506-5.265,1.506c-2.758,0-5.515,0-8.272,0c-2.492,0-4.98,0.012-7.473,0.055
	c-2.658,0.037-2.318,1.934-4.333,2.518c-1.4,0.402-2.904,0.127-4.331,0.348c-2.01,0.312-1.252,1.592-3.422,1.592
	c-3.231,2.057-10.639,6.293-10.531,10.535c-0.502,0-1.004,0-1.502,0c-0.362,2.146-2.479,2.533-3.009,4.51
	c-0.258,3.066,1.446,4.77,4.511,4.512c3.492,0,6.164,1.881,9.77,1.635c3.357-0.219,6.877-1.34,9.665-3.244
	c2.694-1.836,5.562-2.602,7.906-5.148c1.944-2.111,5.072-3.881,5.759-6.775c-0.014-3.232,3.224-4.951,4.511-7.523
	c1.09,0,8.741-2.246,8.868-3.164c3.135-0.141,8.985-2.254,8.762-6.551C66.537,85.277,61.254,88.777,58.442,89.979"/>
<path fill-rule="evenodd" clip-rule="evenodd" fill="#B5CAF5" stroke="#0011A6" d="M90.035,105.025c0-3.57-1.708-4.936-3.172-8.117
	c-1.247-2.719-5.294-3.562-5.851-6.93c-0.903,0.203-1.335,0.777-1.293,1.719c-0.289,2.119-1.252,0.74-2.42,2.596
	c-0.625,0.992-2.596,2.84-3.468,0.785c-0.484-1.139,1.028-2.51,1.159-3.594c-2.102,0.82-3.693,2.412-4.515,4.512
	c-2.302,0.012-4.937-0.465-7.146,0.373c-3.659,1.389-3.979,9.465-3.392,12.678c0.542,2.98,6.171,0.402,6.197,3.832
	c0.013,1.512-1.162,5.332,1.332,5.686c0,1.535-0.865,5.682,1.506,6.018c-0.557,3.986,3.489,3.846,5.53,5.754
	c0.463,0.496,0.625,1.084,0.486,1.77c2.008,0,4.014,0,6.021,0c0.421-1.836,2.179-3.025,2.869-4.646
	c0.901-2.111,3.589-3.299,4.647-5.889c-0.362-2.143,1.103-2.969,1.646-4.807c0.222-0.91,0.171-1.811-0.14-2.711
	c1.512-0.041,1.242-2.094,1.506-3.012C91.461,109.525,92.452,105.332,90.035,105.025"/>
<path fill-rule="evenodd" clip-rule="evenodd" fill="#B5CAF5" stroke="#0011A6" d="M102.068,61.398
	c0.736-3.545-6.936-4.197-8.649-2.201c-2.748,3.201-3.384,3.387-3.384,8.219c-3.716,0.508,0.099,5.555,0,6.016
	c2.644-0.072-0.287-3.734,2.987-2.986c0.802,0.191,1.309,0.688,1.523,1.482c1.506,0,3.012,0,4.518,0
	C102.075,71.928,106.09,62.529,102.068,61.398"/>
<path fill-rule="evenodd" clip-rule="evenodd" fill="#B5CAF5" stroke="#0011A6" d="M61.452,77.947
	c-0.393-2.26,2.561-3.588,0.765-5.527c-1.973-2.129-5.381-1.822-7.32-2.959c-1.559-0.916-5.182-2.1-6.981-2.045
	c0.758-1.723-2.613-1.871-3.494-1.814c-0.842,0.055-3.144,0.416-2.527,1.814c-3.26,0-3.643-0.129-5.738,2.211
	c-2.718,3.041-7.998-1.006-10.504,2.605c0.081,1.324-0.544,1.701-1.874,1.137c-1.132-0.008-2.733,0.115-2.944,1.568
	c0,3.684,1.358,6.006,4.505,8.133c1.804,1.221,4.771,1.422,6.92,2.109c3.264,1.033,5.809-0.039,8.727-1.377
	c2.1-0.965,1.683-3.504,3.325-4.277c2.086-0.984,4.914,0.225,7.114,0.094c1.002-0.059,9.542,1.449,10.028,2.84
	c0-2.832,2.99-2.314,3.007-4.512C63.455,77.947,62.456,77.947,61.452,77.947"/>
<path fill-rule="evenodd" clip-rule="evenodd" fill="#B5CAF5" stroke="#0011A6" d="M126.137,94.496
	c-3.94-1.535-4.884-9.047-9.021-9.029c0.023,5.98-10.009,4.512-13.542,4.512c0.576-3.488-6.733,0.568-4.511-4.512
	c-3.876,0-7.003,3.041-2.688,5.693c1.775,1.096,3.312-0.08,5.002,1.268c1.462,1.168,3.556,1.328,5.313,1.713
	c2.926,0.631,0.509,7.475,4.408,9.379c0.201,0.9,0.769,1.334,1.718,1.291c1.157-0.213,1.69,0.262,1.592,1.412
	c1.225,0.854,2.327,2.684,4.004,3.143c0.875,0.232,7.273,2.154,7.725,3.182c2.529,0,5.057,0.051,7.584,0.055
	c2.124,0.008,2.633-1.174,4.433-1.578c4.824-1.096,2.297-6.678,0.153-9.004C135.039,98.457,130.447,96.479,126.137,94.496"/>
<path fill="none" d="M-6.136,76.952c46.504-46.504,121.773-46.504,168.273,0"/>
<text transform="matrix(0.9389 -0.3442 0.3442 0.9389 23.2271 54.3887)"><tspan x="0" y="0" font-family="'GillSans'" font-size="37.6095">M</tspan><tspan x="28.055" y="0.095" font-family="'GillSans'" font-size="37.6095" rotate="12.449">A</tspan><tspan x="51.472" y="5.513" font-family="'GillSans'" font-size="37.6095" rotate="22.075">S</tspan><tspan x="66.683" y="11.14" font-family="'GillSans'" font-size="37.6095" rotate="32.068">C</tspan><tspan x="88.172" y="24.885" font-family="'GillSans'" font-size="37.6095" rotate="42.572">P</tspan></text>
<g>
	<g opacity="0.65">
		<g>
			<g>
				<path fill-rule="evenodd" clip-rule="evenodd" fill="#091372" d="M21.546,99.112c-1.193,0.461-2.129-0.253-2.846,1.109
					c-0.594,1.126,0.14,2.501,0.824,3.333c1.977,2.397,3.725-0.412,5.578-2.041c-0.742-1.341-2.119-1.387-2.918-2.628
					c-0.241,0.149-0.452,0.336-0.657,0.538"/>
			</g>
			<g>
				<path fill-rule="evenodd" clip-rule="evenodd" fill="#091372" d="M32.453,104.854c-0.711-1.43,0.066-2.675-1.709-3.41
					c-1.468-0.607-3.094,0.464-4.048,1.411c-2.751,2.734,0.944,4.581,3.183,6.697c1.58-1.077,1.479-2.795,2.928-3.931
					c-0.212-0.283-0.469-0.523-0.743-0.756"/>
			</g>
		</g>
	</g>
	<g opacity="0.65">
		<g>
			<g>
				<path fill-rule="evenodd" clip-rule="evenodd" fill="#091372" d="M43.532,100.797c0.891-0.683,1.854-0.313,2.121-1.637
					c0.222-1.094-0.735-2.07-1.518-2.602c-2.255-1.529-3.031,1.268-4.189,3.096c0.955,0.945,2.126,0.644,3.104,1.49
					c0.167-0.184,0.298-0.394,0.421-0.614"/>
			</g>
		</g>
	</g>
	<g opacity="0.65">
		<g>
			<g>
				<path fill-rule="evenodd" clip-rule="evenodd" fill="#091372" d="M30.437,72.683c0.282,0.591-0.045,1.098,0.679,1.41
					c0.6,0.259,1.273-0.17,1.671-0.553c1.147-1.105-0.358-1.887-1.264-2.77c-0.655,0.433-0.624,1.138-1.227,1.595
					c0.085,0.117,0.188,0.218,0.3,0.314"/>
			</g>
		</g>
	</g>
	<g opacity="0.65">
		<g>
			<g>
				<path fill-rule="evenodd" clip-rule="evenodd" fill="#091372" d="M32.032,79.844c-0.646-1.296,0.059-2.427-1.553-3.091
					c-1.333-0.55-2.807,0.424-3.671,1.284c-2.493,2.483,0.861,4.154,2.895,6.071c1.433-0.979,1.339-2.536,2.651-3.568
					c-0.192-0.257-0.426-0.475-0.676-0.685"/>
			</g>
		</g>
	</g>
	<g opacity="0.65">
		<g>
			<g>
				<path fill-rule="evenodd" clip-rule="evenodd" fill="#091372" d="M45.512,76.67c-0.503,0.817-1.386,0.816-1.195,1.956
					c0.157,0.942,1.221,1.431,2.008,1.616c2.271,0.532,2.036-1.939,2.403-3.756c-1.053-0.463-1.896,0.136-2.937-0.242
					c-0.077,0.199-0.118,0.406-0.148,0.62"/>
			</g>
		</g>
	</g>
	<g opacity="0.65">
		<g>
			<g>
				<path fill-rule="evenodd" clip-rule="evenodd" fill="#091372" d="M38.196,71.784c-0.572,1.388-1.936,1.608-1.357,3.32
					c0.479,1.416,2.243,1.903,3.505,1.993c3.64,0.256,2.66-3.504,2.772-6.399c-1.74-0.452-2.895,0.683-4.596,0.359
					c-0.069,0.325-0.08,0.656-0.074,0.995"/>
			</g>
			<g>
				<path fill-rule="evenodd" clip-rule="evenodd" fill="#091372" d="M49.37,75.591c-0.944,0.042-1.432-0.677-2.254,0.108
					c-0.68,0.648-0.489,1.783-0.205,2.526c0.82,2.143,2.703,0.586,4.384-0.118c-0.205-1.113-1.157-1.469-1.425-2.524
					c-0.204,0.047-0.396,0.128-0.587,0.222"/>
			</g>
			<g>
				<path fill-rule="evenodd" clip-rule="evenodd" fill="#091372" d="M58.292,70.883c-0.767-0.311-0.893-1.061-1.834-0.734
					c-0.777,0.269-1.04,1.242-1.084,1.938c-0.127,2.006,1.94,1.452,3.535,1.503c0.242-0.961-0.387-1.592-0.215-2.53
					c-0.18-0.037-0.362-0.042-0.549-0.037"/>
			</g>
		</g>
	</g>
	<g opacity="0.65">
		<g>
			<g>
				<path fill-rule="evenodd" clip-rule="evenodd" fill="#091372" d="M74.977,82.592c-0.888,0.223-1.489-0.365-2.118,0.537
					c-0.521,0.748-0.12,1.789,0.293,2.439c1.193,1.876,2.68,0.034,4.14-0.959c-0.409-1.018-1.383-1.172-1.841-2.122
					c-0.185,0.085-0.351,0.198-0.515,0.323"/>
			</g>
			<g>
				<path fill-rule="evenodd" clip-rule="evenodd" fill="#091372" d="M84.506,84.621c0.084-0.757,0.718-1.056,0.195-1.808
					c-0.433-0.623-1.36-0.612-1.987-0.479c-1.81,0.386-0.804,2.08-0.452,3.507c0.912-0.025,1.314-0.74,2.188-0.821
					c-0.012-0.169-0.053-0.331-0.104-0.495"/>
			</g>
		</g>
	</g>
	<g opacity="0.65">
		<g>
			<g>
				<path fill-rule="evenodd" clip-rule="evenodd" fill="#091372" d="M76.022,74.166c-0.084-0.913,0.592-1.417-0.205-2.18
					c-0.66-0.631-1.752-0.395-2.461-0.086c-2.04,0.891-0.446,2.647,0.312,4.245c1.068-0.248,1.372-1.188,2.384-1.494
					c-0.056-0.196-0.143-0.378-0.241-0.56"/>
			</g>
			<g>
				<path fill-rule="evenodd" clip-rule="evenodd" fill="#091372" d="M75.006,61.713c-1.518,0.186-2.393-0.914-3.621,0.454
					c-1.018,1.132-0.568,2.94-0.018,4.104c1.591,3.354,4.435,0.608,7.059-0.737c-0.469-1.77-2.051-2.227-2.613-3.896
					c-0.324,0.102-0.623,0.257-0.92,0.431"/>
			</g>
		</g>
	</g>
	<g opacity="0.65">
		<g>
			<g>
				<path fill-rule="evenodd" clip-rule="evenodd" fill="#091372" d="M90.234,78.934c-0.511-1.619,0.512-2.799-1.231-3.863
					c-1.442-0.881-3.325-0.025-4.484,0.812c-3.341,2.417,0.234,4.967,2.236,7.56c1.837-0.87,2.015-2.691,3.725-3.644
					c-0.177-0.333-0.406-0.628-0.657-0.917"/>
			</g>
			<g>
				<path fill-rule="evenodd" clip-rule="evenodd" fill="#091372" d="M95.441,76.39c0.111-0.709,0.721-0.962,0.261-1.694
					c-0.38-0.604-1.254-0.635-1.85-0.535c-1.721,0.286-0.847,1.924-0.576,3.282c0.859,0.017,1.269-0.64,2.096-0.679
					c-0.005-0.159-0.036-0.314-0.076-0.471"/>
			</g>
			<g>
				<path fill-rule="evenodd" clip-rule="evenodd" fill="#091372" d="M105.469,75.114c-0.332,0.938-1.227,1.129-0.787,2.243
					c0.365,0.92,1.549,1.184,2.387,1.201c2.417,0.047,1.643-2.408,1.62-4.328c-1.167-0.24-1.892,0.549-3.029,0.393
					c-0.034,0.218-0.031,0.437-0.016,0.66"/>
			</g>
		</g>
	</g>
	<g opacity="0.65">
		<g>
			<g>
				<path fill-rule="evenodd" clip-rule="evenodd" fill="#091372" d="M95.684,80.27c0.266,0.567-0.052,1.049,0.637,1.354
					c0.57,0.253,1.218-0.151,1.602-0.514c1.104-1.046-0.326-1.806-1.184-2.657c-0.63,0.407-0.606,1.082-1.187,1.513
					c0.081,0.113,0.179,0.21,0.284,0.304"/>
			</g>
			<g>
				<path fill-rule="evenodd" clip-rule="evenodd" fill="#091372" d="M106.324,84.171c0.224-0.789,0.95-0.994,0.528-1.887
					c-0.349-0.738-1.336-0.893-2.027-0.862c-1.991,0.09-1.224,2.068-1.104,3.647c0.974,0.136,1.528-0.552,2.473-0.483
					c0.017-0.181,0.002-0.361-0.022-0.544"/>
			</g>
			<g>
				<path fill-rule="evenodd" clip-rule="evenodd" fill="#091372" d="M114.967,82.32c0.736-1.389,2.18-1.479,1.748-3.322
					c-0.355-1.523-2.145-2.209-3.449-2.43c-3.767-0.634-3.125,3.383-3.535,6.387c1.77,0.646,3.084-0.419,4.824,0.09
					c0.105-0.332,0.15-0.676,0.179-1.028"/>
			</g>
			<g>
				<path fill-rule="evenodd" clip-rule="evenodd" fill="#091372" d="M120.077,80.753c0.969-0.425,1.769,0.13,2.312-1.022
					c0.448-0.953-0.209-2.062-0.807-2.725c-1.723-1.908-3.062,0.479-4.534,1.895c0.664,1.08,1.804,1.067,2.51,2.063
					c0.194-0.132,0.361-0.294,0.523-0.469"/>
			</g>
			<g>
				<path fill-rule="evenodd" clip-rule="evenodd" fill="#091372" d="M128.113,91.111c0.811-0.939,1.937-0.757,1.929-2.25
					c-0.007-1.234-1.263-2.076-2.229-2.475c-2.785-1.148-2.997,2.054-3.84,4.294c1.248,0.808,2.447,0.219,3.696,0.915
					c0.14-0.237,0.234-0.493,0.317-0.76"/>
			</g>
			<g>
				<path fill-rule="evenodd" clip-rule="evenodd" fill="#091372" d="M135.955,92.725c1.465-0.723,2.736,0.077,3.493-1.736
					c0.627-1.5-0.464-3.165-1.43-4.146c-2.788-2.823-4.689,0.951-6.862,3.234c1.098,1.619,2.854,1.521,4.012,3.008
					c0.291-0.216,0.537-0.478,0.775-0.758"/>
			</g>
		</g>
	</g>
	<g opacity="0.65">
		<g>
			<g>
				<path fill-rule="evenodd" clip-rule="evenodd" fill="#091372" d="M115.55,95.85c0.114-0.617,0.653-0.825,0.269-1.477
					c-0.318-0.538-1.084-0.585-1.607-0.513c-1.513,0.211-0.786,1.665-0.582,2.86c0.752,0.034,1.127-0.53,1.852-0.545
					c0-0.14-0.024-0.275-0.056-0.414"/>
			</g>
			<g>
				<path fill-rule="evenodd" clip-rule="evenodd" fill="#091372" d="M117.851,100.424c-0.433,1.45-1.776,1.81-1.021,3.466
					c0.623,1.37,2.441,1.679,3.715,1.64c3.674-0.115,2.308-3.783,2.125-6.695c-1.791-0.275-2.831,0.979-4.568,0.828
					c-0.037,0.334-0.014,0.666,0.026,1.005"/>
			</g>
			<g>
				<path fill-rule="evenodd" clip-rule="evenodd" fill="#091372" d="M125.803,104.682c-0.207,0.848-0.972,1.094-0.488,2.027
					c0.399,0.772,1.457,0.898,2.189,0.838c2.115-0.172,1.222-2.247,1.032-3.922c-1.04-0.107-1.604,0.646-2.61,0.61
					c-0.012,0.193,0.012,0.384,0.044,0.578"/>
			</g>
			<g>
				<path fill-rule="evenodd" clip-rule="evenodd" fill="#091372" d="M136.828,104.174c-0.361,1.033-1.345,1.246-0.856,2.469
					c0.404,1.012,1.707,1.297,2.629,1.312c2.658,0.042,1.797-2.654,1.765-4.766c-1.284-0.26-2.079,0.611-3.329,0.443
					c-0.038,0.238-0.033,0.479-0.016,0.727"/>
			</g>
		</g>
	</g>
	<g opacity="0.65">
		<g>
			<g>
				<path fill-rule="evenodd" clip-rule="evenodd" fill="#091372" d="M71.502,122.31c0.71,1.121,0.174,2.218,1.705,2.673
					c1.267,0.376,2.518-0.648,3.227-1.514c2.041-2.497-1.174-3.707-3.207-5.266c-1.214,1.027-0.982,2.438-2.084,3.502
					c0.2,0.216,0.433,0.393,0.68,0.561"/>
			</g>
			<g>
				<path fill-rule="evenodd" clip-rule="evenodd" fill="#091372" d="M72.995,113.26c0.346,0.921-0.209,1.635,0.832,2.197
					c0.862,0.464,1.926-0.09,2.57-0.61c1.857-1.502-0.291-2.866-1.529-4.304c-1.035,0.561-1.082,1.619-2.041,2.224
					c0.111,0.188,0.254,0.351,0.408,0.511"/>
			</g>
			<g>
				<path fill-rule="evenodd" clip-rule="evenodd" fill="#091372" d="M82.491,105.245c-0.443-1.587,0.586-2.698-1.07-3.786
					c-1.371-0.899-3.225-0.129-4.375,0.646c-3.317,2.238,0.07,4.824,1.929,7.402c1.81-0.786,2.039-2.546,3.728-3.416
					c-0.16-0.328-0.373-0.621-0.607-0.91"/>
			</g>
			<g>
				<path fill-rule="evenodd" clip-rule="evenodd" fill="#091372" d="M80.94,99.407c1.67-0.947,3.217-0.094,3.982-2.273
					c0.634-1.804-0.758-3.686-1.959-4.77c-3.463-3.126-5.439,1.432-7.834,4.259c1.397,1.827,3.452,1.594,4.911,3.261
					c0.326-0.273,0.598-0.598,0.858-0.943"/>
			</g>
			<g>
				<path fill-rule="evenodd" clip-rule="evenodd" fill="#091372" d="M80.65,90.378c0.319-1.63,1.75-2.164,0.751-3.895
					c-0.827-1.431-2.846-1.577-4.234-1.399c-4.001,0.512-2.122,4.376-1.615,7.54c1.986,0.111,2.99-1.369,4.905-1.388
					c0.004-0.369-0.056-0.729-0.136-1.095"/>
			</g>
		</g>
	</g>
</g>
</svg>
